solid OpenSCAD_Model
  facet normal 1 0 0
    outer loop
      vertex 0 74 83
      vertex 0 70 43
      vertex 0 74 33
    endloop
  endfacet
  facet normal 1 0 0
    outer loop
      vertex 0 74 83
      vertex 0 34 43
      vertex 0 70 43
    endloop
  endfacet
  facet normal 1 -0 0
    outer loop
      vertex 0 30 83
      vertex 0 34 43
      vertex 0 74 83
    endloop
  endfacet
  facet normal 1 0 0
    outer loop
      vertex 0 30 33
      vertex 0 34 43
      vertex 0 30 83
    endloop
  endfacet
  facet normal 1 0 0
    outer loop
      vertex 0 34 43
      vertex 0 30 33
      vertex 0 34 33
    endloop
  endfacet
  facet normal 1 0 0
    outer loop
      vertex 0 74 33
      vertex 0 70 43
      vertex 0 70 33
    endloop
  endfacet
  facet normal -0 0 1
    outer loop
      vertex -3 74 86
      vertex 6 30 86
      vertex 6 74 86
    endloop
  endfacet
  facet normal 0 0 1
    outer loop
      vertex 6 30 86
      vertex -3 74 86
      vertex -3 30 86
    endloop
  endfacet
  facet normal 0 0 -1
    outer loop
      vertex -9 43 33
      vertex -3 61 33
      vertex -3 43 33
    endloop
  endfacet
  facet normal -0 0 -1
    outer loop
      vertex -3 61 33
      vertex -9 43 33
      vertex -9 61 33
    endloop
  endfacet
  facet normal 0 0 -1
    outer loop
      vertex -3 30 33
      vertex 0 34 33
      vertex 0 30 33
    endloop
  endfacet
  facet normal 0 0 -1
    outer loop
      vertex 0 34 33
      vertex -3 43 33
      vertex 0 70 33
    endloop
  endfacet
  facet normal -0 0 -1
    outer loop
      vertex 0 34 33
      vertex -3 30 33
      vertex -3 43 33
    endloop
  endfacet
  facet normal 0 0 -1
    outer loop
      vertex -3 61 33
      vertex 0 70 33
      vertex -3 43 33
    endloop
  endfacet
  facet normal 0 0 -1
    outer loop
      vertex -3 74 33
      vertex 0 70 33
      vertex -3 61 33
    endloop
  endfacet
  facet normal 0 0 -1
    outer loop
      vertex 0 70 33
      vertex -3 74 33
      vertex 0 74 33
    endloop
  endfacet
  facet normal 0 0 -1
    outer loop
      vertex 0 34 33
      vertex 4.6 70 33
      vertex 4.6 34 33
    endloop
  endfacet
  facet normal -0 0 -1
    outer loop
      vertex 4.6 70 33
      vertex 0 34 33
      vertex 0 70 33
    endloop
  endfacet
  facet normal -1 0 0
    outer loop
      vertex -3 43 33
      vertex -3 30 33
      vertex -3 43 40
    endloop
  endfacet
  facet normal -1 0 0
    outer loop
      vertex -3 61 40
      vertex -3 74 33
      vertex -3 61 33
    endloop
  endfacet
  facet normal -1 0 0
    outer loop
      vertex -3 74 33
      vertex -3 61 40
      vertex -3 74 86
    endloop
  endfacet
  facet normal -1 0 0
    outer loop
      vertex -3 43 40
      vertex -3 74 86
      vertex -3 61 40
    endloop
  endfacet
  facet normal -1 0 0
    outer loop
      vertex -3 30 86
      vertex -3 43 40
      vertex -3 30 33
    endloop
  endfacet
  facet normal -1 0 0
    outer loop
      vertex -3 43 40
      vertex -3 30 86
      vertex -3 74 86
    endloop
  endfacet
  facet normal 0 1 0
    outer loop
      vertex 0 74 83
      vertex 6 74 86
      vertex 6 74 83
    endloop
  endfacet
  facet normal 0 1 0
    outer loop
      vertex 6 74 86
      vertex 0 74 83
      vertex -3 74 86
    endloop
  endfacet
  facet normal 0 1 0
    outer loop
      vertex -3 74 33
      vertex 0 74 83
      vertex 0 74 33
    endloop
  endfacet
  facet normal 0 1 0
    outer loop
      vertex 0 74 83
      vertex -3 74 33
      vertex -3 74 86
    endloop
  endfacet
  facet normal 0 -1 0
    outer loop
      vertex -3 30 86
      vertex 0 30 83
      vertex 6 30 86
    endloop
  endfacet
  facet normal 0 -1 0
    outer loop
      vertex -3 30 33
      vertex 0 30 83
      vertex -3 30 86
    endloop
  endfacet
  facet normal 0 -1 -0
    outer loop
      vertex 0 30 83
      vertex -3 30 33
      vertex 0 30 33
    endloop
  endfacet
  facet normal 0 -1 -0
    outer loop
      vertex 6 30 86
      vertex 0 30 83
      vertex 6 30 83
    endloop
  endfacet
  facet normal 1 -0 0
    outer loop
      vertex 4.6 34 43
      vertex 4.6 70 33
      vertex 4.6 70 43
    endloop
  endfacet
  facet normal 1 0 0
    outer loop
      vertex 4.6 70 33
      vertex 4.6 34 43
      vertex 4.6 34 33
    endloop
  endfacet
  facet normal -0 0 1
    outer loop
      vertex 0 70 43
      vertex 4.6 34 43
      vertex 4.6 70 43
    endloop
  endfacet
  facet normal 0 0 1
    outer loop
      vertex 4.6 34 43
      vertex 0 70 43
      vertex 0 34 43
    endloop
  endfacet
  facet normal 0 1 -0
    outer loop
      vertex 4.6 70 33
      vertex 0 70 43
      vertex 4.6 70 43
    endloop
  endfacet
  facet normal 0 1 0
    outer loop
      vertex 0 70 43
      vertex 4.6 70 33
      vertex 0 70 33
    endloop
  endfacet
  facet normal 0 -1 0
    outer loop
      vertex 0 34 33
      vertex 4.6 34 43
      vertex 0 34 43
    endloop
  endfacet
  facet normal 0 -1 -0
    outer loop
      vertex 4.6 34 43
      vertex 0 34 33
      vertex 4.6 34 33
    endloop
  endfacet
  facet normal 1 -0 0
    outer loop
      vertex 6 30 86
      vertex 6 74 83
      vertex 6 74 86
    endloop
  endfacet
  facet normal 1 0 0
    outer loop
      vertex 6 74 83
      vertex 6 30 86
      vertex 6 30 83
    endloop
  endfacet
  facet normal 0 0 -1
    outer loop
      vertex 6 30 83
      vertex 5.4 34 83
      vertex 6 74 83
    endloop
  endfacet
  facet normal 0 0 -1
    outer loop
      vertex 6 30 83
      vertex 2.6 34 83
      vertex 5.4 34 83
    endloop
  endfacet
  facet normal -0 0 -1
    outer loop
      vertex 2.6 34 83
      vertex 0 30 83
      vertex 2.6 70 83
    endloop
  endfacet
  facet normal 0 0 -1
    outer loop
      vertex 0 30 83
      vertex 2.6 34 83
      vertex 6 30 83
    endloop
  endfacet
  facet normal 0 0 -1
    outer loop
      vertex 5.4 70 83
      vertex 6 74 83
      vertex 5.4 34 83
    endloop
  endfacet
  facet normal 0 0 -1
    outer loop
      vertex 2.6 70 83
      vertex 6 74 83
      vertex 5.4 70 83
    endloop
  endfacet
  facet normal 0 0 -1
    outer loop
      vertex 2.6 70 83
      vertex 0 74 83
      vertex 6 74 83
    endloop
  endfacet
  facet normal 0 0 -1
    outer loop
      vertex 0 74 83
      vertex 2.6 70 83
      vertex 0 30 83
    endloop
  endfacet
  facet normal 1 0 0
    outer loop
      vertex 5.4 70 83
      vertex 5.4 66 80.2
      vertex 5.4 70 78.5
    endloop
  endfacet
  facet normal 1 0 0
    outer loop
      vertex 5.4 70 83
      vertex 5.4 38 80.2
      vertex 5.4 66 80.2
    endloop
  endfacet
  facet normal 1 0 0
    outer loop
      vertex 5.4 34 78.5
      vertex 5.4 38 80.2
      vertex 5.4 34 83
    endloop
  endfacet
  facet normal 1 -0 0
    outer loop
      vertex 5.4 34 83
      vertex 5.4 38 80.2
      vertex 5.4 70 83
    endloop
  endfacet
  facet normal 1 -0 0
    outer loop
      vertex 5.4 66 79
      vertex 5.4 70 78.5
      vertex 5.4 66 80.2
    endloop
  endfacet
  facet normal 1 -0 0
    outer loop
      vertex 5.4 38 79
      vertex 5.4 70 78.5
      vertex 5.4 66 79
    endloop
  endfacet
  facet normal 1 0 0
    outer loop
      vertex 5.4 38 79
      vertex 5.4 34 78.5
      vertex 5.4 70 78.5
    endloop
  endfacet
  facet normal 1 0 0
    outer loop
      vertex 5.4 38 80.2
      vertex 5.4 34 78.5
      vertex 5.4 38 79
    endloop
  endfacet
  facet normal 0 0 -1
    outer loop
      vertex 2.6 34 78.5
      vertex 5.4 70 78.5
      vertex 5.4 34 78.5
    endloop
  endfacet
  facet normal -0 0 -1
    outer loop
      vertex 5.4 70 78.5
      vertex 2.6 34 78.5
      vertex 2.6 70 78.5
    endloop
  endfacet
  facet normal -1 0 0
    outer loop
      vertex 2.6 34 78.5
      vertex 2.6 70 83
      vertex 2.6 70 78.5
    endloop
  endfacet
  facet normal -1 -0 0
    outer loop
      vertex 2.6 70 83
      vertex 2.6 34 78.5
      vertex 2.6 34 83
    endloop
  endfacet
  facet normal 0 1 -0
    outer loop
      vertex 5.4 70 78.5
      vertex 2.6 70 83
      vertex 5.4 70 83
    endloop
  endfacet
  facet normal 0 1 0
    outer loop
      vertex 2.6 70 83
      vertex 5.4 70 78.5
      vertex 2.6 70 78.5
    endloop
  endfacet
  facet normal 0 -1 0
    outer loop
      vertex 2.6 34 78.5
      vertex 5.4 34 83
      vertex 2.6 34 83
    endloop
  endfacet
  facet normal 0 -1 -0
    outer loop
      vertex 5.4 34 83
      vertex 2.6 34 78.5
      vertex 5.4 34 78.5
    endloop
  endfacet
  facet normal 1 -0 0
    outer loop
      vertex 6.2 38 80.2
      vertex 6.2 66 79
      vertex 6.2 66 80.2
    endloop
  endfacet
  facet normal 1 0 0
    outer loop
      vertex 6.2 66 79
      vertex 6.2 38 80.2
      vertex 6.2 38 79
    endloop
  endfacet
  facet normal -0 0 1
    outer loop
      vertex 5.4 66 80.2
      vertex 6.2 38 80.2
      vertex 6.2 66 80.2
    endloop
  endfacet
  facet normal 0 0 1
    outer loop
      vertex 6.2 38 80.2
      vertex 5.4 66 80.2
      vertex 5.4 38 80.2
    endloop
  endfacet
  facet normal 0 0 -1
    outer loop
      vertex 5.4 38 79
      vertex 6.2 66 79
      vertex 6.2 38 79
    endloop
  endfacet
  facet normal -0 0 -1
    outer loop
      vertex 6.2 66 79
      vertex 5.4 38 79
      vertex 5.4 66 79
    endloop
  endfacet
  facet normal 0 1 -0
    outer loop
      vertex 6.2 66 79
      vertex 5.4 66 80.2
      vertex 6.2 66 80.2
    endloop
  endfacet
  facet normal 0 1 0
    outer loop
      vertex 5.4 66 80.2
      vertex 6.2 66 79
      vertex 5.4 66 79
    endloop
  endfacet
  facet normal 0 -1 0
    outer loop
      vertex 5.4 38 79
      vertex 6.2 38 80.2
      vertex 5.4 38 80.2
    endloop
  endfacet
  facet normal 0 -1 -0
    outer loop
      vertex 6.2 38 80.2
      vertex 5.4 38 79
      vertex 6.2 38 79
    endloop
  endfacet
  facet normal -0 0 1
    outer loop
      vertex -9 61 40
      vertex -3 43 40
      vertex -3 61 40
    endloop
  endfacet
  facet normal 0 0 1
    outer loop
      vertex -3 43 40
      vertex -9 61 40
      vertex -9 43 40
    endloop
  endfacet
  facet normal -1 0 0
    outer loop
      vertex -9 43 33
      vertex -9 61 40
      vertex -9 61 33
    endloop
  endfacet
  facet normal -1 -0 0
    outer loop
      vertex -9 61 40
      vertex -9 43 33
      vertex -9 43 40
    endloop
  endfacet
  facet normal 0 1 -0
    outer loop
      vertex -3 61 33
      vertex -9 61 40
      vertex -3 61 40
    endloop
  endfacet
  facet normal 0 1 0
    outer loop
      vertex -9 61 40
      vertex -3 61 33
      vertex -9 61 33
    endloop
  endfacet
  facet normal 0 -1 0
    outer loop
      vertex -9 43 33
      vertex -3 43 40
      vertex -9 43 40
    endloop
  endfacet
  facet normal 0 -1 -0
    outer loop
      vertex -3 43 40
      vertex -9 43 33
      vertex -3 43 33
    endloop
  endfacet
endsolid OpenSCAD_Model
