<?xml version="1.0" encoding="UTF-8"?>
<svg xmlns="http://www.w3.org/2000/svg" viewBox="0 0 1200 1400" width="1200" height="1400">
  <defs>
    <radialGradient id="port" cx="50%" cy="42%" r="75%">
      <stop offset="0%" stop-color="#95cfd8"/><stop offset="100%" stop-color="#3996a6"/>
    </radialGradient>
    <linearGradient id="gloss" x1="0" y1="0" x2="0" y2="1">
      <stop offset="0%" stop-color="#ffffff" stop-opacity="0.55"/>
      <stop offset="55%" stop-color="#ffffff" stop-opacity="0"/>
    </linearGradient>
    <linearGradient id="card" x1="0" y1="0" x2="0" y2="1">
      <stop offset="0%" stop-color="#10131b"/>
      <stop offset="100%" stop-color="#0a0c12"/>
    </linearGradient>
  </defs>
  <rect x="0" y="0" width="1200" height="1400" fill="#0f1118"/>
  <rect x="60" y="60" width="1080" height="1280" rx="34" fill="url(#card)" stroke="#6fbdca" stroke-width="6"/>
  <rect x="72" y="72" width="1056" height="1256" rx="30" fill="none" stroke="#3FA7B8" stroke-width="2" stroke-opacity="0.7"/>
  

  <text x="600" y="188" font-family="'Segoe UI',system-ui,-apple-system,sans-serif" font-size="74" font-weight="800" letter-spacing="2" text-anchor="middle" fill="#eef2f8">THE BLUE WEAVER</text>
  <text x="600" y="238" font-family="ui-monospace,'Courier New',monospace" font-size="26" letter-spacing="5" text-anchor="middle" fill="#3FA7B8">GHK-CU</text>

  <rect x="150" y="300" width="900" height="690" rx="26" fill="url(#port)" stroke="#3FA7B8" stroke-width="4"/>
  <circle cx="992" cy="358" r="40" fill="#65b9c6" stroke="#fff" stroke-width="5"/><circle cx="992" cy="358" r="40" fill="url(#gloss)"/>
  <g><polygon points="487.9,675.1 582.5,675.1 582.5,935.0 497.4,935.0" fill="#52b0bf" stroke="#26646e" stroke-width="6" stroke-linejoin="round"/><polygon points="712.1,675.1 617.5,675.1 617.5,935.0 702.6,935.0" fill="#52b0bf" stroke="#26646e" stroke-width="6" stroke-linejoin="round"/><polygon points="424.9,497.7 775.1,497.7 712.1,675.1 487.9,675.1" fill="#52b0bf" stroke="#26646e" stroke-width="6" stroke-linejoin="round"/><polygon points="424.9,503.4 382.8,509.0 389.8,686.4 431.9,686.4" fill="#52b0bf" stroke="#26646e" stroke-width="6" stroke-linejoin="round"/><polygon points="775.1,503.4 817.2,509.0 810.2,686.4 768.1,686.4" fill="#52b0bf" stroke="#26646e" stroke-width="6" stroke-linejoin="round"/><circle cx="600.0" cy="433.9" r="44.1" fill="#52b0bf" stroke="#26646e" stroke-width="6" stroke-linejoin="round"/><polygon points="586.8,389.8 600.0,345.8 613.2,389.8" fill="#52b0bf" stroke="#26646e" stroke-width="6" stroke-linejoin="round"/><path d="M494.9,509.0 L705.1,509.0 L705.1,629.9 L600.0,686.4 L494.9,629.9 Z" fill="#71becb" stroke="#26646e" stroke-width="7"/><circle cx="600.0" cy="563.8" r="24.5" fill="#26646e"/></g>

  <text x="600" y="1060" font-family="'Segoe UI',system-ui,-apple-system,sans-serif" font-size="40" font-weight="700" letter-spacing="4" text-anchor="middle" fill="#eef2f8">WARDEN</text>
  <text x="600" y="1102" font-family="ui-monospace,'Courier New',monospace" font-size="24" letter-spacing="4" text-anchor="middle" fill="#9aa3b5">VERDIGRIS AURA &#183; ESSENCE 3</text>

  <text x="600" y="1160" font-family="ui-monospace,'Courier New',monospace" font-size="23" letter-spacing="3" text-anchor="middle" fill="#3FA7B8">EVOLVES INTO</text>
  <text x="600" y="1196" font-family="'Segoe UI',system-ui,-apple-system,sans-serif" font-size="30" font-weight="700" letter-spacing="2" text-anchor="middle" fill="#eef2f8">ADAMANTIUM</text>

  <text x="600" y="1254" font-family="'Segoe UI',system-ui,-apple-system,sans-serif" font-size="27" font-style="italic" text-anchor="middle" fill="#9aa3b5">Copper-born, it reweaves skin and strand.</text>
  <text x="600" y="1300" font-family="ui-monospace,'Courier New',monospace" font-size="22" letter-spacing="6" text-anchor="middle" fill="#9aa3b5" fill-opacity="0.8">HUMAN+ &#183; MYTHOS</text>
</svg>