<?xml version="1.0" encoding="UTF-8"?>
<svg xmlns="http://www.w3.org/2000/svg" viewBox="0 0 1200 1400" width="1200" height="1400">
  <defs>
    <radialGradient id="port" cx="50%" cy="42%" r="75%">
      <stop offset="0%" stop-color="#37284c"/><stop offset="100%" stop-color="#060504"/>
    </radialGradient>
    <linearGradient id="gloss" x1="0" y1="0" x2="0" y2="1">
      <stop offset="0%" stop-color="#ffffff" stop-opacity="0.55"/>
      <stop offset="55%" stop-color="#ffffff" stop-opacity="0"/>
    </linearGradient>
    <linearGradient id="card" x1="0" y1="0" x2="0" y2="1">
      <stop offset="0%" stop-color="#17130d"/>
      <stop offset="100%" stop-color="#0b0907"/>
    </linearGradient>
  </defs>
  <rect x="0" y="0" width="1200" height="1400" fill="#0c0a08"/>
  <rect x="60" y="60" width="1080" height="1280" rx="10" fill="url(#card)" stroke="#7A5AA8" stroke-width="6"/>
  <rect x="72" y="72" width="1056" height="1256" rx="6" fill="none" stroke="#5c447e" stroke-width="2" stroke-opacity="0.7"/>
  <path d="M74,74 l64,0 m-64,0 l0,64" fill="none" stroke="#7A5AA8" stroke-width="5"/><circle cx="90" cy="90" r="6" fill="#7A5AA8"/><path d="M1126,74 l-64,0 m64,0 l0,64" fill="none" stroke="#7A5AA8" stroke-width="5"/><circle cx="1110" cy="90" r="6" fill="#7A5AA8"/><path d="M74,1326 l64,0 m-64,0 l0,-64" fill="none" stroke="#7A5AA8" stroke-width="5"/><circle cx="90" cy="1310" r="6" fill="#7A5AA8"/><path d="M1126,1326 l-64,0 m64,0 l0,-64" fill="none" stroke="#7A5AA8" stroke-width="5"/><circle cx="1110" cy="1310" r="6" fill="#7A5AA8"/>

  <text x="600" y="188" font-family="'Cinzel','Trajan Pro',Georgia,'DejaVu Serif',serif" font-size="74" font-weight="800" letter-spacing="6" text-anchor="middle" fill="#ece4d2">THE FOCUSED</text>
  <text x="600" y="238" font-family="ui-monospace,'Courier New',monospace" font-size="26" letter-spacing="5" text-anchor="middle" fill="#7A5AA8">SEMAX</text>

  <rect x="150" y="300" width="900" height="690" rx="8" fill="url(#port)" stroke="#5c447e" stroke-width="4"/>
  
  <g><polygon points="600.0,486.4 407.3,935.0 792.7,935.0" fill="#584374" stroke="#37284c" stroke-width="6" stroke-linejoin="round"/><polygon points="542.7,442.7 600.0,367.8 657.3,442.7" fill="#584374" stroke="#37284c" stroke-width="6" stroke-linejoin="round"/><circle cx="600.0" cy="440.5" r="34.4" fill="#302540"/><line x1="775.1" y1="463.8" x2="775.1" y2="935.0" stroke="#37284c" stroke-width="10"/><circle cx="775.1" cy="458.2" r="21.0" fill="#8a7b9e" stroke="#37284c" stroke-width="4"/></g>

  <text x="600" y="1060" font-family="'Cinzel','Trajan Pro',Georgia,'DejaVu Serif',serif" font-size="40" font-weight="700" letter-spacing="4" text-anchor="middle" fill="#ece4d2">SAGE</text>
  <text x="600" y="1102" font-family="ui-monospace,'Courier New',monospace" font-size="24" letter-spacing="4" text-anchor="middle" fill="#998f78">VIOLET AURA &#183; ESSENCE 7</text>

  <text x="600" y="1160" font-family="ui-monospace,'Courier New',monospace" font-size="23" letter-spacing="3" text-anchor="middle" fill="#7A5AA8">EVOLVES INTO</text>
  <text x="600" y="1196" font-family="'Cinzel','Trajan Pro',Georgia,'DejaVu Serif',serif" font-size="30" font-weight="700" letter-spacing="2" text-anchor="middle" fill="#ece4d2">LIMITLESS</text>

  <text x="600" y="1254" font-family="'Cinzel','Trajan Pro',Georgia,'DejaVu Serif',serif" font-size="27" font-style="italic" text-anchor="middle" fill="#998f78">Narrows the world to a single bright point.</text>
  <text x="600" y="1300" font-family="ui-monospace,'Courier New',monospace" font-size="22" letter-spacing="6" text-anchor="middle" fill="#998f78" fill-opacity="0.8">HUMAN+ &#183; MYTHOS</text>
</svg>