<?xml version="1.0" encoding="UTF-8"?>
<svg xmlns="http://www.w3.org/2000/svg" viewBox="0 0 1200 1400" width="1200" height="1400">
  <defs>
    <clipPath id="portraitClip">
      <rect x="350" y="255" width="500" height="750" rx="8" ry="8"/>
    </clipPath>
    <radialGradient id="port" cx="50%" cy="42%" r="75%">
      <stop offset="0%" stop-color="#1c335a"/><stop offset="100%" stop-color="#060504"/>
    </radialGradient>
    <linearGradient id="gloss" x1="0" y1="0" x2="0" y2="1">
      <stop offset="0%" stop-color="#ffffff" stop-opacity="0.55"/>
      <stop offset="55%" stop-color="#ffffff" stop-opacity="0"/>
    </linearGradient>
    <linearGradient id="card" x1="0" y1="0" x2="0" y2="1">
      <stop offset="0%" stop-color="#17130d"/>
      <stop offset="100%" stop-color="#0b0907"/>
    </linearGradient>
  </defs>
  <rect x="0" y="0" width="1200" height="1400" fill="#0c0a08"/>
  <rect x="60" y="60" width="1080" height="1280" rx="10" fill="url(#card)" stroke="#3E72C9" stroke-width="6"/>
  <rect x="72" y="72" width="1056" height="1256" rx="6" fill="none" stroke="#2e5697" stroke-width="2" stroke-opacity="0.7"/>
  <path d="M74,74 l64,0 m-64,0 l0,64" fill="none" stroke="#3E72C9" stroke-width="5"/><circle cx="90" cy="90" r="6" fill="#3E72C9"/><path d="M1126,74 l-64,0 m64,0 l0,64" fill="none" stroke="#3E72C9" stroke-width="5"/><circle cx="1110" cy="90" r="6" fill="#3E72C9"/><path d="M74,1326 l64,0 m-64,0 l0,-64" fill="none" stroke="#3E72C9" stroke-width="5"/><circle cx="90" cy="1310" r="6" fill="#3E72C9"/><path d="M1126,1326 l-64,0 m64,0 l0,-64" fill="none" stroke="#3E72C9" stroke-width="5"/><circle cx="1110" cy="1310" r="6" fill="#3E72C9"/>

  <text x="600" y="188" font-family="'Cinzel','Trajan Pro',Georgia,'DejaVu Serif',serif" font-size="74" font-weight="800" letter-spacing="6" text-anchor="middle" fill="#ece4d2">REACTOR</text>
  <text x="600" y="238" font-family="ui-monospace,'Courier New',monospace" font-size="26" letter-spacing="5" text-anchor="middle" fill="#3E72C9">MITO / LONGEVITY</text>

  <rect x="350" y="255" width="500" height="750" rx="8" fill="url(#port)" stroke="#2e5697" stroke-width="4"/>

  <image x="350" y="255" width="500" height="750" href="../mythic_art/art_REACTOR_mythic.png" preserveAspectRatio="xMidYMin meet" clip-path="url(#portraitClip)"/>

  <rect x="350" y="255" width="500" height="750" rx="8" fill="none" stroke="#2e5697" stroke-width="4"/>

  <text x="600" y="1087" font-family="ui-monospace,'Courier New',monospace" font-size="24" letter-spacing="4" text-anchor="middle" fill="#998f78">SAPPHIRE AURA &#183; TIER 2</text>

  <text x="600" y="1155" font-family="ui-monospace,'Courier New',monospace" font-size="23" letter-spacing="3" text-anchor="middle" fill="#3E72C9">FORGED FROM</text>
  <text x="600" y="1193" font-family="'Cinzel','Trajan Pro',Georgia,'DejaVu Serif',serif" font-size="30" font-weight="700" letter-spacing="1" text-anchor="middle" fill="#ece4d2">SS-31 + MOTS-c</text>

  <text x="600" y="1254" font-family="'Cinzel','Trajan Pro',Georgia,'DejaVu Serif',serif" font-size="27" font-style="italic" text-anchor="middle" fill="#998f78">The core powered to a steady, endless hum.</text>
  <text x="600" y="1300" font-family="ui-monospace,'Courier New',monospace" font-size="22" letter-spacing="6" text-anchor="middle" fill="#998f78" fill-opacity="0.8">HUMAN+ APPAREL</text>
</svg>
