<?xml version="1.0" encoding="UTF-8"?>
<svg xmlns="http://www.w3.org/2000/svg" viewBox="0 0 1200 1400" width="1200" height="1400">
  <defs>
    <radialGradient id="port" cx="50%" cy="42%" r="75%">
      <stop offset="0%" stop-color="#afb6c0"/><stop offset="100%" stop-color="#636f7e"/>
    </radialGradient>
    <linearGradient id="gloss" x1="0" y1="0" x2="0" y2="1">
      <stop offset="0%" stop-color="#ffffff" stop-opacity="0.55"/>
      <stop offset="55%" stop-color="#ffffff" stop-opacity="0"/>
    </linearGradient>
    <linearGradient id="card" x1="0" y1="0" x2="0" y2="1">
      <stop offset="0%" stop-color="#10131b"/>
      <stop offset="100%" stop-color="#0a0c12"/>
    </linearGradient>
  </defs>
  <rect x="0" y="0" width="1200" height="1400" fill="#0f1118"/>
  <rect x="60" y="60" width="1080" height="1280" rx="34" fill="url(#card)" stroke="#929ca9" stroke-width="6"/>
  <rect x="72" y="72" width="1056" height="1256" rx="30" fill="none" stroke="#6E7B8C" stroke-width="2" stroke-opacity="0.7"/>
  

  <text x="600" y="188" font-family="'Segoe UI',system-ui,-apple-system,sans-serif" font-size="74" font-weight="800" letter-spacing="2" text-anchor="middle" fill="#eef2f8">WOLVERINE</text>
  <text x="600" y="238" font-family="ui-monospace,'Courier New',monospace" font-size="26" letter-spacing="5" text-anchor="middle" fill="#6E7B8C">RECOVERY / REPAIR</text>

  <rect x="150" y="300" width="900" height="690" rx="26" fill="url(#port)" stroke="#6E7B8C" stroke-width="4"/>
  <circle cx="992" cy="358" r="40" fill="#8b95a3" stroke="#fff" stroke-width="5"/><circle cx="992" cy="358" r="40" fill="url(#gloss)"/>
  <g><polygon points="473.9,675.1 582.5,675.1 582.5,935.0 473.9,935.0" fill="#7c8898" stroke="#424a54" stroke-width="6" stroke-linejoin="round"/><polygon points="726.1,675.1 617.5,675.1 617.5,935.0 726.1,935.0" fill="#7c8898" stroke="#424a54" stroke-width="6" stroke-linejoin="round"/><polygon points="396.8,514.7 803.2,486.4 726.1,675.1 473.9,675.1" fill="#7c8898" stroke="#424a54" stroke-width="6" stroke-linejoin="round"/><polygon points="382.8,509.0 438.9,509.0 375.8,709.0 319.8,709.0" fill="#7c8898" stroke="#424a54" stroke-width="6" stroke-linejoin="round"/><polygon points="337.3,709.0 332.0,748.5 344.3,709.0" fill="#96a0ad" stroke="#424a54" stroke-width="3"/><polygon points="319.8,709.0 314.5,748.5 326.8,709.0" fill="#96a0ad" stroke="#424a54" stroke-width="3"/><polygon points="302.2,709.0 297.0,748.5 309.3,709.0" fill="#96a0ad" stroke="#424a54" stroke-width="3"/><polygon points="817.2,509.0 761.1,509.0 824.2,709.0 880.2,709.0" fill="#7c8898" stroke="#424a54" stroke-width="6" stroke-linejoin="round"/><polygon points="862.7,709.0 868.0,748.5 855.7,709.0" fill="#96a0ad" stroke="#424a54" stroke-width="3"/><polygon points="880.2,709.0 885.5,748.5 873.2,709.0" fill="#96a0ad" stroke="#424a54" stroke-width="3"/><polygon points="897.8,709.0 903.0,748.5 890.7,709.0" fill="#96a0ad" stroke="#424a54" stroke-width="3"/><circle cx="635.0" cy="445.2" r="44.1" fill="#7c8898" stroke="#424a54" stroke-width="6" stroke-linejoin="round"/></g>

  <text x="600" y="1060" font-family="'Segoe UI',system-ui,-apple-system,sans-serif" font-size="40" font-weight="700" letter-spacing="4" text-anchor="middle" fill="#eef2f8">BERSERKER</text>
  <text x="600" y="1102" font-family="ui-monospace,'Courier New',monospace" font-size="24" letter-spacing="4" text-anchor="middle" fill="#9aa3b5">STEEL AURA &#183; TIER 2</text>

  <text x="600" y="1160" font-family="ui-monospace,'Courier New',monospace" font-size="23" letter-spacing="3" text-anchor="middle" fill="#6E7B8C">FORGED FROM</text>
  <text x="600" y="1196" font-family="'Segoe UI',system-ui,-apple-system,sans-serif" font-size="30" font-weight="700" letter-spacing="2" text-anchor="middle" fill="#eef2f8">MENDER + RESTORER</text>

  <text x="600" y="1254" font-family="'Segoe UI',system-ui,-apple-system,sans-serif" font-size="27" font-style="italic" text-anchor="middle" fill="#9aa3b5">Heals as fast as it tears. It does not stop.</text>
  <text x="600" y="1300" font-family="ui-monospace,'Courier New',monospace" font-size="22" letter-spacing="6" text-anchor="middle" fill="#9aa3b5" fill-opacity="0.8">HUMAN+ &#183; MYTHOS</text>
</svg>