solid OpenSCAD_Model
  facet normal 1 -0 0
    outer loop
      vertex -0.799999 16 39.5
      vertex -0.799999 86 30
      vertex -0.799999 86 39.5
    endloop
  endfacet
  facet normal 1 0 0
    outer loop
      vertex -0.799999 86 30
      vertex -0.799999 16 39.5
      vertex -0.799999 16 30
    endloop
  endfacet
  facet normal 0 0 -1
    outer loop
      vertex 187.4 -9.8 18
      vertex 117.4 -9.8 18
      vertex 187.4 -3.8 18
    endloop
  endfacet
  facet normal 0 0 -1
    outer loop
      vertex 187.4 -3.8 18
      vertex 301.8 -0.599999 18
      vertex 301.8 -3.8 18
    endloop
  endfacet
  facet normal 0 0 -1
    outer loop
      vertex 117.4 -3.8 18
      vertex 187.4 -3.8 18
      vertex 117.4 -9.8 18
    endloop
  endfacet
  facet normal 0 0 -1
    outer loop
      vertex 117.4 -3.8 18
      vertex 301.8 -0.599999 18
      vertex 187.4 -3.8 18
    endloop
  endfacet
  facet normal 0 0 -1
    outer loop
      vertex 2.4 -0.599999 18
      vertex 117.4 -3.8 18
      vertex 2.4 -3.8 18
    endloop
  endfacet
  facet normal 0 0 -1
    outer loop
      vertex 117.4 -3.8 18
      vertex 2.4 -0.599999 18
      vertex 301.8 -0.599999 18
    endloop
  endfacet
  facet normal 0 0 -1
    outer loop
      vertex 301.8 -3.8 18
      vertex 305.4 -3.9 18
      vertex 301.8 -3.9 18
    endloop
  endfacet
  facet normal 0 0 -1
    outer loop
      vertex 301.8 -0.599999 18
      vertex 305.4 -3.9 18
      vertex 301.8 -3.8 18
    endloop
  endfacet
  facet normal 0 0 -1
    outer loop
      vertex 305.4 -3.9 18
      vertex 301.8 -0.599999 18
      vertex 305.4 -0.4 18
    endloop
  endfacet
  facet normal -0 0 -1
    outer loop
      vertex 305.4 -0.4 18
      vertex 301.8 -0.599999 18
      vertex 301.8 -0.4 18
    endloop
  endfacet
  facet normal 0 0 -1
    outer loop
      vertex 305.4 -3.9 18
      vertex 308.6 -3.9 18
      vertex 308.6 -4 18
    endloop
  endfacet
  facet normal 0 0 -1
    outer loop
      vertex 308.6 -3.9 18
      vertex 305.4 -3.9 18
      vertex 308.6 -0.4 18
    endloop
  endfacet
  facet normal 0 0 -1
    outer loop
      vertex 305.4 -3.9 18
      vertex 308.6 -4 18
      vertex 305.4 -4 18
    endloop
  endfacet
  facet normal -0 0 -1
    outer loop
      vertex 308.6 -0.4 18
      vertex 305.4 -3.9 18
      vertex 305.4 -0.4 18
    endloop
  endfacet
  facet normal 0 0 -1
    outer loop
      vertex 308.6 -0.4 18
      vertex 305.4 -0.4 18
      vertex 308.6 91 18
    endloop
  endfacet
  facet normal -0 0 -1
    outer loop
      vertex 308.6 91 18
      vertex 305.4 -0.4 18
      vertex 305.4 91 18
    endloop
  endfacet
  facet normal 0 0 -1
    outer loop
      vertex 308.6 -3.9 18
      vertex 308.7 -0.4 18
      vertex 308.7 -3.9 18
    endloop
  endfacet
  facet normal -0 0 -1
    outer loop
      vertex 308.7 -0.4 18
      vertex 308.6 -3.9 18
      vertex 308.6 -0.4 18
    endloop
  endfacet
  facet normal 0 0 -1
    outer loop
      vertex -3.9 -3.9 18
      vertex -3.8 -0.4 18
      vertex -3.8 -3.9 18
    endloop
  endfacet
  facet normal -0 0 -1
    outer loop
      vertex -3.8 -0.4 18
      vertex -3.9 -3.9 18
      vertex -3.9 -0.4 18
    endloop
  endfacet
  facet normal 0 0 -1
    outer loop
      vertex -3.8 -3.9 18
      vertex -0.599999 -3.9 18
      vertex -0.599999 -4 18
    endloop
  endfacet
  facet normal 0 0 -1
    outer loop
      vertex -0.599999 -3.9 18
      vertex -3.8 -3.9 18
      vertex -0.599999 -0.4 18
    endloop
  endfacet
  facet normal 0 0 -1
    outer loop
      vertex -3.8 -3.9 18
      vertex -0.599999 -4 18
      vertex -3.8 -4 18
    endloop
  endfacet
  facet normal -0 0 -1
    outer loop
      vertex -0.599999 -0.4 18
      vertex -3.8 -3.9 18
      vertex -3.8 -0.4 18
    endloop
  endfacet
  facet normal 0 0 -1
    outer loop
      vertex -0.599999 -0.4 18
      vertex -3.8 -0.4 18
      vertex -0.599999 91 18
    endloop
  endfacet
  facet normal -0 0 -1
    outer loop
      vertex -0.599999 91 18
      vertex -3.8 -0.4 18
      vertex -3.8 91 18
    endloop
  endfacet
  facet normal 0 0 -1
    outer loop
      vertex -0.599999 -3.9 18
      vertex 2.4 -3.8 18
      vertex 2.4 -3.9 18
    endloop
  endfacet
  facet normal -0 0 -1
    outer loop
      vertex 2.4 -3.8 18
      vertex -0.599999 -3.9 18
      vertex 2.4 -0.599999 18
    endloop
  endfacet
  facet normal 0 0 -1
    outer loop
      vertex -0.599999 -0.4 18
      vertex 2.4 -0.599999 18
      vertex -0.599999 -3.9 18
    endloop
  endfacet
  facet normal 0 0 -1
    outer loop
      vertex 2.4 -0.599999 18
      vertex -0.599999 -0.4 18
      vertex 2.4 -0.4 18
    endloop
  endfacet
  facet normal -1 0 0
    outer loop
      vertex -3.8 91 18
      vertex -3.8 86 30
      vertex -3.8 91 30
    endloop
  endfacet
  facet normal -1 0 0
    outer loop
      vertex -3.8 54 31.9
      vertex -3.8 86 30
      vertex -3.8 54 29.9
    endloop
  endfacet
  facet normal -1 0 0
    outer loop
      vertex -3.8 91 18
      vertex -3.8 54 29.9
      vertex -3.8 86 30
    endloop
  endfacet
  facet normal -1 0 0
    outer loop
      vertex -3.8 91 18
      vertex -3.8 44 29.9
      vertex -3.8 54 29.9
    endloop
  endfacet
  facet normal -1 0 0
    outer loop
      vertex -3.8 44 29.9
      vertex -3.8 16 30
      vertex -3.8 44 31.9
    endloop
  endfacet
  facet normal -1 0 0
    outer loop
      vertex -3.8 -0.4 18
      vertex -3.8 44 29.9
      vertex -3.8 91 18
    endloop
  endfacet
  facet normal -1 -0 0
    outer loop
      vertex -3.8 44 29.9
      vertex -3.8 -0.4 18
      vertex -3.8 16 30
    endloop
  endfacet
  facet normal -1 -0 0
    outer loop
      vertex -3.8 16 30
      vertex -3.8 -0.4 18
      vertex -3.8 -0.4 30
    endloop
  endfacet
  facet normal -1 0 0
    outer loop
      vertex -3.8 86 30
      vertex -3.8 54 31.9
      vertex -3.8 86 45.5
    endloop
  endfacet
  facet normal -1 0 0
    outer loop
      vertex -3.8 16 45.5
      vertex -3.8 54 31.9
      vertex -3.8 44 31.9
    endloop
  endfacet
  facet normal -1 0 0
    outer loop
      vertex -3.8 16 45.5
      vertex -3.8 44 31.9
      vertex -3.8 16 30
    endloop
  endfacet
  facet normal -1 0 0
    outer loop
      vertex -3.8 54 31.9
      vertex -3.8 16 45.5
      vertex -3.8 86 45.5
    endloop
  endfacet
  facet normal -1 0 0
    outer loop
      vertex -3.8 -4 18
      vertex -3.8 -3.9 30
      vertex -3.8 -3.9 18
    endloop
  endfacet
  facet normal -1 -0 0
    outer loop
      vertex -3.8 -3.9 30
      vertex -3.8 -4 18
      vertex -3.8 -4 30
    endloop
  endfacet
  facet normal 0 1 0
    outer loop
      vertex -0.799999 86 39.5
      vertex -0.599999 86 45.5
      vertex -0.599999 86 39.5
    endloop
  endfacet
  facet normal 0 1 0
    outer loop
      vertex -0.599999 86 45.5
      vertex -0.799999 86 39.5
      vertex -3.8 86 45.5
    endloop
  endfacet
  facet normal 0 1 0
    outer loop
      vertex -3.8 86 30
      vertex -0.799999 86 39.5
      vertex -0.799999 86 30
    endloop
  endfacet
  facet normal 0 1 0
    outer loop
      vertex -0.799999 86 39.5
      vertex -3.8 86 30
      vertex -3.8 86 45.5
    endloop
  endfacet
  facet normal 0 -1 0
    outer loop
      vertex -3.8 16 45.5
      vertex -0.799999 16 39.5
      vertex -0.599999 16 45.5
    endloop
  endfacet
  facet normal 0 -1 0
    outer loop
      vertex -3.8 16 30
      vertex -0.799999 16 39.5
      vertex -3.8 16 45.5
    endloop
  endfacet
  facet normal 0 -1 -0
    outer loop
      vertex -0.799999 16 39.5
      vertex -3.8 16 30
      vertex -0.799999 16 30
    endloop
  endfacet
  facet normal 0 -1 -0
    outer loop
      vertex -0.599999 16 45.5
      vertex -0.799999 16 39.5
      vertex -0.599999 16 39.5
    endloop
  endfacet
  facet normal 1 0 0
    outer loop
      vertex 308.4 86 45.5
      vertex 308.4 54 31.9
      vertex 308.4 86 30
    endloop
  endfacet
  facet normal 1 -0 0
    outer loop
      vertex 308.4 16 45.5
      vertex 308.4 54 31.9
      vertex 308.4 86 45.5
    endloop
  endfacet
  facet normal 1 0 0
    outer loop
      vertex 308.4 54 31.9
      vertex 308.4 16 45.5
      vertex 308.4 44 31.9
    endloop
  endfacet
  facet normal 1 0 0
    outer loop
      vertex 308.4 16 30
      vertex 308.4 44 31.9
      vertex 308.4 16 45.5
    endloop
  endfacet
  facet normal 1 0 0
    outer loop
      vertex 308.4 44 31.9
      vertex 308.4 16 30
      vertex 308.4 44 30
    endloop
  endfacet
  facet normal 1 0 0
    outer loop
      vertex 308.4 86 30
      vertex 308.4 54 31.9
      vertex 308.4 54 30
    endloop
  endfacet
  facet normal -1 0 0
    outer loop
      vertex 305.4 91 18
      vertex 305.4 86 30
      vertex 305.4 91 30
    endloop
  endfacet
  facet normal -1 0 0
    outer loop
      vertex 305.4 86 30
      vertex 305.4 16 30
      vertex 305.4 86 45.5
    endloop
  endfacet
  facet normal -1 0 0
    outer loop
      vertex 305.4 91 18
      vertex 305.4 16 30
      vertex 305.4 86 30
    endloop
  endfacet
  facet normal -1 0 0
    outer loop
      vertex 305.4 -0.4 18
      vertex 305.4 16 30
      vertex 305.4 91 18
    endloop
  endfacet
  facet normal -1 -0 0
    outer loop
      vertex 305.4 16 30
      vertex 305.4 -0.4 18
      vertex 305.4 -0.4 30
    endloop
  endfacet
  facet normal -1 -0 0
    outer loop
      vertex 305.4 86 45.5
      vertex 305.4 16 30
      vertex 305.4 16 45.5
    endloop
  endfacet
  facet normal -1 0 0
    outer loop
      vertex 305.4 -4 18
      vertex 305.4 -3.9 30
      vertex 305.4 -3.9 18
    endloop
  endfacet
  facet normal -1 -0 0
    outer loop
      vertex 305.4 -3.9 30
      vertex 305.4 -4 18
      vertex 305.4 -4 30
    endloop
  endfacet
  facet normal 0 1 -0
    outer loop
      vertex 308.4 86 30
      vertex 305.4 86 45.5
      vertex 308.4 86 45.5
    endloop
  endfacet
  facet normal 0 1 0
    outer loop
      vertex 305.4 86 45.5
      vertex 308.4 86 30
      vertex 305.4 86 30
    endloop
  endfacet
  facet normal 0 -1 0
    outer loop
      vertex 305.4 16 30
      vertex 308.4 16 45.5
      vertex 305.4 16 45.5
    endloop
  endfacet
  facet normal 0 -1 -0
    outer loop
      vertex 308.4 16 45.5
      vertex 305.4 16 30
      vertex 308.4 16 30
    endloop
  endfacet
  facet normal 0 0 -1
    outer loop
      vertex -0.799999 16 39.5
      vertex -0.599999 86 39.5
      vertex -0.599999 16 39.5
    endloop
  endfacet
  facet normal -0 0 -1
    outer loop
      vertex -0.599999 86 39.5
      vertex -0.799999 16 39.5
      vertex -0.799999 86 39.5
    endloop
  endfacet
  facet normal 0 0 -1
    outer loop
      vertex -4.3 44 29.9
      vertex -3.8 54 29.9
      vertex -3.8 44 29.9
    endloop
  endfacet
  facet normal -0 0 -1
    outer loop
      vertex -3.8 54 29.9
      vertex -4.3 44 29.9
      vertex -4.3 54 29.9
    endloop
  endfacet
  facet normal 1 -0 0
    outer loop
      vertex -0.599999 16 45.5
      vertex -0.599999 86 39.5
      vertex -0.599999 86 45.5
    endloop
  endfacet
  facet normal 1 0 0
    outer loop
      vertex -0.599999 86 39.5
      vertex -0.599999 16 45.5
      vertex -0.599999 16 39.5
    endloop
  endfacet
  facet normal -0 0 1
    outer loop
      vertex -3.8 86 45.5
      vertex -0.599999 16 45.5
      vertex -0.599999 86 45.5
    endloop
  endfacet
  facet normal 0 0 1
    outer loop
      vertex -0.599999 16 45.5
      vertex -3.8 86 45.5
      vertex -3.8 16 45.5
    endloop
  endfacet
  facet normal 0 0 -1
    outer loop
      vertex 308.6 44 29.9
      vertex 308.7 54 29.9
      vertex 308.7 44 29.9
    endloop
  endfacet
  facet normal -0 0 -1
    outer loop
      vertex 308.7 54 29.9
      vertex 308.6 44 29.9
      vertex 308.6 54 29.9
    endloop
  endfacet
  facet normal -0 0 1
    outer loop
      vertex 305.4 86 45.5
      vertex 308.4 16 45.5
      vertex 308.4 86 45.5
    endloop
  endfacet
  facet normal 0 0 1
    outer loop
      vertex 308.4 16 45.5
      vertex 305.4 86 45.5
      vertex 305.4 16 45.5
    endloop
  endfacet
  facet normal 1 -0 0
    outer loop
      vertex 123.9 -11.3 29
      vertex 123.9 -9.8 19
      vertex 123.9 -9.8 29
    endloop
  endfacet
  facet normal 1 0 0
    outer loop
      vertex 123.9 -9.8 19
      vertex 123.9 -11.3 29
      vertex 123.9 -11.3 19
    endloop
  endfacet
  facet normal -0 0 1
    outer loop
      vertex 120.9 -9.8 29
      vertex 123.9 -11.3 29
      vertex 123.9 -9.8 29
    endloop
  endfacet
  facet normal 0 0 1
    outer loop
      vertex 123.9 -11.3 29
      vertex 120.9 -9.8 29
      vertex 120.9 -11.3 29
    endloop
  endfacet
  facet normal 0 0 -1
    outer loop
      vertex 120.9 -11.3 19
      vertex 123.9 -9.8 19
      vertex 123.9 -11.3 19
    endloop
  endfacet
  facet normal -0 0 -1
    outer loop
      vertex 123.9 -9.8 19
      vertex 120.9 -11.3 19
      vertex 120.9 -9.8 19
    endloop
  endfacet
  facet normal -1 0 0
    outer loop
      vertex 120.9 -11.3 19
      vertex 120.9 -9.8 29
      vertex 120.9 -9.8 19
    endloop
  endfacet
  facet normal -1 -0 0
    outer loop
      vertex 120.9 -9.8 29
      vertex 120.9 -11.3 19
      vertex 120.9 -11.3 29
    endloop
  endfacet
  facet normal 0 -1 0
    outer loop
      vertex 120.9 -11.3 19
      vertex 123.9 -11.3 29
      vertex 120.9 -11.3 29
    endloop
  endfacet
  facet normal 0 -1 -0
    outer loop
      vertex 123.9 -11.3 29
      vertex 120.9 -11.3 19
      vertex 123.9 -11.3 19
    endloop
  endfacet
  facet normal 1 -0 0
    outer loop
      vertex 138.9 -11.3 29
      vertex 138.9 -9.8 19
      vertex 138.9 -9.8 29
    endloop
  endfacet
  facet normal 1 0 0
    outer loop
      vertex 138.9 -9.8 19
      vertex 138.9 -11.3 29
      vertex 138.9 -11.3 19
    endloop
  endfacet
  facet normal -0 0 1
    outer loop
      vertex 135.9 -9.8 29
      vertex 138.9 -11.3 29
      vertex 138.9 -9.8 29
    endloop
  endfacet
  facet normal 0 0 1
    outer loop
      vertex 138.9 -11.3 29
      vertex 135.9 -9.8 29
      vertex 135.9 -11.3 29
    endloop
  endfacet
  facet normal 0 0 -1
    outer loop
      vertex 135.9 -11.3 19
      vertex 138.9 -9.8 19
      vertex 138.9 -11.3 19
    endloop
  endfacet
  facet normal -0 0 -1
    outer loop
      vertex 138.9 -9.8 19
      vertex 135.9 -11.3 19
      vertex 135.9 -9.8 19
    endloop
  endfacet
  facet normal -1 0 0
    outer loop
      vertex 135.9 -11.3 19
      vertex 135.9 -9.8 29
      vertex 135.9 -9.8 19
    endloop
  endfacet
  facet normal -1 -0 0
    outer loop
      vertex 135.9 -9.8 29
      vertex 135.9 -11.3 19
      vertex 135.9 -11.3 29
    endloop
  endfacet
  facet normal 0 -1 0
    outer loop
      vertex 135.9 -11.3 19
      vertex 138.9 -11.3 29
      vertex 135.9 -11.3 29
    endloop
  endfacet
  facet normal 0 -1 -0
    outer loop
      vertex 138.9 -11.3 29
      vertex 135.9 -11.3 19
      vertex 138.9 -11.3 19
    endloop
  endfacet
  facet normal 1 -0 0
    outer loop
      vertex 153.9 -11.3 29
      vertex 153.9 -9.8 19
      vertex 153.9 -9.8 29
    endloop
  endfacet
  facet normal 1 0 0
    outer loop
      vertex 153.9 -9.8 19
      vertex 153.9 -11.3 29
      vertex 153.9 -11.3 19
    endloop
  endfacet
  facet normal -0 0 1
    outer loop
      vertex 150.9 -9.8 29
      vertex 153.9 -11.3 29
      vertex 153.9 -9.8 29
    endloop
  endfacet
  facet normal 0 0 1
    outer loop
      vertex 153.9 -11.3 29
      vertex 150.9 -9.8 29
      vertex 150.9 -11.3 29
    endloop
  endfacet
  facet normal 0 0 -1
    outer loop
      vertex 150.9 -11.3 19
      vertex 153.9 -9.8 19
      vertex 153.9 -11.3 19
    endloop
  endfacet
  facet normal -0 0 -1
    outer loop
      vertex 153.9 -9.8 19
      vertex 150.9 -11.3 19
      vertex 150.9 -9.8 19
    endloop
  endfacet
  facet normal -1 0 0
    outer loop
      vertex 150.9 -11.3 19
      vertex 150.9 -9.8 29
      vertex 150.9 -9.8 19
    endloop
  endfacet
  facet normal -1 -0 0
    outer loop
      vertex 150.9 -9.8 29
      vertex 150.9 -11.3 19
      vertex 150.9 -11.3 29
    endloop
  endfacet
  facet normal 0 -1 0
    outer loop
      vertex 150.9 -11.3 19
      vertex 153.9 -11.3 29
      vertex 150.9 -11.3 29
    endloop
  endfacet
  facet normal 0 -1 -0
    outer loop
      vertex 153.9 -11.3 29
      vertex 150.9 -11.3 19
      vertex 153.9 -11.3 19
    endloop
  endfacet
  facet normal 1 -0 0
    outer loop
      vertex 168.9 -11.3 29
      vertex 168.9 -9.8 19
      vertex 168.9 -9.8 29
    endloop
  endfacet
  facet normal 1 0 0
    outer loop
      vertex 168.9 -9.8 19
      vertex 168.9 -11.3 29
      vertex 168.9 -11.3 19
    endloop
  endfacet
  facet normal -0 0 1
    outer loop
      vertex 165.9 -9.8 29
      vertex 168.9 -11.3 29
      vertex 168.9 -9.8 29
    endloop
  endfacet
  facet normal 0 0 1
    outer loop
      vertex 168.9 -11.3 29
      vertex 165.9 -9.8 29
      vertex 165.9 -11.3 29
    endloop
  endfacet
  facet normal 0 0 -1
    outer loop
      vertex 165.9 -11.3 19
      vertex 168.9 -9.8 19
      vertex 168.9 -11.3 19
    endloop
  endfacet
  facet normal -0 0 -1
    outer loop
      vertex 168.9 -9.8 19
      vertex 165.9 -11.3 19
      vertex 165.9 -9.8 19
    endloop
  endfacet
  facet normal -1 0 0
    outer loop
      vertex 165.9 -11.3 19
      vertex 165.9 -9.8 29
      vertex 165.9 -9.8 19
    endloop
  endfacet
  facet normal -1 -0 0
    outer loop
      vertex 165.9 -9.8 29
      vertex 165.9 -11.3 19
      vertex 165.9 -11.3 29
    endloop
  endfacet
  facet normal 0 -1 0
    outer loop
      vertex 165.9 -11.3 19
      vertex 168.9 -11.3 29
      vertex 165.9 -11.3 29
    endloop
  endfacet
  facet normal 0 -1 -0
    outer loop
      vertex 168.9 -11.3 29
      vertex 165.9 -11.3 19
      vertex 168.9 -11.3 19
    endloop
  endfacet
  facet normal 1 -0 0
    outer loop
      vertex 183.9 -11.3 29
      vertex 183.9 -9.8 19
      vertex 183.9 -9.8 29
    endloop
  endfacet
  facet normal 1 0 0
    outer loop
      vertex 183.9 -9.8 19
      vertex 183.9 -11.3 29
      vertex 183.9 -11.3 19
    endloop
  endfacet
  facet normal -0 0 1
    outer loop
      vertex 180.9 -9.8 29
      vertex 183.9 -11.3 29
      vertex 183.9 -9.8 29
    endloop
  endfacet
  facet normal 0 0 1
    outer loop
      vertex 183.9 -11.3 29
      vertex 180.9 -9.8 29
      vertex 180.9 -11.3 29
    endloop
  endfacet
  facet normal 0 0 -1
    outer loop
      vertex 180.9 -11.3 19
      vertex 183.9 -9.8 19
      vertex 183.9 -11.3 19
    endloop
  endfacet
  facet normal -0 0 -1
    outer loop
      vertex 183.9 -9.8 19
      vertex 180.9 -11.3 19
      vertex 180.9 -9.8 19
    endloop
  endfacet
  facet normal -1 0 0
    outer loop
      vertex 180.9 -11.3 19
      vertex 180.9 -9.8 29
      vertex 180.9 -9.8 19
    endloop
  endfacet
  facet normal -1 -0 0
    outer loop
      vertex 180.9 -9.8 29
      vertex 180.9 -11.3 19
      vertex 180.9 -11.3 29
    endloop
  endfacet
  facet normal 0 -1 0
    outer loop
      vertex 180.9 -11.3 19
      vertex 183.9 -11.3 29
      vertex 180.9 -11.3 29
    endloop
  endfacet
  facet normal 0 -1 -0
    outer loop
      vertex 183.9 -11.3 29
      vertex 180.9 -11.3 19
      vertex 183.9 -11.3 19
    endloop
  endfacet
  facet normal -0 0 1
    outer loop
      vertex -4.3 54 31.9
      vertex -3.8 44 31.9
      vertex -3.8 54 31.9
    endloop
  endfacet
  facet normal 0 0 1
    outer loop
      vertex -3.8 44 31.9
      vertex -4.3 54 31.9
      vertex -4.3 44 31.9
    endloop
  endfacet
  facet normal -1 0 0
    outer loop
      vertex -4.3 44 29.9
      vertex -4.3 54 31.9
      vertex -4.3 54 29.9
    endloop
  endfacet
  facet normal -1 -0 0
    outer loop
      vertex -4.3 54 31.9
      vertex -4.3 44 29.9
      vertex -4.3 44 31.9
    endloop
  endfacet
  facet normal 0 1 -0
    outer loop
      vertex -3.8 54 29.9
      vertex -4.3 54 31.9
      vertex -3.8 54 31.9
    endloop
  endfacet
  facet normal 0 1 0
    outer loop
      vertex -4.3 54 31.9
      vertex -3.8 54 29.9
      vertex -4.3 54 29.9
    endloop
  endfacet
  facet normal 0 -1 0
    outer loop
      vertex -4.3 44 29.9
      vertex -3.8 44 31.9
      vertex -4.3 44 31.9
    endloop
  endfacet
  facet normal 0 -1 -0
    outer loop
      vertex -3.8 44 31.9
      vertex -4.3 44 29.9
      vertex -3.8 44 29.9
    endloop
  endfacet
  facet normal 1 -0 0
    outer loop
      vertex 308.7 44 31.9
      vertex 308.7 54 29.9
      vertex 308.7 54 31.9
    endloop
  endfacet
  facet normal 1 0 0
    outer loop
      vertex 308.7 54 29.9
      vertex 308.7 44 31.9
      vertex 308.7 44 29.9
    endloop
  endfacet
  facet normal -0 0 1
    outer loop
      vertex 308.4 54 31.9
      vertex 308.7 44 31.9
      vertex 308.7 54 31.9
    endloop
  endfacet
  facet normal 0 0 1
    outer loop
      vertex 308.7 44 31.9
      vertex 308.4 54 31.9
      vertex 308.4 44 31.9
    endloop
  endfacet
  facet normal 0 1 0
    outer loop
      vertex 308.7 54 31.9
      vertex 308.6 54 30
      vertex 308.4 54 31.9
    endloop
  endfacet
  facet normal 0 1 -0
    outer loop
      vertex 308.7 54 29.9
      vertex 308.6 54 30
      vertex 308.7 54 31.9
    endloop
  endfacet
  facet normal 0 1 0
    outer loop
      vertex 308.6 54 30
      vertex 308.7 54 29.9
      vertex 308.6 54 29.9
    endloop
  endfacet
  facet normal 0 1 0
    outer loop
      vertex 308.4 54 31.9
      vertex 308.6 54 30
      vertex 308.4 54 30
    endloop
  endfacet
  facet normal 0 -1 0
    outer loop
      vertex 308.6 44 30
      vertex 308.4 44 31.9
      vertex 308.4 44 30
    endloop
  endfacet
  facet normal 0 -1 0
    outer loop
      vertex 308.4 44 31.9
      vertex 308.6 44 30
      vertex 308.7 44 31.9
    endloop
  endfacet
  facet normal 0 -1 0
    outer loop
      vertex 308.7 44 29.9
      vertex 308.6 44 30
      vertex 308.6 44 29.9
    endloop
  endfacet
  facet normal 0 -1 0
    outer loop
      vertex 308.6 44 30
      vertex 308.7 44 29.9
      vertex 308.7 44 31.9
    endloop
  endfacet
  facet normal -0 0 1
    outer loop
      vertex -3.9 -0.4 30
      vertex -3.8 -3.9 30
      vertex -3.8 -0.4 30
    endloop
  endfacet
  facet normal 0 0 1
    outer loop
      vertex -3.8 -3.9 30
      vertex -3.9 -0.4 30
      vertex -3.9 -3.9 30
    endloop
  endfacet
  facet normal -0 0 1
    outer loop
      vertex -0.799999 16 30
      vertex -0.599999 -0.4 30
      vertex -0.599999 91 30
    endloop
  endfacet
  facet normal 0 0 1
    outer loop
      vertex -3.8 -0.4 30
      vertex -0.599999 -0.4 30
      vertex -0.799999 16 30
    endloop
  endfacet
  facet normal 0 0 1
    outer loop
      vertex -0.799999 16 30
      vertex -0.599999 91 30
      vertex -0.799999 86 30
    endloop
  endfacet
  facet normal -0 0 1
    outer loop
      vertex -3.8 91 30
      vertex -0.799999 86 30
      vertex -0.599999 91 30
    endloop
  endfacet
  facet normal 0 0 1
    outer loop
      vertex -0.799999 86 30
      vertex -3.8 91 30
      vertex -3.8 86 30
    endloop
  endfacet
  facet normal -0 0 1
    outer loop
      vertex -0.599999 -0.4 30
      vertex 2.4 -0.599999 30
      vertex 2.4 -0.4 30
    endloop
  endfacet
  facet normal 0 0 1
    outer loop
      vertex -0.599999 -3.9 30
      vertex 2.4 -0.599999 30
      vertex -0.599999 -0.4 30
    endloop
  endfacet
  facet normal 0 0 1
    outer loop
      vertex 2.4 -0.599999 30
      vertex -0.599999 -3.9 30
      vertex 2.4 -3.8 30
    endloop
  endfacet
  facet normal 0 0 1
    outer loop
      vertex 2.4 -3.8 30
      vertex -0.599999 -3.9 30
      vertex 2.4 -3.9 30
    endloop
  endfacet
  facet normal 0 0 1
    outer loop
      vertex 301.8 -0.599999 30
      vertex 187.4 -3.8 30
      vertex 301.8 -3.8 30
    endloop
  endfacet
  facet normal 0 0 1
    outer loop
      vertex 187.4 -3.8 30
      vertex 117.4 -3.8 30
      vertex 187.4 -9.8 30
    endloop
  endfacet
  facet normal 0 0 1
    outer loop
      vertex 301.8 -0.599999 30
      vertex 117.4 -3.8 30
      vertex 187.4 -3.8 30
    endloop
  endfacet
  facet normal -0 0 1
    outer loop
      vertex 2.4 -0.599999 30
      vertex 117.4 -3.8 30
      vertex 301.8 -0.599999 30
    endloop
  endfacet
  facet normal 0 0 1
    outer loop
      vertex 117.4 -3.8 30
      vertex 2.4 -0.599999 30
      vertex 2.4 -3.8 30
    endloop
  endfacet
  facet normal 0 0 1
    outer loop
      vertex 301.8 -0.599999 30
      vertex 305.4 -0.4 30
      vertex 301.8 -0.4 30
    endloop
  endfacet
  facet normal 0 0 1
    outer loop
      vertex 305.4 -0.4 30
      vertex 301.8 -0.599999 30
      vertex 305.4 -3.9 30
    endloop
  endfacet
  facet normal -0 0 1
    outer loop
      vertex 301.8 -3.8 30
      vertex 305.4 -3.9 30
      vertex 301.8 -0.599999 30
    endloop
  endfacet
  facet normal 0 0 1
    outer loop
      vertex 305.4 -3.9 30
      vertex 301.8 -3.8 30
      vertex 301.8 -3.9 30
    endloop
  endfacet
  facet normal -0 0 1
    outer loop
      vertex 308.4 16 30
      vertex 308.6 -0.4 30
      vertex 308.6 44 30
    endloop
  endfacet
  facet normal 0 0 1
    outer loop
      vertex 305.4 -0.4 30
      vertex 308.6 -0.4 30
      vertex 308.4 16 30
    endloop
  endfacet
  facet normal 0 0 1
    outer loop
      vertex 308.4 16 30
      vertex 308.6 44 30
      vertex 308.4 44 30
    endloop
  endfacet
  facet normal 0 0 1
    outer loop
      vertex 308.6 -0.4 30
      vertex 305.4 -0.4 30
      vertex 308.6 -3.9 30
    endloop
  endfacet
  facet normal 0 0 1
    outer loop
      vertex 305.4 -0.4 30
      vertex 308.4 16 30
      vertex 305.4 16 30
    endloop
  endfacet
  facet normal 0 0 1
    outer loop
      vertex 305.4 -3.9 30
      vertex 308.6 -3.9 30
      vertex 305.4 -0.4 30
    endloop
  endfacet
  facet normal 0 0 1
    outer loop
      vertex 308.6 -3.9 30
      vertex 305.4 -3.9 30
      vertex 308.6 -4 30
    endloop
  endfacet
  facet normal 0 0 1
    outer loop
      vertex 308.6 -4 30
      vertex 305.4 -3.9 30
      vertex 305.4 -4 30
    endloop
  endfacet
  facet normal -0 0 1
    outer loop
      vertex 308.6 -0.4 30
      vertex 308.7 -3.9 30
      vertex 308.7 -0.4 30
    endloop
  endfacet
  facet normal 0 0 1
    outer loop
      vertex 308.7 -3.9 30
      vertex 308.6 -0.4 30
      vertex 308.6 -3.9 30
    endloop
  endfacet
  facet normal 0 0 1
    outer loop
      vertex 187.4 -9.8 30
      vertex 117.4 -3.8 30
      vertex 117.4 -9.8 30
    endloop
  endfacet
  facet normal 0 0 1
    outer loop
      vertex -0.599999 -0.4 30
      vertex -3.8 -0.4 30
      vertex -0.599999 -3.9 30
    endloop
  endfacet
  facet normal 0 0 1
    outer loop
      vertex -3.8 -0.4 30
      vertex -0.799999 16 30
      vertex -3.8 16 30
    endloop
  endfacet
  facet normal 0 0 1
    outer loop
      vertex -3.8 -3.9 30
      vertex -0.599999 -3.9 30
      vertex -3.8 -0.4 30
    endloop
  endfacet
  facet normal 0 0 1
    outer loop
      vertex -0.599999 -3.9 30
      vertex -3.8 -3.9 30
      vertex -0.599999 -4 30
    endloop
  endfacet
  facet normal 0 0 1
    outer loop
      vertex -0.599999 -4 30
      vertex -3.8 -3.9 30
      vertex -3.8 -4 30
    endloop
  endfacet
  facet normal 0 0 1
    outer loop
      vertex 308.6 91 30
      vertex 308.4 86 30
      vertex 308.6 54 30
    endloop
  endfacet
  facet normal -0 0 1
    outer loop
      vertex 305.4 91 30
      vertex 308.4 86 30
      vertex 308.6 91 30
    endloop
  endfacet
  facet normal 0 0 1
    outer loop
      vertex 308.4 86 30
      vertex 305.4 91 30
      vertex 305.4 86 30
    endloop
  endfacet
  facet normal 0 0 1
    outer loop
      vertex 308.6 54 30
      vertex 308.4 86 30
      vertex 308.4 54 30
    endloop
  endfacet
  facet normal 0 1 -0
    outer loop
      vertex 301.8 -0.599999 18
      vertex 2.4 -0.599999 30
      vertex 301.8 -0.599999 30
    endloop
  endfacet
  facet normal 0 1 0
    outer loop
      vertex 2.4 -0.599999 30
      vertex 301.8 -0.599999 18
      vertex 2.4 -0.599999 18
    endloop
  endfacet
  facet normal 0 -1 0
    outer loop
      vertex 2.4 -3.8 18
      vertex 117.4 -3.8 30
      vertex 2.4 -3.8 30
    endloop
  endfacet
  facet normal 0 -1 -0
    outer loop
      vertex 117.4 -3.8 30
      vertex 2.4 -3.8 18
      vertex 117.4 -3.8 18
    endloop
  endfacet
  facet normal 0 -1 0
    outer loop
      vertex 187.4 -3.8 18
      vertex 301.8 -3.8 30
      vertex 187.4 -3.8 30
    endloop
  endfacet
  facet normal 0 -1 -0
    outer loop
      vertex 301.8 -3.8 30
      vertex 187.4 -3.8 18
      vertex 301.8 -3.8 18
    endloop
  endfacet
  facet normal 1 -0 0
    outer loop
      vertex -0.599999 -0.4 30
      vertex -0.599999 91 18
      vertex -0.599999 91 30
    endloop
  endfacet
  facet normal 1 0 0
    outer loop
      vertex -0.599999 91 18
      vertex -0.599999 -0.4 30
      vertex -0.599999 -0.4 18
    endloop
  endfacet
  facet normal 1 -0 0
    outer loop
      vertex -0.599999 -4 30
      vertex -0.599999 -3.9 18
      vertex -0.599999 -3.9 30
    endloop
  endfacet
  facet normal 1 0 0
    outer loop
      vertex -0.599999 -3.9 18
      vertex -0.599999 -4 30
      vertex -0.599999 -4 18
    endloop
  endfacet
  facet normal 0 1 -0
    outer loop
      vertex -0.599999 91 18
      vertex -3.8 91 30
      vertex -0.599999 91 30
    endloop
  endfacet
  facet normal 0 1 0
    outer loop
      vertex -3.8 91 30
      vertex -0.599999 91 18
      vertex -3.8 91 18
    endloop
  endfacet
  facet normal 0 -1 0
    outer loop
      vertex -3.8 -4 18
      vertex -0.599999 -4 30
      vertex -3.8 -4 30
    endloop
  endfacet
  facet normal 0 -1 -0
    outer loop
      vertex -0.599999 -4 30
      vertex -3.8 -4 18
      vertex -0.599999 -4 18
    endloop
  endfacet
  facet normal 1 0 0
    outer loop
      vertex 308.6 44 30
      vertex 308.6 -0.4 30
      vertex 308.6 44 29.9
    endloop
  endfacet
  facet normal 1 0 0
    outer loop
      vertex 308.6 54 29.9
      vertex 308.6 91 30
      vertex 308.6 54 30
    endloop
  endfacet
  facet normal 1 0 0
    outer loop
      vertex 308.6 91 30
      vertex 308.6 54 29.9
      vertex 308.6 91 18
    endloop
  endfacet
  facet normal 1 -0 0
    outer loop
      vertex 308.6 44 29.9
      vertex 308.6 91 18
      vertex 308.6 54 29.9
    endloop
  endfacet
  facet normal 1 0 0
    outer loop
      vertex 308.6 -0.4 18
      vertex 308.6 44 29.9
      vertex 308.6 -0.4 30
    endloop
  endfacet
  facet normal 1 0 0
    outer loop
      vertex 308.6 44 29.9
      vertex 308.6 -0.4 18
      vertex 308.6 91 18
    endloop
  endfacet
  facet normal 1 -0 0
    outer loop
      vertex 308.6 -4 30
      vertex 308.6 -3.9 18
      vertex 308.6 -3.9 30
    endloop
  endfacet
  facet normal 1 0 0
    outer loop
      vertex 308.6 -3.9 18
      vertex 308.6 -4 30
      vertex 308.6 -4 18
    endloop
  endfacet
  facet normal 0 1 -0
    outer loop
      vertex 308.6 91 18
      vertex 305.4 91 30
      vertex 308.6 91 30
    endloop
  endfacet
  facet normal 0 1 0
    outer loop
      vertex 305.4 91 30
      vertex 308.6 91 18
      vertex 305.4 91 18
    endloop
  endfacet
  facet normal 0 -1 0
    outer loop
      vertex 305.4 -4 18
      vertex 308.6 -4 30
      vertex 305.4 -4 30
    endloop
  endfacet
  facet normal 0 -1 -0
    outer loop
      vertex 308.6 -4 30
      vertex 305.4 -4 18
      vertex 308.6 -4 18
    endloop
  endfacet
  facet normal 1 -0 0
    outer loop
      vertex 2.4 -0.599999 30
      vertex 2.4 -0.4 18
      vertex 2.4 -0.4 30
    endloop
  endfacet
  facet normal 1 0 0
    outer loop
      vertex 2.4 -0.4 18
      vertex 2.4 -0.599999 30
      vertex 2.4 -0.599999 18
    endloop
  endfacet
  facet normal 1 -0 0
    outer loop
      vertex 2.4 -3.9 30
      vertex 2.4 -3.8 18
      vertex 2.4 -3.8 30
    endloop
  endfacet
  facet normal 1 0 0
    outer loop
      vertex 2.4 -3.8 18
      vertex 2.4 -3.9 30
      vertex 2.4 -3.9 18
    endloop
  endfacet
  facet normal -1 0 0
    outer loop
      vertex -3.9 -3.9 18
      vertex -3.9 -0.4 30
      vertex -3.9 -0.4 18
    endloop
  endfacet
  facet normal -1 -0 0
    outer loop
      vertex -3.9 -0.4 30
      vertex -3.9 -3.9 18
      vertex -3.9 -3.9 30
    endloop
  endfacet
  facet normal 0 1 -0
    outer loop
      vertex -3.8 -0.4 18
      vertex -3.9 -0.4 30
      vertex -3.8 -0.4 30
    endloop
  endfacet
  facet normal 0 1 0
    outer loop
      vertex -3.9 -0.4 30
      vertex -3.8 -0.4 18
      vertex -3.9 -0.4 18
    endloop
  endfacet
  facet normal 0 1 -0
    outer loop
      vertex 2.4 -0.4 18
      vertex -0.599999 -0.4 30
      vertex 2.4 -0.4 30
    endloop
  endfacet
  facet normal 0 1 0
    outer loop
      vertex -0.599999 -0.4 30
      vertex 2.4 -0.4 18
      vertex -0.599999 -0.4 18
    endloop
  endfacet
  facet normal 0 -1 0
    outer loop
      vertex -3.9 -3.9 18
      vertex -3.8 -3.9 30
      vertex -3.9 -3.9 30
    endloop
  endfacet
  facet normal 0 -1 -0
    outer loop
      vertex -3.8 -3.9 30
      vertex -3.9 -3.9 18
      vertex -3.8 -3.9 18
    endloop
  endfacet
  facet normal 0 -1 0
    outer loop
      vertex -0.599999 -3.9 18
      vertex 2.4 -3.9 30
      vertex -0.599999 -3.9 30
    endloop
  endfacet
  facet normal 0 -1 -0
    outer loop
      vertex 2.4 -3.9 30
      vertex -0.599999 -3.9 18
      vertex 2.4 -3.9 18
    endloop
  endfacet
  facet normal 1 -0 0
    outer loop
      vertex 308.7 -3.9 30
      vertex 308.7 -0.4 18
      vertex 308.7 -0.4 30
    endloop
  endfacet
  facet normal 1 0 0
    outer loop
      vertex 308.7 -0.4 18
      vertex 308.7 -3.9 30
      vertex 308.7 -3.9 18
    endloop
  endfacet
  facet normal -1 0 0
    outer loop
      vertex 301.8 -0.599999 18
      vertex 301.8 -0.4 30
      vertex 301.8 -0.4 18
    endloop
  endfacet
  facet normal -1 -0 0
    outer loop
      vertex 301.8 -0.4 30
      vertex 301.8 -0.599999 18
      vertex 301.8 -0.599999 30
    endloop
  endfacet
  facet normal -1 0 0
    outer loop
      vertex 301.8 -3.9 18
      vertex 301.8 -3.8 30
      vertex 301.8 -3.8 18
    endloop
  endfacet
  facet normal -1 -0 0
    outer loop
      vertex 301.8 -3.8 30
      vertex 301.8 -3.9 18
      vertex 301.8 -3.9 30
    endloop
  endfacet
  facet normal 0 1 -0
    outer loop
      vertex 305.4 -0.4 18
      vertex 301.8 -0.4 30
      vertex 305.4 -0.4 30
    endloop
  endfacet
  facet normal 0 1 0
    outer loop
      vertex 301.8 -0.4 30
      vertex 305.4 -0.4 18
      vertex 301.8 -0.4 18
    endloop
  endfacet
  facet normal 0 1 -0
    outer loop
      vertex 308.7 -0.4 18
      vertex 308.6 -0.4 30
      vertex 308.7 -0.4 30
    endloop
  endfacet
  facet normal 0 1 0
    outer loop
      vertex 308.6 -0.4 30
      vertex 308.7 -0.4 18
      vertex 308.6 -0.4 18
    endloop
  endfacet
  facet normal 0 -1 0
    outer loop
      vertex 301.8 -3.9 18
      vertex 305.4 -3.9 30
      vertex 301.8 -3.9 30
    endloop
  endfacet
  facet normal 0 -1 -0
    outer loop
      vertex 305.4 -3.9 30
      vertex 301.8 -3.9 18
      vertex 305.4 -3.9 18
    endloop
  endfacet
  facet normal 0 -1 0
    outer loop
      vertex 308.6 -3.9 18
      vertex 308.7 -3.9 30
      vertex 308.6 -3.9 30
    endloop
  endfacet
  facet normal 0 -1 -0
    outer loop
      vertex 308.7 -3.9 30
      vertex 308.6 -3.9 18
      vertex 308.7 -3.9 18
    endloop
  endfacet
  facet normal 1 -0 0
    outer loop
      vertex 187.4 -9.8 30
      vertex 187.4 -3.8 18
      vertex 187.4 -3.8 30
    endloop
  endfacet
  facet normal 1 0 0
    outer loop
      vertex 187.4 -3.8 18
      vertex 187.4 -9.8 30
      vertex 187.4 -9.8 18
    endloop
  endfacet
  facet normal -1 0 0
    outer loop
      vertex 117.4 -9.8 18
      vertex 117.4 -3.8 30
      vertex 117.4 -3.8 18
    endloop
  endfacet
  facet normal -1 -0 0
    outer loop
      vertex 117.4 -3.8 30
      vertex 117.4 -9.8 18
      vertex 117.4 -9.8 30
    endloop
  endfacet
  facet normal 0 -1 0
    outer loop
      vertex 168.9 -9.8 19
      vertex 180.9 -9.8 29
      vertex 168.9 -9.8 29
    endloop
  endfacet
  facet normal 0 -1 -0
    outer loop
      vertex 180.9 -9.8 29
      vertex 168.9 -9.8 19
      vertex 180.9 -9.8 19
    endloop
  endfacet
  facet normal 0 -1 0
    outer loop
      vertex 153.9 -9.8 19
      vertex 165.9 -9.8 29
      vertex 153.9 -9.8 29
    endloop
  endfacet
  facet normal 0 -1 -0
    outer loop
      vertex 165.9 -9.8 29
      vertex 153.9 -9.8 19
      vertex 165.9 -9.8 19
    endloop
  endfacet
  facet normal 0 -1 0
    outer loop
      vertex 138.9 -9.8 19
      vertex 150.9 -9.8 29
      vertex 138.9 -9.8 29
    endloop
  endfacet
  facet normal 0 -1 -0
    outer loop
      vertex 150.9 -9.8 29
      vertex 138.9 -9.8 19
      vertex 150.9 -9.8 19
    endloop
  endfacet
  facet normal 0 -1 0
    outer loop
      vertex 123.9 -9.8 19
      vertex 135.9 -9.8 29
      vertex 123.9 -9.8 29
    endloop
  endfacet
  facet normal 0 -1 -0
    outer loop
      vertex 135.9 -9.8 29
      vertex 123.9 -9.8 19
      vertex 135.9 -9.8 19
    endloop
  endfacet
  facet normal 0 -1 0
    outer loop
      vertex 123.9 -9.8 29
      vertex 117.4 -9.8 30
      vertex 120.9 -9.8 29
    endloop
  endfacet
  facet normal 0 -1 0
    outer loop
      vertex 117.4 -9.8 30
      vertex 120.9 -9.8 19
      vertex 120.9 -9.8 29
    endloop
  endfacet
  facet normal 0 -1 0
    outer loop
      vertex 117.4 -9.8 18
      vertex 123.9 -9.8 19
      vertex 120.9 -9.8 19
    endloop
  endfacet
  facet normal 0 -1 -0
    outer loop
      vertex 123.9 -9.8 19
      vertex 117.4 -9.8 18
      vertex 135.9 -9.8 19
    endloop
  endfacet
  facet normal 0 -1 -0
    outer loop
      vertex 135.9 -9.8 19
      vertex 117.4 -9.8 18
      vertex 138.9 -9.8 19
    endloop
  endfacet
  facet normal 0 -1 -0
    outer loop
      vertex 138.9 -9.8 19
      vertex 117.4 -9.8 18
      vertex 150.9 -9.8 19
    endloop
  endfacet
  facet normal 0 -1 -0
    outer loop
      vertex 150.9 -9.8 19
      vertex 117.4 -9.8 18
      vertex 153.9 -9.8 19
    endloop
  endfacet
  facet normal 0 -1 0
    outer loop
      vertex 187.4 -9.8 18
      vertex 153.9 -9.8 19
      vertex 117.4 -9.8 18
    endloop
  endfacet
  facet normal 0 -1 0
    outer loop
      vertex 153.9 -9.8 19
      vertex 187.4 -9.8 18
      vertex 165.9 -9.8 19
    endloop
  endfacet
  facet normal 0 -1 0
    outer loop
      vertex 165.9 -9.8 19
      vertex 187.4 -9.8 18
      vertex 168.9 -9.8 19
    endloop
  endfacet
  facet normal 0 -1 0
    outer loop
      vertex 168.9 -9.8 19
      vertex 187.4 -9.8 18
      vertex 180.9 -9.8 19
    endloop
  endfacet
  facet normal 0 -1 0
    outer loop
      vertex 117.4 -9.8 18
      vertex 120.9 -9.8 19
      vertex 117.4 -9.8 30
    endloop
  endfacet
  facet normal 0 -1 0
    outer loop
      vertex 135.9 -9.8 29
      vertex 117.4 -9.8 30
      vertex 123.9 -9.8 29
    endloop
  endfacet
  facet normal 0 -1 0
    outer loop
      vertex 138.9 -9.8 29
      vertex 117.4 -9.8 30
      vertex 135.9 -9.8 29
    endloop
  endfacet
  facet normal 0 -1 0
    outer loop
      vertex 150.9 -9.8 29
      vertex 117.4 -9.8 30
      vertex 138.9 -9.8 29
    endloop
  endfacet
  facet normal 0 -1 0
    outer loop
      vertex 117.4 -9.8 30
      vertex 150.9 -9.8 29
      vertex 187.4 -9.8 30
    endloop
  endfacet
  facet normal 0 -1 0
    outer loop
      vertex 153.9 -9.8 29
      vertex 187.4 -9.8 30
      vertex 150.9 -9.8 29
    endloop
  endfacet
  facet normal 0 -1 0
    outer loop
      vertex 165.9 -9.8 29
      vertex 187.4 -9.8 30
      vertex 153.9 -9.8 29
    endloop
  endfacet
  facet normal 0 -1 0
    outer loop
      vertex 168.9 -9.8 29
      vertex 187.4 -9.8 30
      vertex 165.9 -9.8 29
    endloop
  endfacet
  facet normal 0 -1 0
    outer loop
      vertex 180.9 -9.8 29
      vertex 187.4 -9.8 30
      vertex 168.9 -9.8 29
    endloop
  endfacet
  facet normal 0 -1 0
    outer loop
      vertex 183.9 -9.8 29
      vertex 187.4 -9.8 30
      vertex 180.9 -9.8 29
    endloop
  endfacet
  facet normal 0 -1 0
    outer loop
      vertex 183.9 -9.8 19
      vertex 187.4 -9.8 30
      vertex 183.9 -9.8 29
    endloop
  endfacet
  facet normal 0 -1 0
    outer loop
      vertex 183.9 -9.8 19
      vertex 187.4 -9.8 18
      vertex 187.4 -9.8 30
    endloop
  endfacet
  facet normal 0 -1 0
    outer loop
      vertex 180.9 -9.8 19
      vertex 187.4 -9.8 18
      vertex 183.9 -9.8 19
    endloop
  endfacet
endsolid OpenSCAD_Model
