solid OpenSCAD_Model
  facet normal 0 -0.0490678 0.998795
    outer loop
      vertex -82.5 -10.1806 1.65008
      vertex 58.5 -11.2 1.6
      vertex 58.5 -10.1806 1.65008
    endloop
  endfacet
  facet normal 0 -0.0490678 0.998795
    outer loop
      vertex 58.5 -11.2 1.6
      vertex -82.5 -10.1806 1.65008
      vertex -82.5 -11.2 1.6
    endloop
  endfacet
  facet normal 0 -0.74095 0.67156
    outer loop
      vertex -82.5 -3.84609 4.64609
      vertex 58.5 -3.16069 5.40231
      vertex -82.5 -3.16069 5.40231
    endloop
  endfacet
  facet normal 0 -0.74095 0.67156
    outer loop
      vertex 58.5 -3.16069 5.40231
      vertex -82.5 -3.84609 4.64609
      vertex 58.5 -3.84609 4.64609
    endloop
  endfacet
  facet normal 0 -0.67156 0.74095
    outer loop
      vertex -82.5 -3.84609 4.64609
      vertex 58.5 -4.60231 3.96069
      vertex 58.5 -3.84609 4.64609
    endloop
  endfacet
  facet normal 0 -0.67156 0.74095
    outer loop
      vertex 58.5 -4.60231 3.96069
      vertex -82.5 -3.84609 4.64609
      vertex -82.5 -4.60231 3.96069
    endloop
  endfacet
  facet normal 0 -0.514107 0.857726
    outer loop
      vertex -82.5 -5.42207 3.35272
      vertex 58.5 -6.29747 2.82802
      vertex 58.5 -5.42207 3.35272
    endloop
  endfacet
  facet normal 0 -0.514107 0.857726
    outer loop
      vertex 58.5 -6.29747 2.82802
      vertex -82.5 -5.42207 3.35272
      vertex -82.5 -6.29747 2.82802
    endloop
  endfacet
  facet normal 0 0.998794 0.0490873
    outer loop
      vertex 58.5 -21.5499 10.9806
      vertex -82.5 -21.6 12
      vertex 58.5 -21.6 12
    endloop
  endfacet
  facet normal 0 0.998794 0.0490873
    outer loop
      vertex -82.5 -21.6 12
      vertex 58.5 -21.5499 10.9806
      vertex -82.5 -21.5499 10.9806
    endloop
  endfacet
  facet normal -0 0.146735 0.989176
    outer loop
      vertex -82.5 -12.2194 1.65008
      vertex 58.5 -13.2289 1.79983
      vertex 58.5 -12.2194 1.65008
    endloop
  endfacet
  facet normal 0 0.146735 0.989176
    outer loop
      vertex 58.5 -13.2289 1.79983
      vertex -82.5 -12.2194 1.65008
      vertex -82.5 -13.2289 1.79983
    endloop
  endfacet
  facet normal 0 -0.427558 0.903988
    outer loop
      vertex -82.5 -6.29747 2.82802
      vertex 58.5 -7.22009 2.39165
      vertex 58.5 -6.29747 2.82802
    endloop
  endfacet
  facet normal 0 -0.427558 0.903988
    outer loop
      vertex 58.5 -7.22009 2.39165
      vertex -82.5 -6.29747 2.82802
      vertex -82.5 -7.22009 2.39165
    endloop
  endfacet
  facet normal 0 -0.941545 0.336887
    outer loop
      vertex -82.5 -1.59165 8.02009
      vertex 58.5 -1.24782 8.98104
      vertex -82.5 -1.24782 8.98104
    endloop
  endfacet
  facet normal 0 -0.941545 0.336887
    outer loop
      vertex 58.5 -1.24782 8.98104
      vertex -82.5 -1.59165 8.02009
      vertex 58.5 -1.59165 8.02009
    endloop
  endfacet
  facet normal 0 -0.146729 0.989177
    outer loop
      vertex -82.5 -9.17106 1.79983
      vertex 58.5 -10.1806 1.65008
      vertex 58.5 -9.17106 1.79983
    endloop
  endfacet
  facet normal 0 -0.146729 0.989177
    outer loop
      vertex 58.5 -10.1806 1.65008
      vertex -82.5 -9.17106 1.79983
      vertex -82.5 -10.1806 1.65008
    endloop
  endfacet
  facet normal 0 -0.970033 0.242972
    outer loop
      vertex -82.5 -1.13262 9.44096
      vertex -82.5 -1.24782 8.98104
      vertex -58.5 -1.13262 9.44096
    endloop
  endfacet
  facet normal 0 -0.97003 0.242987
    outer loop
      vertex -58.5 -1.13262 9.44096
      vertex 58.5 -0.999833 9.97106
      vertex -58.5 -0.999833 9.97106
    endloop
  endfacet
  facet normal 0 -0.970033 0.242972
    outer loop
      vertex 58.5 -1.24782 8.98104
      vertex -58.5 -1.13262 9.44096
      vertex -82.5 -1.24782 8.98104
    endloop
  endfacet
  facet normal 3.2468e-08 -0.970031 0.24298
    outer loop
      vertex -58.5 -1.13262 9.44096
      vertex 58.5 -1.24782 8.98104
      vertex 58.5 -0.999833 9.97106
    endloop
  endfacet
  facet normal 0 -0.80321 0.595696
    outer loop
      vertex -82.5 -3.16069 5.40231
      vertex 58.5 -2.55272 6.22207
      vertex -82.5 -2.55272 6.22207
    endloop
  endfacet
  facet normal 0 -0.80321 0.595696
    outer loop
      vertex 58.5 -2.55272 6.22207
      vertex -82.5 -3.16069 5.40231
      vertex 58.5 -3.16069 5.40231
    endloop
  endfacet
  facet normal 0 -0.857726 0.514107
    outer loop
      vertex -82.5 -2.55272 6.22207
      vertex 58.5 -2.02802 7.09747
      vertex -82.5 -2.02802 7.09747
    endloop
  endfacet
  facet normal 0 -0.857726 0.514107
    outer loop
      vertex 58.5 -2.02802 7.09747
      vertex -82.5 -2.55272 6.22207
      vertex 58.5 -2.55272 6.22207
    endloop
  endfacet
  facet normal -0 0.336902 0.94154
    outer loop
      vertex -82.5 -14.219 2.04782
      vertex 58.5 -15.1799 2.39165
      vertex 58.5 -14.219 2.04782
    endloop
  endfacet
  facet normal 0 0.336902 0.94154
    outer loop
      vertex 58.5 -15.1799 2.39165
      vertex -82.5 -14.219 2.04782
      vertex -82.5 -15.1799 2.39165
    endloop
  endfacet
  facet normal 0 -0.336887 0.941545
    outer loop
      vertex -82.5 -7.22009 2.39165
      vertex 58.5 -8.18104 2.04782
      vertex 58.5 -7.22009 2.39165
    endloop
  endfacet
  facet normal 0 -0.336887 0.941545
    outer loop
      vertex 58.5 -8.18104 2.04782
      vertex -82.5 -7.22009 2.39165
      vertex -82.5 -8.18104 2.04782
    endloop
  endfacet
  facet normal 0 -0.998795 0.0490678
    outer loop
      vertex -58.5 -0.85008 10.9806
      vertex 58.5 -0.8 12
      vertex -58.5 -0.8 12
    endloop
  endfacet
  facet normal 0 -0.998795 0.0490678
    outer loop
      vertex 58.5 -0.8 12
      vertex -58.5 -0.85008 10.9806
      vertex 58.5 -0.85008 10.9806
    endloop
  endfacet
  facet normal -0 0.242964 0.970035
    outer loop
      vertex -82.5 -13.2289 1.79983
      vertex 58.5 -14.219 2.04782
      vertex 58.5 -13.2289 1.79983
    endloop
  endfacet
  facet normal 0 0.242964 0.970035
    outer loop
      vertex 58.5 -14.219 2.04782
      vertex -82.5 -13.2289 1.79983
      vertex -82.5 -14.219 2.04782
    endloop
  endfacet
  facet normal 0 -0.989176 0.146732
    outer loop
      vertex -58.5 -0.999833 9.97106
      vertex 58.5 -0.85008 10.9806
      vertex -58.5 -0.85008 10.9806
    endloop
  endfacet
  facet normal 0 -0.989176 0.146732
    outer loop
      vertex 58.5 -0.85008 10.9806
      vertex -58.5 -0.999833 9.97106
      vertex 58.5 -0.999833 9.97106
    endloop
  endfacet
  facet normal 0 0.904015 0.427502
    outer loop
      vertex 58.5 -20.372 7.09747
      vertex -82.5 -20.8083 8.02009
      vertex 58.5 -20.8083 8.02009
    endloop
  endfacet
  facet normal 0 0.904015 0.427502
    outer loop
      vertex -82.5 -20.8083 8.02009
      vertex 58.5 -20.372 7.09747
      vertex -82.5 -20.372 7.09747
    endloop
  endfacet
  facet normal 0 0.857726 0.514107
    outer loop
      vertex 58.5 -19.8473 6.22207
      vertex -82.5 -20.372 7.09747
      vertex 58.5 -20.372 7.09747
    endloop
  endfacet
  facet normal 0 0.857726 0.514107
    outer loop
      vertex -82.5 -20.372 7.09747
      vertex 58.5 -19.8473 6.22207
      vertex -82.5 -19.8473 6.22207
    endloop
  endfacet
  facet normal 0 -0.903988 0.427558
    outer loop
      vertex -82.5 -2.02802 7.09747
      vertex 58.5 -1.59165 8.02009
      vertex -82.5 -1.59165 8.02009
    endloop
  endfacet
  facet normal 0 -0.903988 0.427558
    outer loop
      vertex 58.5 -1.59165 8.02009
      vertex -82.5 -2.02802 7.09747
      vertex 58.5 -2.02802 7.09747
    endloop
  endfacet
  facet normal 1 0 0
    outer loop
      vertex -82.5 -21.6 12
      vertex -82.5 -1.4 12
      vertex -82.5 -1.4 22.4
    endloop
  endfacet
  facet normal 1 0 -0
    outer loop
      vertex -82.5 -19.8473 6.22207
      vertex -82.5 -1.4 12
      vertex -82.5 -21.6 12
    endloop
  endfacet
  facet normal 1 0 0
    outer loop
      vertex -82.5 -1.4 12
      vertex -82.5 -2.02802 7.09747
      vertex -82.5 -1.59165 8.02009
    endloop
  endfacet
  facet normal 1 0 0
    outer loop
      vertex -82.5 -1.4 12
      vertex -82.5 -2.55272 6.22207
      vertex -82.5 -2.02802 7.09747
    endloop
  endfacet
  facet normal 1 0 0
    outer loop
      vertex -82.5 -1.4 12
      vertex -82.5 -3.16069 5.40231
      vertex -82.5 -2.55272 6.22207
    endloop
  endfacet
  facet normal 1 0 0
    outer loop
      vertex -82.5 -1.4 12
      vertex -82.5 -3.84609 4.64609
      vertex -82.5 -3.16069 5.40231
    endloop
  endfacet
  facet normal 1 0 0
    outer loop
      vertex -82.5 -1.4 12
      vertex -82.5 -4.60231 3.96069
      vertex -82.5 -3.84609 4.64609
    endloop
  endfacet
  facet normal 1 0 0
    outer loop
      vertex -82.5 -1.4 12
      vertex -82.5 -5.42207 3.35272
      vertex -82.5 -4.60231 3.96069
    endloop
  endfacet
  facet normal 1 0 0
    outer loop
      vertex -82.5 -1.4 12
      vertex -82.5 -6.29747 2.82802
      vertex -82.5 -5.42207 3.35272
    endloop
  endfacet
  facet normal 1 0 0
    outer loop
      vertex -82.5 -1.4 12
      vertex -82.5 -7.22009 2.39165
      vertex -82.5 -6.29747 2.82802
    endloop
  endfacet
  facet normal 1 0 0
    outer loop
      vertex -82.5 -1.4 12
      vertex -82.5 -8.18104 2.04782
      vertex -82.5 -7.22009 2.39165
    endloop
  endfacet
  facet normal 1 0 0
    outer loop
      vertex -82.5 -1.4 12
      vertex -82.5 -9.17106 1.79983
      vertex -82.5 -8.18104 2.04782
    endloop
  endfacet
  facet normal 1 0 0
    outer loop
      vertex -82.5 -1.4 12
      vertex -82.5 -10.1806 1.65008
      vertex -82.5 -9.17106 1.79983
    endloop
  endfacet
  facet normal 1 0 0
    outer loop
      vertex -82.5 -1.4 12
      vertex -82.5 -11.2 1.6
      vertex -82.5 -10.1806 1.65008
    endloop
  endfacet
  facet normal 1 0 0
    outer loop
      vertex -82.5 -1.4 12
      vertex -82.5 -12.2194 1.65008
      vertex -82.5 -11.2 1.6
    endloop
  endfacet
  facet normal 1 0 0
    outer loop
      vertex -82.5 -1.4 12
      vertex -82.5 -13.2289 1.79983
      vertex -82.5 -12.2194 1.65008
    endloop
  endfacet
  facet normal 1 0 0
    outer loop
      vertex -82.5 -1.4 12
      vertex -82.5 -14.219 2.04782
      vertex -82.5 -13.2289 1.79983
    endloop
  endfacet
  facet normal 1 0 0
    outer loop
      vertex -82.5 -1.4 12
      vertex -82.5 -15.1799 2.39165
      vertex -82.5 -14.219 2.04782
    endloop
  endfacet
  facet normal 1 0 0
    outer loop
      vertex -82.5 -1.4 12
      vertex -82.5 -16.1025 2.82802
      vertex -82.5 -15.1799 2.39165
    endloop
  endfacet
  facet normal 1 0 0
    outer loop
      vertex -82.5 -1.4 12
      vertex -82.5 -16.9779 3.35272
      vertex -82.5 -16.1025 2.82802
    endloop
  endfacet
  facet normal 1 0 0
    outer loop
      vertex -82.5 -1.4 12
      vertex -82.5 -17.7977 3.96069
      vertex -82.5 -16.9779 3.35272
    endloop
  endfacet
  facet normal 1 0 0
    outer loop
      vertex -82.5 -1.4 12
      vertex -82.5 -18.5539 4.64609
      vertex -82.5 -17.7977 3.96069
    endloop
  endfacet
  facet normal 1 0 0
    outer loop
      vertex -82.5 -1.4 12
      vertex -82.5 -19.2393 5.40231
      vertex -82.5 -18.5539 4.64609
    endloop
  endfacet
  facet normal 1 0 0
    outer loop
      vertex -82.5 -1.4 12
      vertex -82.5 -19.8473 6.22207
      vertex -82.5 -19.2393 5.40231
    endloop
  endfacet
  facet normal 1 0 0
    outer loop
      vertex -82.5 -19.8473 6.22207
      vertex -82.5 -21.6 12
      vertex -82.5 -20.372 7.09747
    endloop
  endfacet
  facet normal 1 0 0
    outer loop
      vertex -82.5 -20.372 7.09747
      vertex -82.5 -21.6 12
      vertex -82.5 -20.8083 8.02009
    endloop
  endfacet
  facet normal 1 0 0
    outer loop
      vertex -82.5 -20.8083 8.02009
      vertex -82.5 -21.6 12
      vertex -82.5 -21.1522 8.98104
    endloop
  endfacet
  facet normal 1 0 0
    outer loop
      vertex -82.5 -21.1522 8.98104
      vertex -82.5 -21.6 12
      vertex -82.5 -21.4002 9.97106
    endloop
  endfacet
  facet normal 1 0 0
    outer loop
      vertex -82.5 -21.6 12
      vertex -82.5 -1.4 22.4
      vertex -82.5 -21.6 22.4
    endloop
  endfacet
  facet normal 1 0 0
    outer loop
      vertex -82.5 -21.4002 9.97106
      vertex -82.5 -21.6 12
      vertex -82.5 -21.5499 10.9806
    endloop
  endfacet
  facet normal 1 0 0
    outer loop
      vertex -82.5 -1.15789 9.54186
      vertex -82.5 -1.24782 8.98104
      vertex -82.5 -1.13262 9.44096
    endloop
  endfacet
  facet normal 1 0 0
    outer loop
      vertex -82.5 -1.33933 10.765
      vertex -82.5 -1.24782 8.98104
      vertex -82.5 -1.15789 9.54186
    endloop
  endfacet
  facet normal 1 0 0
    outer loop
      vertex -82.5 -1.33933 10.765
      vertex -82.5 -1.59165 8.02009
      vertex -82.5 -1.24782 8.98104
    endloop
  endfacet
  facet normal 1 0 0
    outer loop
      vertex -82.5 -1.59165 8.02009
      vertex -82.5 -1.33933 10.765
      vertex -82.5 -1.4 12
    endloop
  endfacet
  facet normal 0 0.989184 0.146681
    outer loop
      vertex 58.5 -21.4002 9.97106
      vertex -82.5 -21.5499 10.9806
      vertex 58.5 -21.5499 10.9806
    endloop
  endfacet
  facet normal 0 0.989184 0.146681
    outer loop
      vertex -82.5 -21.5499 10.9806
      vertex 58.5 -21.4002 9.97106
      vertex -82.5 -21.4002 9.97106
    endloop
  endfacet
  facet normal -0 0.67157 0.740941
    outer loop
      vertex -82.5 -17.7977 3.96069
      vertex 58.5 -18.5539 4.64609
      vertex 58.5 -17.7977 3.96069
    endloop
  endfacet
  facet normal 0 0.67157 0.740941
    outer loop
      vertex 58.5 -18.5539 4.64609
      vertex -82.5 -17.7977 3.96069
      vertex -82.5 -18.5539 4.64609
    endloop
  endfacet
  facet normal -0 0.595677 0.803224
    outer loop
      vertex -82.5 -16.9779 3.35272
      vertex 58.5 -17.7977 3.96069
      vertex 58.5 -16.9779 3.35272
    endloop
  endfacet
  facet normal 0 0.595677 0.803224
    outer loop
      vertex 58.5 -17.7977 3.96069
      vertex -82.5 -16.9779 3.35272
      vertex -82.5 -17.7977 3.96069
    endloop
  endfacet
  facet normal 0 -0.242983 0.970031
    outer loop
      vertex -82.5 -8.18104 2.04782
      vertex 58.5 -9.17106 1.79983
      vertex 58.5 -8.18104 2.04782
    endloop
  endfacet
  facet normal 0 -0.242983 0.970031
    outer loop
      vertex 58.5 -9.17106 1.79983
      vertex -82.5 -8.18104 2.04782
      vertex -82.5 -9.17106 1.79983
    endloop
  endfacet
  facet normal 0 -0.595696 0.80321
    outer loop
      vertex -82.5 -4.60231 3.96069
      vertex 58.5 -5.42207 3.35272
      vertex 58.5 -4.60231 3.96069
    endloop
  endfacet
  facet normal 0 -0.595696 0.80321
    outer loop
      vertex 58.5 -5.42207 3.35272
      vertex -82.5 -4.60231 3.96069
      vertex -82.5 -5.42207 3.35272
    endloop
  endfacet
  facet normal 0 0.803196 0.595715
    outer loop
      vertex 58.5 -19.2393 5.40231
      vertex -82.5 -19.8473 6.22207
      vertex 58.5 -19.8473 6.22207
    endloop
  endfacet
  facet normal 0 0.803196 0.595715
    outer loop
      vertex -82.5 -19.8473 6.22207
      vertex 58.5 -19.2393 5.40231
      vertex -82.5 -19.2393 5.40231
    endloop
  endfacet
  facet normal -0 0.0490678 0.998795
    outer loop
      vertex -82.5 -11.2 1.6
      vertex 58.5 -12.2194 1.65008
      vertex 58.5 -11.2 1.6
    endloop
  endfacet
  facet normal 0 0.0490678 0.998795
    outer loop
      vertex 58.5 -12.2194 1.65008
      vertex -82.5 -11.2 1.6
      vertex -82.5 -12.2194 1.65008
    endloop
  endfacet
  facet normal 0 0.941523 0.336948
    outer loop
      vertex 58.5 -20.8083 8.02009
      vertex -82.5 -21.1522 8.98104
      vertex 58.5 -21.1522 8.98104
    endloop
  endfacet
  facet normal 0 0.941523 0.336948
    outer loop
      vertex -82.5 -21.1522 8.98104
      vertex 58.5 -20.8083 8.02009
      vertex -82.5 -20.8083 8.02009
    endloop
  endfacet
  facet normal 0 0.970028 0.242992
    outer loop
      vertex 58.5 -21.1522 8.98104
      vertex -82.5 -21.4002 9.97106
      vertex 58.5 -21.4002 9.97106
    endloop
  endfacet
  facet normal 0 0.970028 0.242992
    outer loop
      vertex -82.5 -21.4002 9.97106
      vertex 58.5 -21.1522 8.98104
      vertex -82.5 -21.1522 8.98104
    endloop
  endfacet
  facet normal -0 0.427565 0.903984
    outer loop
      vertex -82.5 -15.1799 2.39165
      vertex 58.5 -16.1025 2.82802
      vertex 58.5 -15.1799 2.39165
    endloop
  endfacet
  facet normal 0 0.427565 0.903984
    outer loop
      vertex 58.5 -16.1025 2.82802
      vertex -82.5 -15.1799 2.39165
      vertex -82.5 -16.1025 2.82802
    endloop
  endfacet
  facet normal -0 0.514107 0.857726
    outer loop
      vertex -82.5 -16.1025 2.82802
      vertex 58.5 -16.9779 3.35272
      vertex 58.5 -16.1025 2.82802
    endloop
  endfacet
  facet normal 0 0.514107 0.857726
    outer loop
      vertex 58.5 -16.9779 3.35272
      vertex -82.5 -16.1025 2.82802
      vertex -82.5 -16.9779 3.35272
    endloop
  endfacet
  facet normal 0 0.74095 0.67156
    outer loop
      vertex 58.5 -18.5539 4.64609
      vertex -82.5 -19.2393 5.40231
      vertex 58.5 -19.2393 5.40231
    endloop
  endfacet
  facet normal 0 0.74095 0.67156
    outer loop
      vertex -82.5 -19.2393 5.40231
      vertex 58.5 -18.5539 4.64609
      vertex -82.5 -18.5539 4.64609
    endloop
  endfacet
  facet normal 0 -1 0
    outer loop
      vertex -58.5 -0.8 12
      vertex 58.5 -0.8 22.4
      vertex -58.5 -0.8 22.4
    endloop
  endfacet
  facet normal 0 -1 -0
    outer loop
      vertex 58.5 -0.8 22.4
      vertex -58.5 -0.8 12
      vertex 58.5 -0.8 12
    endloop
  endfacet
  facet normal 0 1 -0
    outer loop
      vertex 58.5 -21.6 12
      vertex -82.5 -21.6 22.4
      vertex 58.5 -21.6 22.4
    endloop
  endfacet
  facet normal 0 1 0
    outer loop
      vertex -82.5 -21.6 22.4
      vertex 58.5 -21.6 12
      vertex -82.5 -21.6 12
    endloop
  endfacet
  facet normal 0 -0.74095 0.671561
    outer loop
      vertex 58.5 -2.29046 3.09046
      vertex 86 -1.46007 4.00665
      vertex 58.5 -1.46007 4.00665
    endloop
  endfacet
  facet normal 0 -0.74095 0.671561
    outer loop
      vertex 86 -1.46007 4.00665
      vertex 58.5 -2.29046 3.09046
      vertex 86 -2.29046 3.09046
    endloop
  endfacet
  facet normal 0 -0.671561 0.74095
    outer loop
      vertex 58.5 -2.29046 3.09046
      vertex 86 -3.20665 2.26007
      vertex 86 -2.29046 3.09046
    endloop
  endfacet
  facet normal 0 -0.671561 0.74095
    outer loop
      vertex 86 -3.20665 2.26007
      vertex 58.5 -2.29046 3.09046
      vertex 58.5 -3.20665 2.26007
    endloop
  endfacet
  facet normal 0 -0.514103 0.857729
    outer loop
      vertex 58.5 -4.19982 1.52348
      vertex 86 -5.2604 0.887793
      vertex 86 -4.19982 1.52348
    endloop
  endfacet
  facet normal 0 -0.514103 0.857729
    outer loop
      vertex 86 -5.2604 0.887793
      vertex 58.5 -4.19982 1.52348
      vertex 58.5 -5.2604 0.887793
    endloop
  endfacet
  facet normal 0 -0.427555 0.903989
    outer loop
      vertex 58.5 -5.2604 0.887793
      vertex 86 -6.37819 0.359118
      vertex 86 -5.2604 0.887793
    endloop
  endfacet
  facet normal 0 -0.427555 0.903989
    outer loop
      vertex 86 -6.37819 0.359118
      vertex 58.5 -5.2604 0.887793
      vertex 58.5 -6.37819 0.359118
    endloop
  endfacet
  facet normal 0 -0.941544 0.33689
    outer loop
      vertex 58.5 0.440882 7.17819
      vertex 86 0.857447 8.34241
      vertex 58.5 0.857447 8.34241
    endloop
  endfacet
  facet normal 0 -0.941544 0.33689
    outer loop
      vertex 86 0.857447 8.34241
      vertex 58.5 0.440882 7.17819
      vertex 86 0.440882 7.17819
    endloop
  endfacet
  facet normal 0 -0.970031 0.242981
    outer loop
      vertex 58.5 1.13262 9.44096
      vertex 58.5 0.857447 8.34241
      vertex 82.5 1.13262 9.44096
    endloop
  endfacet
  facet normal 0 -0.970041 0.242943
    outer loop
      vertex 82.5 1.13262 9.44096
      vertex 86 1.15789 9.54186
      vertex 82.5 1.15789 9.54186
    endloop
  endfacet
  facet normal 0 -0.970031 0.242981
    outer loop
      vertex 86 0.857447 8.34241
      vertex 82.5 1.13262 9.44096
      vertex 58.5 0.857447 8.34241
    endloop
  endfacet
  facet normal -1.06226e-06 -0.970032 0.242977
    outer loop
      vertex 82.5 1.13262 9.44096
      vertex 86 0.857447 8.34241
      vertex 86 1.15789 9.54186
    endloop
  endfacet
  facet normal 0 -0.803207 0.5957
    outer loop
      vertex 58.5 -1.46007 4.00665
      vertex 86 -0.723483 4.99982
      vertex 58.5 -0.723483 4.99982
    endloop
  endfacet
  facet normal 0 -0.803207 0.5957
    outer loop
      vertex 86 -0.723483 4.99982
      vertex 58.5 -1.46007 4.00665
      vertex 86 -1.46007 4.00665
    endloop
  endfacet
  facet normal 0 -0.857727 0.514105
    outer loop
      vertex 58.5 -0.723483 4.99982
      vertex 86 -0.0877926 6.0604
      vertex 58.5 -0.0877926 6.0604
    endloop
  endfacet
  facet normal 0 -0.857727 0.514105
    outer loop
      vertex 86 -0.0877926 6.0604
      vertex 58.5 -0.723483 4.99982
      vertex 86 -0.723483 4.99982
    endloop
  endfacet
  facet normal -0 0.33688 0.941548
    outer loop
      vertex 58.5 -15.0181 0
      vertex 86 -16.0218 0.359118
      vertex 86 -15.0181 0
    endloop
  endfacet
  facet normal 0 0.33688 0.941548
    outer loop
      vertex 86 -16.0218 0.359118
      vertex 58.5 -15.0181 0
      vertex 58.5 -16.0218 0.359118
    endloop
  endfacet
  facet normal 0 -0.336889 0.941544
    outer loop
      vertex 58.5 -6.37819 0.359118
      vertex 86 -7.38186 0
      vertex 86 -6.37819 0.359118
    endloop
  endfacet
  facet normal 0 -0.336889 0.941544
    outer loop
      vertex 86 -7.38186 0
      vertex 58.5 -6.37819 0.359118
      vertex 58.5 -7.38186 0
    endloop
  endfacet
  facet normal 0 -0.998796 0.0490663
    outer loop
      vertex 82.5 1.33933 10.765
      vertex 86 1.4 12
      vertex 82.5 1.4 12
    endloop
  endfacet
  facet normal 0 -0.998796 0.0490663
    outer loop
      vertex 86 1.4 12
      vertex 82.5 1.33933 10.765
      vertex 86 1.33933 10.765
    endloop
  endfacet
  facet normal 0 -0.989176 0.146734
    outer loop
      vertex 82.5 1.15789 9.54186
      vertex 86 1.33933 10.765
      vertex 82.5 1.33933 10.765
    endloop
  endfacet
  facet normal 0 -0.989176 0.146734
    outer loop
      vertex 86 1.33933 10.765
      vertex 82.5 1.15789 9.54186
      vertex 86 1.15789 9.54186
    endloop
  endfacet
  facet normal 0 0.903982 0.427571
    outer loop
      vertex 86 -22.3122 6.0604
      vertex 58.5 -22.8409 7.17819
      vertex 86 -22.8409 7.17819
    endloop
  endfacet
  facet normal 0 0.903982 0.427571
    outer loop
      vertex 58.5 -22.8409 7.17819
      vertex 86 -22.3122 6.0604
      vertex 58.5 -22.3122 6.0604
    endloop
  endfacet
  facet normal 0 0.857724 0.51411
    outer loop
      vertex 86 -21.6765 4.99982
      vertex 58.5 -22.3122 6.0604
      vertex 86 -22.3122 6.0604
    endloop
  endfacet
  facet normal 0 0.857724 0.51411
    outer loop
      vertex 58.5 -22.3122 6.0604
      vertex 86 -21.6765 4.99982
      vertex 58.5 -21.6765 4.99982
    endloop
  endfacet
  facet normal 0 -0.90399 0.427555
    outer loop
      vertex 58.5 -0.0877926 6.0604
      vertex 86 0.440882 7.17819
      vertex 58.5 0.440882 7.17819
    endloop
  endfacet
  facet normal 0 -0.90399 0.427555
    outer loop
      vertex 86 0.440882 7.17819
      vertex 58.5 -0.0877926 6.0604
      vertex 86 -0.0877926 6.0604
    endloop
  endfacet
  facet normal 1 -0 0
    outer loop
      vertex 58.5 -23.2 22.4
      vertex 58.5 -21.6 12
      vertex 58.5 -21.6 22.4
    endloop
  endfacet
  facet normal 1 0 -0
    outer loop
      vertex 58.5 -22.8409 7.17819
      vertex 58.5 -21.6 12
      vertex 58.5 -23.2 8.18186
    endloop
  endfacet
  facet normal 1 0 0
    outer loop
      vertex 58.5 -21.6 12
      vertex 58.5 -22.3122 6.0604
      vertex 58.5 -21.6765 4.99982
    endloop
  endfacet
  facet normal 1 0 0
    outer loop
      vertex 58.5 -21.6 12
      vertex 58.5 -23.2 22.4
      vertex 58.5 -23.2 8.18186
    endloop
  endfacet
  facet normal 1 0 0
    outer loop
      vertex 58.5 -21.6 12
      vertex 58.5 -22.8409 7.17819
      vertex 58.5 -22.3122 6.0604
    endloop
  endfacet
  facet normal 1 0 0
    outer loop
      vertex 58.5 -0.8 12
      vertex 58.5 0.8 12
      vertex 58.5 0.8 22.4
    endloop
  endfacet
  facet normal 1 0 0
    outer loop
      vertex 58.5 -0.85008 10.9806
      vertex 58.5 0.8 12
      vertex 58.5 -0.8 12
    endloop
  endfacet
  facet normal 1 0 0
    outer loop
      vertex 58.5 -0.999833 9.97106
      vertex 58.5 0.8 12
      vertex 58.5 -0.85008 10.9806
    endloop
  endfacet
  facet normal 1 0 0
    outer loop
      vertex 58.5 -0.8 12
      vertex 58.5 0.8 22.4
      vertex 58.5 -0.8 22.4
    endloop
  endfacet
  facet normal 1 0 0
    outer loop
      vertex 58.5 0.8 12
      vertex 58.5 -0.999833 9.97106
      vertex 58.5 0.440882 7.17819
    endloop
  endfacet
  facet normal 1 -0 0
    outer loop
      vertex 58.5 -1.24782 8.98104
      vertex 58.5 0.440882 7.17819
      vertex 58.5 -0.999833 9.97106
    endloop
  endfacet
  facet normal 1 -0 0
    outer loop
      vertex 58.5 -1.59165 8.02009
      vertex 58.5 0.440882 7.17819
      vertex 58.5 -1.24782 8.98104
    endloop
  endfacet
  facet normal 1 0 0
    outer loop
      vertex 58.5 0.440882 7.17819
      vertex 58.5 -1.59165 8.02009
      vertex 58.5 -0.0877926 6.0604
    endloop
  endfacet
  facet normal 1 -0 0
    outer loop
      vertex 58.5 -2.02802 7.09747
      vertex 58.5 -0.0877926 6.0604
      vertex 58.5 -1.59165 8.02009
    endloop
  endfacet
  facet normal 1 0 0
    outer loop
      vertex 58.5 -0.0877926 6.0604
      vertex 58.5 -2.02802 7.09747
      vertex 58.5 -0.723483 4.99982
    endloop
  endfacet
  facet normal 1 -0 0
    outer loop
      vertex 58.5 -2.55272 6.22207
      vertex 58.5 -0.723483 4.99982
      vertex 58.5 -2.02802 7.09747
    endloop
  endfacet
  facet normal 1 0 0
    outer loop
      vertex 58.5 -0.723483 4.99982
      vertex 58.5 -2.55272 6.22207
      vertex 58.5 -1.46007 4.00665
    endloop
  endfacet
  facet normal 1 -0 0
    outer loop
      vertex 58.5 -3.16069 5.40231
      vertex 58.5 -1.46007 4.00665
      vertex 58.5 -2.55272 6.22207
    endloop
  endfacet
  facet normal 1 0 0
    outer loop
      vertex 58.5 -1.46007 4.00665
      vertex 58.5 -3.16069 5.40231
      vertex 58.5 -2.29046 3.09046
    endloop
  endfacet
  facet normal 1 -0 0
    outer loop
      vertex 58.5 -3.84609 4.64609
      vertex 58.5 -2.29046 3.09046
      vertex 58.5 -3.16069 5.40231
    endloop
  endfacet
  facet normal 1 0 0
    outer loop
      vertex 58.5 -2.29046 3.09046
      vertex 58.5 -3.84609 4.64609
      vertex 58.5 -3.20665 2.26007
    endloop
  endfacet
  facet normal 1 -0 0
    outer loop
      vertex 58.5 -4.60231 3.96069
      vertex 58.5 -3.20665 2.26007
      vertex 58.5 -3.84609 4.64609
    endloop
  endfacet
  facet normal 1 0 0
    outer loop
      vertex 58.5 -3.20665 2.26007
      vertex 58.5 -4.60231 3.96069
      vertex 58.5 -4.19982 1.52348
    endloop
  endfacet
  facet normal 1 -0 0
    outer loop
      vertex 58.5 -5.42207 3.35272
      vertex 58.5 -4.19982 1.52348
      vertex 58.5 -4.60231 3.96069
    endloop
  endfacet
  facet normal 1 0 0
    outer loop
      vertex 58.5 -4.19982 1.52348
      vertex 58.5 -5.42207 3.35272
      vertex 58.5 -5.2604 0.887793
    endloop
  endfacet
  facet normal 1 -0 0
    outer loop
      vertex 58.5 -6.29747 2.82802
      vertex 58.5 -5.2604 0.887793
      vertex 58.5 -5.42207 3.35272
    endloop
  endfacet
  facet normal 1 0 0
    outer loop
      vertex 58.5 -6.29747 2.82802
      vertex 58.5 -6.37819 0.359118
      vertex 58.5 -5.2604 0.887793
    endloop
  endfacet
  facet normal 1 -0 0
    outer loop
      vertex 58.5 -7.22009 2.39165
      vertex 58.5 -6.37819 0.359118
      vertex 58.5 -6.29747 2.82802
    endloop
  endfacet
  facet normal 1 0 0
    outer loop
      vertex 58.5 -7.22009 2.39165
      vertex 58.5 -7.38186 0
      vertex 58.5 -6.37819 0.359118
    endloop
  endfacet
  facet normal 1 -0 0
    outer loop
      vertex 58.5 -8.18104 2.04782
      vertex 58.5 -7.38186 0
      vertex 58.5 -7.22009 2.39165
    endloop
  endfacet
  facet normal 1 -0 0
    outer loop
      vertex 58.5 -9.17106 1.79983
      vertex 58.5 -7.38186 0
      vertex 58.5 -8.18104 2.04782
    endloop
  endfacet
  facet normal 1 -0 0
    outer loop
      vertex 58.5 -10.1806 1.65008
      vertex 58.5 -7.38186 0
      vertex 58.5 -9.17106 1.79983
    endloop
  endfacet
  facet normal 1 -0 0
    outer loop
      vertex 58.5 -11.2 1.6
      vertex 58.5 -7.38186 0
      vertex 58.5 -10.1806 1.65008
    endloop
  endfacet
  facet normal 1 0 0
    outer loop
      vertex 58.5 -15.0181 0
      vertex 58.5 -11.2 1.6
      vertex 58.5 -12.2194 1.65008
    endloop
  endfacet
  facet normal 1 0 0
    outer loop
      vertex 58.5 -15.0181 0
      vertex 58.5 -12.2194 1.65008
      vertex 58.5 -13.2289 1.79983
    endloop
  endfacet
  facet normal 1 0 0
    outer loop
      vertex 58.5 -15.0181 0
      vertex 58.5 -13.2289 1.79983
      vertex 58.5 -14.219 2.04782
    endloop
  endfacet
  facet normal 1 0 0
    outer loop
      vertex 58.5 -11.2 1.6
      vertex 58.5 -15.0181 0
      vertex 58.5 -7.38186 0
    endloop
  endfacet
  facet normal 1 0 0
    outer loop
      vertex 58.5 -15.1799 2.39165
      vertex 58.5 -15.0181 0
      vertex 58.5 -14.219 2.04782
    endloop
  endfacet
  facet normal 1 0 0
    outer loop
      vertex 58.5 -15.1799 2.39165
      vertex 58.5 -16.0218 0.359118
      vertex 58.5 -15.0181 0
    endloop
  endfacet
  facet normal 1 0 0
    outer loop
      vertex 58.5 -16.1025 2.82802
      vertex 58.5 -16.0218 0.359118
      vertex 58.5 -15.1799 2.39165
    endloop
  endfacet
  facet normal 1 0 0
    outer loop
      vertex 58.5 -17.1396 0.887793
      vertex 58.5 -16.1025 2.82802
      vertex 58.5 -16.9779 3.35272
    endloop
  endfacet
  facet normal 1 0 0
    outer loop
      vertex 58.5 -16.1025 2.82802
      vertex 58.5 -17.1396 0.887793
      vertex 58.5 -16.0218 0.359118
    endloop
  endfacet
  facet normal 1 0 0
    outer loop
      vertex 58.5 -18.2002 1.52348
      vertex 58.5 -16.9779 3.35272
      vertex 58.5 -17.7977 3.96069
    endloop
  endfacet
  facet normal 1 0 0
    outer loop
      vertex 58.5 -16.9779 3.35272
      vertex 58.5 -18.2002 1.52348
      vertex 58.5 -17.1396 0.887793
    endloop
  endfacet
  facet normal 1 0 0
    outer loop
      vertex 58.5 -19.1934 2.26007
      vertex 58.5 -17.7977 3.96069
      vertex 58.5 -18.5539 4.64609
    endloop
  endfacet
  facet normal 1 0 0
    outer loop
      vertex 58.5 -17.7977 3.96069
      vertex 58.5 -19.1934 2.26007
      vertex 58.5 -18.2002 1.52348
    endloop
  endfacet
  facet normal 1 0 0
    outer loop
      vertex 58.5 -20.1095 3.09046
      vertex 58.5 -18.5539 4.64609
      vertex 58.5 -19.2393 5.40231
    endloop
  endfacet
  facet normal 1 0 0
    outer loop
      vertex 58.5 -20.9399 4.00665
      vertex 58.5 -19.2393 5.40231
      vertex 58.5 -19.8473 6.22207
    endloop
  endfacet
  facet normal 1 0 0
    outer loop
      vertex 58.5 -18.5539 4.64609
      vertex 58.5 -20.1095 3.09046
      vertex 58.5 -19.1934 2.26007
    endloop
  endfacet
  facet normal 1 0 0
    outer loop
      vertex 58.5 -21.6765 4.99982
      vertex 58.5 -19.8473 6.22207
      vertex 58.5 -20.372 7.09747
    endloop
  endfacet
  facet normal 1 0 0
    outer loop
      vertex 58.5 -21.6765 4.99982
      vertex 58.5 -20.372 7.09747
      vertex 58.5 -20.8083 8.02009
    endloop
  endfacet
  facet normal 1 0 0
    outer loop
      vertex 58.5 -19.2393 5.40231
      vertex 58.5 -20.9399 4.00665
      vertex 58.5 -20.1095 3.09046
    endloop
  endfacet
  facet normal 1 0 0
    outer loop
      vertex 58.5 -21.6765 4.99982
      vertex 58.5 -20.8083 8.02009
      vertex 58.5 -21.1522 8.98104
    endloop
  endfacet
  facet normal 1 0 0
    outer loop
      vertex 58.5 -21.6765 4.99982
      vertex 58.5 -21.1522 8.98104
      vertex 58.5 -21.4002 9.97106
    endloop
  endfacet
  facet normal 1 0 0
    outer loop
      vertex 58.5 -21.6765 4.99982
      vertex 58.5 -21.4002 9.97106
      vertex 58.5 -21.5499 10.9806
    endloop
  endfacet
  facet normal 1 0 0
    outer loop
      vertex 58.5 -19.8473 6.22207
      vertex 58.5 -21.6765 4.99982
      vertex 58.5 -20.9399 4.00665
    endloop
  endfacet
  facet normal 1 0 0
    outer loop
      vertex 58.5 -21.6765 4.99982
      vertex 58.5 -21.5499 10.9806
      vertex 58.5 -21.6 12
    endloop
  endfacet
  facet normal 1 0 0
    outer loop
      vertex 58.5 0.999833 9.97106
      vertex 58.5 0.857447 8.34241
      vertex 58.5 1.13262 9.44096
    endloop
  endfacet
  facet normal 1 0 0
    outer loop
      vertex 58.5 0.85008 10.9806
      vertex 58.5 0.857447 8.34241
      vertex 58.5 0.999833 9.97106
    endloop
  endfacet
  facet normal 1 0 0
    outer loop
      vertex 58.5 0.440882 7.17819
      vertex 58.5 0.85008 10.9806
      vertex 58.5 0.8 12
    endloop
  endfacet
  facet normal 1 0 0
    outer loop
      vertex 58.5 0.85008 10.9806
      vertex 58.5 0.440882 7.17819
      vertex 58.5 0.857447 8.34241
    endloop
  endfacet
  facet normal -0 0.671597 0.740917
    outer loop
      vertex 58.5 -19.1934 2.26007
      vertex 86 -20.1095 3.09046
      vertex 86 -19.1934 2.26007
    endloop
  endfacet
  facet normal 0 0.671597 0.740917
    outer loop
      vertex 86 -20.1095 3.09046
      vertex 58.5 -19.1934 2.26007
      vertex 58.5 -20.1095 3.09046
    endloop
  endfacet
  facet normal -0 0.59569 0.803214
    outer loop
      vertex 58.5 -18.2002 1.52348
      vertex 86 -19.1934 2.26007
      vertex 86 -18.2002 1.52348
    endloop
  endfacet
  facet normal 0 0.59569 0.803214
    outer loop
      vertex 86 -19.1934 2.26007
      vertex 58.5 -18.2002 1.52348
      vertex 58.5 -19.1934 2.26007
    endloop
  endfacet
  facet normal 0 0.803202 0.595707
    outer loop
      vertex 86 -20.9399 4.00665
      vertex 58.5 -21.6765 4.99982
      vertex 86 -21.6765 4.99982
    endloop
  endfacet
  facet normal 0 0.803202 0.595707
    outer loop
      vertex 58.5 -21.6765 4.99982
      vertex 86 -20.9399 4.00665
      vertex 58.5 -20.9399 4.00665
    endloop
  endfacet
  facet normal 0 0.94155 0.336874
    outer loop
      vertex 86 -22.8409 7.17819
      vertex 58.5 -23.2 8.18186
      vertex 86 -23.2 8.18186
    endloop
  endfacet
  facet normal 0 0.94155 0.336874
    outer loop
      vertex 58.5 -23.2 8.18186
      vertex 86 -22.8409 7.17819
      vertex 58.5 -22.8409 7.17819
    endloop
  endfacet
  facet normal 0 -0.595702 0.803206
    outer loop
      vertex 58.5 -3.20665 2.26007
      vertex 86 -4.19982 1.52348
      vertex 86 -3.20665 2.26007
    endloop
  endfacet
  facet normal 0 -0.595702 0.803206
    outer loop
      vertex 86 -4.19982 1.52348
      vertex 58.5 -3.20665 2.26007
      vertex 58.5 -4.19982 1.52348
    endloop
  endfacet
  facet normal -0 0.427552 0.903991
    outer loop
      vertex 58.5 -16.0218 0.359118
      vertex 86 -17.1396 0.887793
      vertex 86 -16.0218 0.359118
    endloop
  endfacet
  facet normal 0 0.427552 0.903991
    outer loop
      vertex 86 -17.1396 0.887793
      vertex 58.5 -16.0218 0.359118
      vertex 58.5 -17.1396 0.887793
    endloop
  endfacet
  facet normal -0 0.514095 0.857733
    outer loop
      vertex 58.5 -17.1396 0.887793
      vertex 86 -18.2002 1.52348
      vertex 86 -17.1396 0.887793
    endloop
  endfacet
  facet normal 0 0.514095 0.857733
    outer loop
      vertex 86 -18.2002 1.52348
      vertex 58.5 -17.1396 0.887793
      vertex 58.5 -18.2002 1.52348
    endloop
  endfacet
  facet normal 0 0.740946 0.671565
    outer loop
      vertex 86 -20.1095 3.09046
      vertex 58.5 -20.9399 4.00665
      vertex 86 -20.9399 4.00665
    endloop
  endfacet
  facet normal 0 0.740946 0.671565
    outer loop
      vertex 58.5 -20.9399 4.00665
      vertex 86 -20.1095 3.09046
      vertex 58.5 -20.1095 3.09046
    endloop
  endfacet
  facet normal 0 -1 0
    outer loop
      vertex 82.5 1.4 12
      vertex 86 1.4 22.4
      vertex 82.5 1.4 22.4
    endloop
  endfacet
  facet normal 0 -1 -0
    outer loop
      vertex 86 1.4 22.4
      vertex 82.5 1.4 12
      vertex 86 1.4 12
    endloop
  endfacet
  facet normal 0 -0.0490678 0.998795
    outer loop
      vertex -58.5 12.2194 1.65008
      vertex 82.5 11.2 1.6
      vertex 82.5 12.2194 1.65008
    endloop
  endfacet
  facet normal 0 -0.0490678 0.998795
    outer loop
      vertex 82.5 11.2 1.6
      vertex -58.5 12.2194 1.65008
      vertex -58.5 11.2 1.6
    endloop
  endfacet
  facet normal 0 -0.74095 0.67156
    outer loop
      vertex -58.5 18.5539 4.64609
      vertex 82.5 19.2393 5.40231
      vertex -58.5 19.2393 5.40231
    endloop
  endfacet
  facet normal 0 -0.74095 0.67156
    outer loop
      vertex 82.5 19.2393 5.40231
      vertex -58.5 18.5539 4.64609
      vertex 82.5 18.5539 4.64609
    endloop
  endfacet
  facet normal 0 -0.67157 0.740941
    outer loop
      vertex -58.5 18.5539 4.64609
      vertex 82.5 17.7977 3.96069
      vertex 82.5 18.5539 4.64609
    endloop
  endfacet
  facet normal 0 -0.67157 0.740941
    outer loop
      vertex 82.5 17.7977 3.96069
      vertex -58.5 18.5539 4.64609
      vertex -58.5 17.7977 3.96069
    endloop
  endfacet
  facet normal 0 -0.514107 0.857726
    outer loop
      vertex -58.5 16.9779 3.35272
      vertex 82.5 16.1025 2.82802
      vertex 82.5 16.9779 3.35272
    endloop
  endfacet
  facet normal 0 -0.514107 0.857726
    outer loop
      vertex 82.5 16.1025 2.82802
      vertex -58.5 16.9779 3.35272
      vertex -58.5 16.1025 2.82802
    endloop
  endfacet
  facet normal 0 0.998795 0.0490678
    outer loop
      vertex 58.5 0.85008 10.9806
      vertex -58.5 0.8 12
      vertex 58.5 0.8 12
    endloop
  endfacet
  facet normal 0 0.998795 0.0490678
    outer loop
      vertex -58.5 0.8 12
      vertex 58.5 0.85008 10.9806
      vertex -58.5 0.85008 10.9806
    endloop
  endfacet
  facet normal -0 0.146729 0.989177
    outer loop
      vertex -58.5 10.1806 1.65008
      vertex 82.5 9.17106 1.79983
      vertex 82.5 10.1806 1.65008
    endloop
  endfacet
  facet normal 0 0.146729 0.989177
    outer loop
      vertex 82.5 9.17106 1.79983
      vertex -58.5 10.1806 1.65008
      vertex -58.5 9.17106 1.79983
    endloop
  endfacet
  facet normal 0 -0.427565 0.903984
    outer loop
      vertex -58.5 16.1025 2.82802
      vertex 82.5 15.1799 2.39165
      vertex 82.5 16.1025 2.82802
    endloop
  endfacet
  facet normal 0 -0.427565 0.903984
    outer loop
      vertex 82.5 15.1799 2.39165
      vertex -58.5 16.1025 2.82802
      vertex -58.5 15.1799 2.39165
    endloop
  endfacet
  facet normal 0 -0.941523 0.336948
    outer loop
      vertex -58.5 20.8083 8.02009
      vertex 82.5 21.1522 8.98104
      vertex -58.5 21.1522 8.98104
    endloop
  endfacet
  facet normal 0 -0.941523 0.336948
    outer loop
      vertex 82.5 21.1522 8.98104
      vertex -58.5 20.8083 8.02009
      vertex 82.5 20.8083 8.02009
    endloop
  endfacet
  facet normal 0 -0.146735 0.989176
    outer loop
      vertex -58.5 13.2289 1.79983
      vertex 82.5 12.2194 1.65008
      vertex 82.5 13.2289 1.79983
    endloop
  endfacet
  facet normal 0 -0.146735 0.989176
    outer loop
      vertex 82.5 12.2194 1.65008
      vertex -58.5 13.2289 1.79983
      vertex -58.5 12.2194 1.65008
    endloop
  endfacet
  facet normal 0 -0.970028 0.242992
    outer loop
      vertex -58.5 21.1522 8.98104
      vertex 82.5 21.4002 9.97106
      vertex -58.5 21.4002 9.97106
    endloop
  endfacet
  facet normal 0 -0.970028 0.242992
    outer loop
      vertex 82.5 21.4002 9.97106
      vertex -58.5 21.1522 8.98104
      vertex 82.5 21.1522 8.98104
    endloop
  endfacet
  facet normal 0 -0.803196 0.595715
    outer loop
      vertex -58.5 19.2393 5.40231
      vertex 82.5 19.8473 6.22207
      vertex -58.5 19.8473 6.22207
    endloop
  endfacet
  facet normal 0 -0.803196 0.595715
    outer loop
      vertex 82.5 19.8473 6.22207
      vertex -58.5 19.2393 5.40231
      vertex 82.5 19.2393 5.40231
    endloop
  endfacet
  facet normal 0 -0.857726 0.514107
    outer loop
      vertex -58.5 19.8473 6.22207
      vertex 82.5 20.372 7.09747
      vertex -58.5 20.372 7.09747
    endloop
  endfacet
  facet normal 0 -0.857726 0.514107
    outer loop
      vertex 82.5 20.372 7.09747
      vertex -58.5 19.8473 6.22207
      vertex 82.5 19.8473 6.22207
    endloop
  endfacet
  facet normal -0 0.336887 0.941545
    outer loop
      vertex -58.5 8.18104 2.04782
      vertex 82.5 7.22009 2.39165
      vertex 82.5 8.18104 2.04782
    endloop
  endfacet
  facet normal 0 0.336887 0.941545
    outer loop
      vertex 82.5 7.22009 2.39165
      vertex -58.5 8.18104 2.04782
      vertex -58.5 7.22009 2.39165
    endloop
  endfacet
  facet normal 0 -0.336902 0.94154
    outer loop
      vertex -58.5 15.1799 2.39165
      vertex 82.5 14.219 2.04782
      vertex 82.5 15.1799 2.39165
    endloop
  endfacet
  facet normal 0 -0.336902 0.94154
    outer loop
      vertex 82.5 14.219 2.04782
      vertex -58.5 15.1799 2.39165
      vertex -58.5 14.219 2.04782
    endloop
  endfacet
  facet normal 0 -0.998794 0.0490873
    outer loop
      vertex -58.5 21.5499 10.9806
      vertex 82.5 21.6 12
      vertex -58.5 21.6 12
    endloop
  endfacet
  facet normal 0 -0.998794 0.0490873
    outer loop
      vertex 82.5 21.6 12
      vertex -58.5 21.5499 10.9806
      vertex 82.5 21.5499 10.9806
    endloop
  endfacet
  facet normal -0 0.242983 0.970031
    outer loop
      vertex -58.5 9.17106 1.79983
      vertex 82.5 8.18104 2.04782
      vertex 82.5 9.17106 1.79983
    endloop
  endfacet
  facet normal 0 0.242983 0.970031
    outer loop
      vertex 82.5 8.18104 2.04782
      vertex -58.5 9.17106 1.79983
      vertex -58.5 8.18104 2.04782
    endloop
  endfacet
  facet normal 0 -0.989184 0.146681
    outer loop
      vertex -58.5 21.4002 9.97106
      vertex 82.5 21.5499 10.9806
      vertex -58.5 21.5499 10.9806
    endloop
  endfacet
  facet normal 0 -0.989184 0.146681
    outer loop
      vertex 82.5 21.5499 10.9806
      vertex -58.5 21.4002 9.97106
      vertex 82.5 21.4002 9.97106
    endloop
  endfacet
  facet normal 0 0.903988 0.427558
    outer loop
      vertex 82.5 2.02802 7.09747
      vertex -58.5 1.59165 8.02009
      vertex 82.5 1.59165 8.02009
    endloop
  endfacet
  facet normal 0 0.903988 0.427558
    outer loop
      vertex -58.5 1.59165 8.02009
      vertex 82.5 2.02802 7.09747
      vertex -58.5 2.02802 7.09747
    endloop
  endfacet
  facet normal 0 0.857726 0.514107
    outer loop
      vertex 82.5 2.55272 6.22207
      vertex -58.5 2.02802 7.09747
      vertex 82.5 2.02802 7.09747
    endloop
  endfacet
  facet normal 0 0.857726 0.514107
    outer loop
      vertex -58.5 2.02802 7.09747
      vertex 82.5 2.55272 6.22207
      vertex -58.5 2.55272 6.22207
    endloop
  endfacet
  facet normal 0 -0.904015 0.427502
    outer loop
      vertex -58.5 20.372 7.09747
      vertex 82.5 20.8083 8.02009
      vertex -58.5 20.8083 8.02009
    endloop
  endfacet
  facet normal 0 -0.904015 0.427502
    outer loop
      vertex 82.5 20.8083 8.02009
      vertex -58.5 20.372 7.09747
      vertex 82.5 20.372 7.09747
    endloop
  endfacet
  facet normal 0 0.989176 0.146732
    outer loop
      vertex 58.5 0.999833 9.97106
      vertex -58.5 0.85008 10.9806
      vertex 58.5 0.85008 10.9806
    endloop
  endfacet
  facet normal 0 0.989176 0.146732
    outer loop
      vertex -58.5 0.85008 10.9806
      vertex 58.5 0.999833 9.97106
      vertex -58.5 0.999833 9.97106
    endloop
  endfacet
  facet normal -0 0.67156 0.74095
    outer loop
      vertex -58.5 4.60231 3.96069
      vertex 82.5 3.84609 4.64609
      vertex 82.5 4.60231 3.96069
    endloop
  endfacet
  facet normal 0 0.67156 0.74095
    outer loop
      vertex 82.5 3.84609 4.64609
      vertex -58.5 4.60231 3.96069
      vertex -58.5 3.84609 4.64609
    endloop
  endfacet
  facet normal -0 0.595696 0.80321
    outer loop
      vertex -58.5 5.42207 3.35272
      vertex 82.5 4.60231 3.96069
      vertex 82.5 5.42207 3.35272
    endloop
  endfacet
  facet normal 0 0.595696 0.80321
    outer loop
      vertex 82.5 4.60231 3.96069
      vertex -58.5 5.42207 3.35272
      vertex -58.5 4.60231 3.96069
    endloop
  endfacet
  facet normal -1 0 0
    outer loop
      vertex 82.5 4.60231 3.96069
      vertex 82.5 1.33933 10.765
      vertex 82.5 1.4 12
    endloop
  endfacet
  facet normal -1 0 0
    outer loop
      vertex 82.5 1.24782 8.98104
      vertex 82.5 1.33933 10.765
      vertex 82.5 1.59165 8.02009
    endloop
  endfacet
  facet normal -1 0 0
    outer loop
      vertex 82.5 1.24782 8.98104
      vertex 82.5 1.15789 9.54186
      vertex 82.5 1.33933 10.765
    endloop
  endfacet
  facet normal -1 0 -0
    outer loop
      vertex 82.5 1.15789 9.54186
      vertex 82.5 1.24782 8.98104
      vertex 82.5 1.13262 9.44096
    endloop
  endfacet
  facet normal -1 0 0
    outer loop
      vertex 82.5 1.4 12
      vertex 82.5 21.6 12
      vertex 82.5 21.5499 10.9806
    endloop
  endfacet
  facet normal -1 0 0
    outer loop
      vertex 82.5 1.4 12
      vertex 82.5 21.5499 10.9806
      vertex 82.5 21.4002 9.97106
    endloop
  endfacet
  facet normal -1 0 0
    outer loop
      vertex 82.5 1.4 12
      vertex 82.5 21.4002 9.97106
      vertex 82.5 21.1522 8.98104
    endloop
  endfacet
  facet normal -1 0 0
    outer loop
      vertex 82.5 1.4 12
      vertex 82.5 21.1522 8.98104
      vertex 82.5 20.8083 8.02009
    endloop
  endfacet
  facet normal -1 0 0
    outer loop
      vertex 82.5 1.4 12
      vertex 82.5 20.8083 8.02009
      vertex 82.5 20.372 7.09747
    endloop
  endfacet
  facet normal -1 0 0
    outer loop
      vertex 82.5 1.4 12
      vertex 82.5 20.372 7.09747
      vertex 82.5 19.8473 6.22207
    endloop
  endfacet
  facet normal -1 0 0
    outer loop
      vertex 82.5 1.4 12
      vertex 82.5 19.8473 6.22207
      vertex 82.5 19.2393 5.40231
    endloop
  endfacet
  facet normal -1 0 0
    outer loop
      vertex 82.5 1.4 12
      vertex 82.5 19.2393 5.40231
      vertex 82.5 18.5539 4.64609
    endloop
  endfacet
  facet normal -1 0 0
    outer loop
      vertex 82.5 1.4 12
      vertex 82.5 18.5539 4.64609
      vertex 82.5 17.7977 3.96069
    endloop
  endfacet
  facet normal -1 0 0
    outer loop
      vertex 82.5 1.4 12
      vertex 82.5 17.7977 3.96069
      vertex 82.5 16.9779 3.35272
    endloop
  endfacet
  facet normal -1 0 0
    outer loop
      vertex 82.5 1.4 12
      vertex 82.5 16.9779 3.35272
      vertex 82.5 16.1025 2.82802
    endloop
  endfacet
  facet normal -1 0 0
    outer loop
      vertex 82.5 1.4 12
      vertex 82.5 16.1025 2.82802
      vertex 82.5 15.1799 2.39165
    endloop
  endfacet
  facet normal -1 0 0
    outer loop
      vertex 82.5 1.4 12
      vertex 82.5 15.1799 2.39165
      vertex 82.5 14.219 2.04782
    endloop
  endfacet
  facet normal -1 0 0
    outer loop
      vertex 82.5 1.4 12
      vertex 82.5 14.219 2.04782
      vertex 82.5 13.2289 1.79983
    endloop
  endfacet
  facet normal -1 0 0
    outer loop
      vertex 82.5 1.4 12
      vertex 82.5 13.2289 1.79983
      vertex 82.5 12.2194 1.65008
    endloop
  endfacet
  facet normal -1 0 0
    outer loop
      vertex 82.5 1.4 12
      vertex 82.5 12.2194 1.65008
      vertex 82.5 11.2 1.6
    endloop
  endfacet
  facet normal -1 0 0
    outer loop
      vertex 82.5 1.4 12
      vertex 82.5 11.2 1.6
      vertex 82.5 10.1806 1.65008
    endloop
  endfacet
  facet normal -1 0 0
    outer loop
      vertex 82.5 1.4 12
      vertex 82.5 10.1806 1.65008
      vertex 82.5 9.17106 1.79983
    endloop
  endfacet
  facet normal -1 0 0
    outer loop
      vertex 82.5 1.4 12
      vertex 82.5 9.17106 1.79983
      vertex 82.5 8.18104 2.04782
    endloop
  endfacet
  facet normal -1 0 0
    outer loop
      vertex 82.5 1.4 12
      vertex 82.5 8.18104 2.04782
      vertex 82.5 7.22009 2.39165
    endloop
  endfacet
  facet normal -1 0 0
    outer loop
      vertex 82.5 1.4 12
      vertex 82.5 7.22009 2.39165
      vertex 82.5 6.29747 2.82802
    endloop
  endfacet
  facet normal -1 0 0
    outer loop
      vertex 82.5 1.4 12
      vertex 82.5 6.29747 2.82802
      vertex 82.5 5.42207 3.35272
    endloop
  endfacet
  facet normal -1 0 0
    outer loop
      vertex 82.5 1.4 12
      vertex 82.5 5.42207 3.35272
      vertex 82.5 4.60231 3.96069
    endloop
  endfacet
  facet normal -1 0 0
    outer loop
      vertex 82.5 1.33933 10.765
      vertex 82.5 4.60231 3.96069
      vertex 82.5 3.84609 4.64609
    endloop
  endfacet
  facet normal -1 0 0
    outer loop
      vertex 82.5 1.33933 10.765
      vertex 82.5 3.84609 4.64609
      vertex 82.5 3.16069 5.40231
    endloop
  endfacet
  facet normal -1 0 0
    outer loop
      vertex 82.5 1.33933 10.765
      vertex 82.5 3.16069 5.40231
      vertex 82.5 2.55272 6.22207
    endloop
  endfacet
  facet normal -1 0 0
    outer loop
      vertex 82.5 1.33933 10.765
      vertex 82.5 2.55272 6.22207
      vertex 82.5 2.02802 7.09747
    endloop
  endfacet
  facet normal -1 0 0
    outer loop
      vertex 82.5 1.33933 10.765
      vertex 82.5 2.02802 7.09747
      vertex 82.5 1.59165 8.02009
    endloop
  endfacet
  facet normal -1 0 0
    outer loop
      vertex 82.5 21.6 12
      vertex 82.5 1.4 12
      vertex 82.5 21.6 22.4
    endloop
  endfacet
  facet normal -1 -0 0
    outer loop
      vertex 82.5 21.6 22.4
      vertex 82.5 1.4 12
      vertex 82.5 1.4 22.4
    endloop
  endfacet
  facet normal 0 -0.242964 0.970035
    outer loop
      vertex -58.5 14.219 2.04782
      vertex 82.5 13.2289 1.79983
      vertex 82.5 14.219 2.04782
    endloop
  endfacet
  facet normal 0 -0.242964 0.970035
    outer loop
      vertex 82.5 13.2289 1.79983
      vertex -58.5 14.219 2.04782
      vertex -58.5 13.2289 1.79983
    endloop
  endfacet
  facet normal 0 -0.595677 0.803224
    outer loop
      vertex -58.5 17.7977 3.96069
      vertex 82.5 16.9779 3.35272
      vertex 82.5 17.7977 3.96069
    endloop
  endfacet
  facet normal 0 -0.595677 0.803224
    outer loop
      vertex 82.5 16.9779 3.35272
      vertex -58.5 17.7977 3.96069
      vertex -58.5 16.9779 3.35272
    endloop
  endfacet
  facet normal 0 0.80321 0.595696
    outer loop
      vertex 82.5 3.16069 5.40231
      vertex -58.5 2.55272 6.22207
      vertex 82.5 2.55272 6.22207
    endloop
  endfacet
  facet normal 0 0.80321 0.595696
    outer loop
      vertex -58.5 2.55272 6.22207
      vertex 82.5 3.16069 5.40231
      vertex -58.5 3.16069 5.40231
    endloop
  endfacet
  facet normal -0 0.0490678 0.998795
    outer loop
      vertex -58.5 11.2 1.6
      vertex 82.5 10.1806 1.65008
      vertex 82.5 11.2 1.6
    endloop
  endfacet
  facet normal 0 0.0490678 0.998795
    outer loop
      vertex 82.5 10.1806 1.65008
      vertex -58.5 11.2 1.6
      vertex -58.5 10.1806 1.65008
    endloop
  endfacet
  facet normal 0 0.941545 0.336887
    outer loop
      vertex 82.5 1.59165 8.02009
      vertex -58.5 1.24782 8.98104
      vertex 82.5 1.24782 8.98104
    endloop
  endfacet
  facet normal 0 0.941545 0.336887
    outer loop
      vertex -58.5 1.24782 8.98104
      vertex 82.5 1.59165 8.02009
      vertex -58.5 1.59165 8.02009
    endloop
  endfacet
  facet normal 0 0.970033 0.242972
    outer loop
      vertex 82.5 1.13262 9.44096
      vertex 82.5 1.24782 8.98104
      vertex 58.5 1.13262 9.44096
    endloop
  endfacet
  facet normal 0 0.97003 0.242987
    outer loop
      vertex 58.5 1.13262 9.44096
      vertex -58.5 0.999833 9.97106
      vertex 58.5 0.999833 9.97106
    endloop
  endfacet
  facet normal -0 0.970033 0.242972
    outer loop
      vertex -58.5 1.24782 8.98104
      vertex 58.5 1.13262 9.44096
      vertex 82.5 1.24782 8.98104
    endloop
  endfacet
  facet normal -3.2468e-08 0.970031 0.24298
    outer loop
      vertex 58.5 1.13262 9.44096
      vertex -58.5 1.24782 8.98104
      vertex -58.5 0.999833 9.97106
    endloop
  endfacet
  facet normal -0 0.427558 0.903988
    outer loop
      vertex -58.5 7.22009 2.39165
      vertex 82.5 6.29747 2.82802
      vertex 82.5 7.22009 2.39165
    endloop
  endfacet
  facet normal 0 0.427558 0.903988
    outer loop
      vertex 82.5 6.29747 2.82802
      vertex -58.5 7.22009 2.39165
      vertex -58.5 6.29747 2.82802
    endloop
  endfacet
  facet normal -0 0.514107 0.857726
    outer loop
      vertex -58.5 6.29747 2.82802
      vertex 82.5 5.42207 3.35272
      vertex 82.5 6.29747 2.82802
    endloop
  endfacet
  facet normal 0 0.514107 0.857726
    outer loop
      vertex 82.5 5.42207 3.35272
      vertex -58.5 6.29747 2.82802
      vertex -58.5 5.42207 3.35272
    endloop
  endfacet
  facet normal 0 0.74095 0.67156
    outer loop
      vertex 82.5 3.84609 4.64609
      vertex -58.5 3.16069 5.40231
      vertex 82.5 3.16069 5.40231
    endloop
  endfacet
  facet normal 0 0.74095 0.67156
    outer loop
      vertex -58.5 3.16069 5.40231
      vertex 82.5 3.84609 4.64609
      vertex -58.5 3.84609 4.64609
    endloop
  endfacet
  facet normal 0 -1 0
    outer loop
      vertex -58.5 21.6 12
      vertex 82.5 21.6 22.4
      vertex -58.5 21.6 22.4
    endloop
  endfacet
  facet normal 0 -1 -0
    outer loop
      vertex 82.5 21.6 22.4
      vertex -58.5 21.6 12
      vertex 82.5 21.6 12
    endloop
  endfacet
  facet normal 0 1 -0
    outer loop
      vertex 58.5 0.8 12
      vertex -58.5 0.8 22.4
      vertex 58.5 0.8 22.4
    endloop
  endfacet
  facet normal 0 1 0
    outer loop
      vertex -58.5 0.8 22.4
      vertex 58.5 0.8 12
      vertex -58.5 0.8 12
    endloop
  endfacet
  facet normal 0 -0.740946 0.671565
    outer loop
      vertex -86 20.1095 3.09046
      vertex -58.5 20.9399 4.00665
      vertex -86 20.9399 4.00665
    endloop
  endfacet
  facet normal 0 -0.740946 0.671565
    outer loop
      vertex -58.5 20.9399 4.00665
      vertex -86 20.1095 3.09046
      vertex -58.5 20.1095 3.09046
    endloop
  endfacet
  facet normal 0 -0.671597 0.740917
    outer loop
      vertex -86 20.1095 3.09046
      vertex -58.5 19.1934 2.26007
      vertex -58.5 20.1095 3.09046
    endloop
  endfacet
  facet normal 0 -0.671597 0.740917
    outer loop
      vertex -58.5 19.1934 2.26007
      vertex -86 20.1095 3.09046
      vertex -86 19.1934 2.26007
    endloop
  endfacet
  facet normal 0 -0.514095 0.857733
    outer loop
      vertex -86 18.2002 1.52348
      vertex -58.5 17.1396 0.887793
      vertex -58.5 18.2002 1.52348
    endloop
  endfacet
  facet normal 0 -0.514095 0.857733
    outer loop
      vertex -58.5 17.1396 0.887793
      vertex -86 18.2002 1.52348
      vertex -86 17.1396 0.887793
    endloop
  endfacet
  facet normal 0 0.998796 0.0490663
    outer loop
      vertex -82.5 -1.33933 10.765
      vertex -86 -1.4 12
      vertex -82.5 -1.4 12
    endloop
  endfacet
  facet normal 0 0.998796 0.0490663
    outer loop
      vertex -86 -1.4 12
      vertex -82.5 -1.33933 10.765
      vertex -86 -1.33933 10.765
    endloop
  endfacet
  facet normal -1 0 0
    outer loop
      vertex -58.5 0.85008 10.9806
      vertex -58.5 -0.85008 10.9806
      vertex -58.5 -0.8 12
    endloop
  endfacet
  facet normal -1 0 0
    outer loop
      vertex -58.5 1.24782 8.98104
      vertex -58.5 -1.13262 9.44096
      vertex -58.5 0.999833 9.97106
    endloop
  endfacet
  facet normal -1 0 0
    outer loop
      vertex -58.5 0.999833 9.97106
      vertex -58.5 -0.999833 9.97106
      vertex -58.5 -0.85008 10.9806
    endloop
  endfacet
  facet normal -1 -0 0
    outer loop
      vertex -58.5 0.999833 9.97106
      vertex -58.5 -1.13262 9.44096
      vertex -58.5 -0.999833 9.97106
    endloop
  endfacet
  facet normal -1 0 0
    outer loop
      vertex -58.5 23.2 8.18186
      vertex -58.5 21.5499 10.9806
      vertex -58.5 21.6 12
    endloop
  endfacet
  facet normal -1 0 0
    outer loop
      vertex -58.5 22.3122 6.0604
      vertex -58.5 21.4002 9.97106
      vertex -58.5 21.5499 10.9806
    endloop
  endfacet
  facet normal -1 0 0
    outer loop
      vertex -58.5 22.3122 6.0604
      vertex -58.5 21.1522 8.98104
      vertex -58.5 21.4002 9.97106
    endloop
  endfacet
  facet normal -1 0 0
    outer loop
      vertex -58.5 19.8473 6.22207
      vertex -58.5 21.6765 4.99982
      vertex -58.5 20.9399 4.00665
    endloop
  endfacet
  facet normal -1 0 0
    outer loop
      vertex -58.5 22.3122 6.0604
      vertex -58.5 20.8083 8.02009
      vertex -58.5 21.1522 8.98104
    endloop
  endfacet
  facet normal -1 0 0
    outer loop
      vertex -58.5 22.3122 6.0604
      vertex -58.5 20.372 7.09747
      vertex -58.5 20.8083 8.02009
    endloop
  endfacet
  facet normal -1 0 0
    outer loop
      vertex -58.5 19.2393 5.40231
      vertex -58.5 20.9399 4.00665
      vertex -58.5 20.1095 3.09046
    endloop
  endfacet
  facet normal -1 0 0
    outer loop
      vertex -58.5 21.6765 4.99982
      vertex -58.5 19.8473 6.22207
      vertex -58.5 20.372 7.09747
    endloop
  endfacet
  facet normal -1 0 0
    outer loop
      vertex -58.5 20.9399 4.00665
      vertex -58.5 19.2393 5.40231
      vertex -58.5 19.8473 6.22207
    endloop
  endfacet
  facet normal -1 0 0
    outer loop
      vertex -58.5 18.5539 4.64609
      vertex -58.5 20.1095 3.09046
      vertex -58.5 19.1934 2.26007
    endloop
  endfacet
  facet normal -1 0 0
    outer loop
      vertex -58.5 20.1095 3.09046
      vertex -58.5 18.5539 4.64609
      vertex -58.5 19.2393 5.40231
    endloop
  endfacet
  facet normal -1 0 0
    outer loop
      vertex -58.5 17.7977 3.96069
      vertex -58.5 19.1934 2.26007
      vertex -58.5 18.2002 1.52348
    endloop
  endfacet
  facet normal -1 0 0
    outer loop
      vertex -58.5 19.1934 2.26007
      vertex -58.5 17.7977 3.96069
      vertex -58.5 18.5539 4.64609
    endloop
  endfacet
  facet normal -1 0 0
    outer loop
      vertex -58.5 16.9779 3.35272
      vertex -58.5 18.2002 1.52348
      vertex -58.5 17.1396 0.887793
    endloop
  endfacet
  facet normal -1 0 0
    outer loop
      vertex -58.5 18.2002 1.52348
      vertex -58.5 16.9779 3.35272
      vertex -58.5 17.7977 3.96069
    endloop
  endfacet
  facet normal -1 0 0
    outer loop
      vertex -58.5 17.1396 0.887793
      vertex -58.5 16.1025 2.82802
      vertex -58.5 16.9779 3.35272
    endloop
  endfacet
  facet normal -1 0 0
    outer loop
      vertex -58.5 16.0218 0.359118
      vertex -58.5 16.1025 2.82802
      vertex -58.5 17.1396 0.887793
    endloop
  endfacet
  facet normal -1 0 0
    outer loop
      vertex -58.5 16.0218 0.359118
      vertex -58.5 15.1799 2.39165
      vertex -58.5 16.1025 2.82802
    endloop
  endfacet
  facet normal -1 0 0
    outer loop
      vertex -58.5 15.0181 0
      vertex -58.5 15.1799 2.39165
      vertex -58.5 16.0218 0.359118
    endloop
  endfacet
  facet normal -1 0 0
    outer loop
      vertex -58.5 15.0181 0
      vertex -58.5 14.219 2.04782
      vertex -58.5 15.1799 2.39165
    endloop
  endfacet
  facet normal -1 0 0
    outer loop
      vertex -58.5 15.0181 0
      vertex -58.5 13.2289 1.79983
      vertex -58.5 14.219 2.04782
    endloop
  endfacet
  facet normal -1 0 0
    outer loop
      vertex -58.5 15.0181 0
      vertex -58.5 12.2194 1.65008
      vertex -58.5 13.2289 1.79983
    endloop
  endfacet
  facet normal -1 0 0
    outer loop
      vertex -58.5 15.0181 0
      vertex -58.5 11.2 1.6
      vertex -58.5 12.2194 1.65008
    endloop
  endfacet
  facet normal -1 0 0
    outer loop
      vertex -58.5 7.38186 0
      vertex -58.5 11.2 1.6
      vertex -58.5 15.0181 0
    endloop
  endfacet
  facet normal -1 -0 0
    outer loop
      vertex -58.5 11.2 1.6
      vertex -58.5 7.38186 0
      vertex -58.5 10.1806 1.65008
    endloop
  endfacet
  facet normal -1 -0 0
    outer loop
      vertex -58.5 10.1806 1.65008
      vertex -58.5 7.38186 0
      vertex -58.5 9.17106 1.79983
    endloop
  endfacet
  facet normal -1 -0 0
    outer loop
      vertex -58.5 9.17106 1.79983
      vertex -58.5 7.38186 0
      vertex -58.5 8.18104 2.04782
    endloop
  endfacet
  facet normal -1 0 0
    outer loop
      vertex -58.5 7.38186 0
      vertex -58.5 7.22009 2.39165
      vertex -58.5 8.18104 2.04782
    endloop
  endfacet
  facet normal -1 0 0
    outer loop
      vertex -58.5 6.37819 0.359118
      vertex -58.5 7.22009 2.39165
      vertex -58.5 7.38186 0
    endloop
  endfacet
  facet normal -1 0 0
    outer loop
      vertex -58.5 6.37819 0.359118
      vertex -58.5 6.29747 2.82802
      vertex -58.5 7.22009 2.39165
    endloop
  endfacet
  facet normal -1 0 0
    outer loop
      vertex -58.5 5.2604 0.887793
      vertex -58.5 6.29747 2.82802
      vertex -58.5 6.37819 0.359118
    endloop
  endfacet
  facet normal -1 -0 0
    outer loop
      vertex -58.5 6.29747 2.82802
      vertex -58.5 5.2604 0.887793
      vertex -58.5 5.42207 3.35272
    endloop
  endfacet
  facet normal -1 0 0
    outer loop
      vertex -58.5 4.19982 1.52348
      vertex -58.5 5.42207 3.35272
      vertex -58.5 5.2604 0.887793
    endloop
  endfacet
  facet normal -1 -0 0
    outer loop
      vertex -58.5 5.42207 3.35272
      vertex -58.5 4.19982 1.52348
      vertex -58.5 4.60231 3.96069
    endloop
  endfacet
  facet normal -1 0 0
    outer loop
      vertex -58.5 3.20665 2.26007
      vertex -58.5 4.60231 3.96069
      vertex -58.5 4.19982 1.52348
    endloop
  endfacet
  facet normal -1 -0 0
    outer loop
      vertex -58.5 4.60231 3.96069
      vertex -58.5 3.20665 2.26007
      vertex -58.5 3.84609 4.64609
    endloop
  endfacet
  facet normal -1 0 0
    outer loop
      vertex -58.5 2.29046 3.09046
      vertex -58.5 3.84609 4.64609
      vertex -58.5 3.20665 2.26007
    endloop
  endfacet
  facet normal -1 -0 0
    outer loop
      vertex -58.5 3.84609 4.64609
      vertex -58.5 2.29046 3.09046
      vertex -58.5 3.16069 5.40231
    endloop
  endfacet
  facet normal -1 0 0
    outer loop
      vertex -58.5 1.46007 4.00665
      vertex -58.5 3.16069 5.40231
      vertex -58.5 2.29046 3.09046
    endloop
  endfacet
  facet normal -1 -0 0
    outer loop
      vertex -58.5 3.16069 5.40231
      vertex -58.5 1.46007 4.00665
      vertex -58.5 2.55272 6.22207
    endloop
  endfacet
  facet normal -1 0 0
    outer loop
      vertex -58.5 0.723483 4.99982
      vertex -58.5 2.55272 6.22207
      vertex -58.5 1.46007 4.00665
    endloop
  endfacet
  facet normal -1 -0 0
    outer loop
      vertex -58.5 2.55272 6.22207
      vertex -58.5 0.723483 4.99982
      vertex -58.5 2.02802 7.09747
    endloop
  endfacet
  facet normal -1 0 0
    outer loop
      vertex -58.5 0.0877926 6.0604
      vertex -58.5 2.02802 7.09747
      vertex -58.5 0.723483 4.99982
    endloop
  endfacet
  facet normal -1 -0 0
    outer loop
      vertex -58.5 2.02802 7.09747
      vertex -58.5 0.0877926 6.0604
      vertex -58.5 1.59165 8.02009
    endloop
  endfacet
  facet normal -1 0 0
    outer loop
      vertex -58.5 -0.440882 7.17819
      vertex -58.5 1.59165 8.02009
      vertex -58.5 0.0877926 6.0604
    endloop
  endfacet
  facet normal -1 -0 0
    outer loop
      vertex -58.5 1.59165 8.02009
      vertex -58.5 -0.440882 7.17819
      vertex -58.5 1.24782 8.98104
    endloop
  endfacet
  facet normal -1 0 0
    outer loop
      vertex -58.5 -0.857447 8.34241
      vertex -58.5 1.24782 8.98104
      vertex -58.5 -0.440882 7.17819
    endloop
  endfacet
  facet normal -1 0 0
    outer loop
      vertex -58.5 -1.13262 9.44096
      vertex -58.5 1.24782 8.98104
      vertex -58.5 -0.857447 8.34241
    endloop
  endfacet
  facet normal -1 0 0
    outer loop
      vertex -58.5 -0.85008 10.9806
      vertex -58.5 0.85008 10.9806
      vertex -58.5 0.999833 9.97106
    endloop
  endfacet
  facet normal -1 0 0
    outer loop
      vertex -58.5 0.85008 10.9806
      vertex -58.5 -0.8 12
      vertex -58.5 0.8 12
    endloop
  endfacet
  facet normal -1 0 0
    outer loop
      vertex -58.5 0.8 12
      vertex -58.5 -0.8 12
      vertex -58.5 0.8 22.4
    endloop
  endfacet
  facet normal -1 -0 0
    outer loop
      vertex -58.5 0.8 22.4
      vertex -58.5 -0.8 12
      vertex -58.5 -0.8 22.4
    endloop
  endfacet
  facet normal -1 0 0
    outer loop
      vertex -58.5 21.5499 10.9806
      vertex -58.5 23.2 8.18186
      vertex -58.5 22.8409 7.17819
    endloop
  endfacet
  facet normal -1 0 0
    outer loop
      vertex -58.5 21.5499 10.9806
      vertex -58.5 22.8409 7.17819
      vertex -58.5 22.3122 6.0604
    endloop
  endfacet
  facet normal -1 0 0
    outer loop
      vertex -58.5 20.372 7.09747
      vertex -58.5 22.3122 6.0604
      vertex -58.5 21.6765 4.99982
    endloop
  endfacet
  facet normal -1 0 0
    outer loop
      vertex -58.5 23.2 8.18186
      vertex -58.5 21.6 12
      vertex -58.5 23.2 22.4
    endloop
  endfacet
  facet normal -1 -0 0
    outer loop
      vertex -58.5 23.2 22.4
      vertex -58.5 21.6 12
      vertex -58.5 21.6 22.4
    endloop
  endfacet
  facet normal 0 -0.427552 0.903991
    outer loop
      vertex -86 17.1396 0.887793
      vertex -58.5 16.0218 0.359118
      vertex -58.5 17.1396 0.887793
    endloop
  endfacet
  facet normal 0 -0.427552 0.903991
    outer loop
      vertex -58.5 16.0218 0.359118
      vertex -86 17.1396 0.887793
      vertex -86 16.0218 0.359118
    endloop
  endfacet
  facet normal 0 -0.94155 0.336874
    outer loop
      vertex -86 22.8409 7.17819
      vertex -58.5 23.2 8.18186
      vertex -86 23.2 8.18186
    endloop
  endfacet
  facet normal 0 -0.94155 0.336874
    outer loop
      vertex -58.5 23.2 8.18186
      vertex -86 22.8409 7.17819
      vertex -58.5 22.8409 7.17819
    endloop
  endfacet
  facet normal 0 -0.803202 0.595707
    outer loop
      vertex -86 20.9399 4.00665
      vertex -58.5 21.6765 4.99982
      vertex -86 21.6765 4.99982
    endloop
  endfacet
  facet normal 0 -0.803202 0.595707
    outer loop
      vertex -58.5 21.6765 4.99982
      vertex -86 20.9399 4.00665
      vertex -58.5 20.9399 4.00665
    endloop
  endfacet
  facet normal 0 -0.857724 0.51411
    outer loop
      vertex -86 21.6765 4.99982
      vertex -58.5 22.3122 6.0604
      vertex -86 22.3122 6.0604
    endloop
  endfacet
  facet normal 0 -0.857724 0.51411
    outer loop
      vertex -58.5 22.3122 6.0604
      vertex -86 21.6765 4.99982
      vertex -58.5 21.6765 4.99982
    endloop
  endfacet
  facet normal -0 0.336889 0.941544
    outer loop
      vertex -86 7.38186 0
      vertex -58.5 6.37819 0.359118
      vertex -58.5 7.38186 0
    endloop
  endfacet
  facet normal 0 0.336889 0.941544
    outer loop
      vertex -58.5 6.37819 0.359118
      vertex -86 7.38186 0
      vertex -86 6.37819 0.359118
    endloop
  endfacet
  facet normal 0 -0.33688 0.941548
    outer loop
      vertex -86 16.0218 0.359118
      vertex -58.5 15.0181 0
      vertex -58.5 16.0218 0.359118
    endloop
  endfacet
  facet normal 0 -0.33688 0.941548
    outer loop
      vertex -58.5 15.0181 0
      vertex -86 16.0218 0.359118
      vertex -86 15.0181 0
    endloop
  endfacet
  facet normal 0 0.90399 0.427555
    outer loop
      vertex -58.5 0.0877926 6.0604
      vertex -86 -0.440882 7.17819
      vertex -58.5 -0.440882 7.17819
    endloop
  endfacet
  facet normal 0 0.90399 0.427555
    outer loop
      vertex -86 -0.440882 7.17819
      vertex -58.5 0.0877926 6.0604
      vertex -86 0.0877926 6.0604
    endloop
  endfacet
  facet normal 0 0.857727 0.514105
    outer loop
      vertex -58.5 0.723483 4.99982
      vertex -86 0.0877926 6.0604
      vertex -58.5 0.0877926 6.0604
    endloop
  endfacet
  facet normal 0 0.857727 0.514105
    outer loop
      vertex -86 0.0877926 6.0604
      vertex -58.5 0.723483 4.99982
      vertex -86 0.723483 4.99982
    endloop
  endfacet
  facet normal 0 -0.903982 0.427571
    outer loop
      vertex -86 22.3122 6.0604
      vertex -58.5 22.8409 7.17819
      vertex -86 22.8409 7.17819
    endloop
  endfacet
  facet normal 0 -0.903982 0.427571
    outer loop
      vertex -58.5 22.8409 7.17819
      vertex -86 22.3122 6.0604
      vertex -58.5 22.3122 6.0604
    endloop
  endfacet
  facet normal 0 0.989176 0.146734
    outer loop
      vertex -82.5 -1.15789 9.54186
      vertex -86 -1.33933 10.765
      vertex -82.5 -1.33933 10.765
    endloop
  endfacet
  facet normal 0 0.989176 0.146734
    outer loop
      vertex -86 -1.33933 10.765
      vertex -82.5 -1.15789 9.54186
      vertex -86 -1.15789 9.54186
    endloop
  endfacet
  facet normal -0 0.671561 0.74095
    outer loop
      vertex -86 3.20665 2.26007
      vertex -58.5 2.29046 3.09046
      vertex -58.5 3.20665 2.26007
    endloop
  endfacet
  facet normal 0 0.671561 0.74095
    outer loop
      vertex -58.5 2.29046 3.09046
      vertex -86 3.20665 2.26007
      vertex -86 2.29046 3.09046
    endloop
  endfacet
  facet normal -0 0.595702 0.803206
    outer loop
      vertex -86 4.19982 1.52348
      vertex -58.5 3.20665 2.26007
      vertex -58.5 4.19982 1.52348
    endloop
  endfacet
  facet normal 0 0.595702 0.803206
    outer loop
      vertex -58.5 3.20665 2.26007
      vertex -86 4.19982 1.52348
      vertex -86 3.20665 2.26007
    endloop
  endfacet
  facet normal 0 0.803207 0.5957
    outer loop
      vertex -58.5 1.46007 4.00665
      vertex -86 0.723483 4.99982
      vertex -58.5 0.723483 4.99982
    endloop
  endfacet
  facet normal 0 0.803207 0.5957
    outer loop
      vertex -86 0.723483 4.99982
      vertex -58.5 1.46007 4.00665
      vertex -86 1.46007 4.00665
    endloop
  endfacet
  facet normal 0 0.941544 0.33689
    outer loop
      vertex -58.5 -0.440882 7.17819
      vertex -86 -0.857447 8.34241
      vertex -58.5 -0.857447 8.34241
    endloop
  endfacet
  facet normal 0 0.941544 0.33689
    outer loop
      vertex -86 -0.857447 8.34241
      vertex -58.5 -0.440882 7.17819
      vertex -86 -0.440882 7.17819
    endloop
  endfacet
  facet normal 0 0.970031 0.242981
    outer loop
      vertex -58.5 -1.13262 9.44096
      vertex -58.5 -0.857447 8.34241
      vertex -82.5 -1.13262 9.44096
    endloop
  endfacet
  facet normal 0 0.970041 0.242943
    outer loop
      vertex -82.5 -1.13262 9.44096
      vertex -86 -1.15789 9.54186
      vertex -82.5 -1.15789 9.54186
    endloop
  endfacet
  facet normal -0 0.970031 0.242981
    outer loop
      vertex -86 -0.857447 8.34241
      vertex -82.5 -1.13262 9.44096
      vertex -58.5 -0.857447 8.34241
    endloop
  endfacet
  facet normal 1.06226e-06 0.970032 0.242977
    outer loop
      vertex -82.5 -1.13262 9.44096
      vertex -86 -0.857447 8.34241
      vertex -86 -1.15789 9.54186
    endloop
  endfacet
  facet normal 0 -0.59569 0.803214
    outer loop
      vertex -86 19.1934 2.26007
      vertex -58.5 18.2002 1.52348
      vertex -58.5 19.1934 2.26007
    endloop
  endfacet
  facet normal 0 -0.59569 0.803214
    outer loop
      vertex -58.5 18.2002 1.52348
      vertex -86 19.1934 2.26007
      vertex -86 18.2002 1.52348
    endloop
  endfacet
  facet normal -0 0.427555 0.903989
    outer loop
      vertex -86 6.37819 0.359118
      vertex -58.5 5.2604 0.887793
      vertex -58.5 6.37819 0.359118
    endloop
  endfacet
  facet normal 0 0.427555 0.903989
    outer loop
      vertex -58.5 5.2604 0.887793
      vertex -86 6.37819 0.359118
      vertex -86 5.2604 0.887793
    endloop
  endfacet
  facet normal -0 0.514103 0.857729
    outer loop
      vertex -86 5.2604 0.887793
      vertex -58.5 4.19982 1.52348
      vertex -58.5 5.2604 0.887793
    endloop
  endfacet
  facet normal 0 0.514103 0.857729
    outer loop
      vertex -58.5 4.19982 1.52348
      vertex -86 5.2604 0.887793
      vertex -86 4.19982 1.52348
    endloop
  endfacet
  facet normal 0 0.74095 0.671561
    outer loop
      vertex -58.5 2.29046 3.09046
      vertex -86 1.46007 4.00665
      vertex -58.5 1.46007 4.00665
    endloop
  endfacet
  facet normal 0 0.74095 0.671561
    outer loop
      vertex -86 1.46007 4.00665
      vertex -58.5 2.29046 3.09046
      vertex -86 2.29046 3.09046
    endloop
  endfacet
  facet normal 0 1 -0
    outer loop
      vertex -82.5 -1.4 12
      vertex -86 -1.4 22.4
      vertex -82.5 -1.4 22.4
    endloop
  endfacet
  facet normal 0 1 0
    outer loop
      vertex -86 -1.4 22.4
      vertex -82.5 -1.4 12
      vertex -86 -1.4 12
    endloop
  endfacet
  facet normal 1 0 0
    outer loop
      vertex 86 1.4 12
      vertex 86 23.2 22.4
      vertex 86 1.4 22.4
    endloop
  endfacet
  facet normal 1 0 0
    outer loop
      vertex 86 23.2 22.4
      vertex 86 1.4 12
      vertex 86 23.2 0
    endloop
  endfacet
  facet normal 1 -0 0
    outer loop
      vertex 86 1.33933 10.765
      vertex 86 23.2 0
      vertex 86 1.4 12
    endloop
  endfacet
  facet normal 1 -0 0
    outer loop
      vertex 86 1.15789 9.54186
      vertex 86 23.2 0
      vertex 86 1.33933 10.765
    endloop
  endfacet
  facet normal 1 -0 0
    outer loop
      vertex 86 0.857447 8.34241
      vertex 86 23.2 0
      vertex 86 1.15789 9.54186
    endloop
  endfacet
  facet normal 1 -0 0
    outer loop
      vertex 86 0.440882 7.17819
      vertex 86 23.2 0
      vertex 86 0.857447 8.34241
    endloop
  endfacet
  facet normal 1 -0 0
    outer loop
      vertex 86 -0.0877926 6.0604
      vertex 86 23.2 0
      vertex 86 0.440882 7.17819
    endloop
  endfacet
  facet normal 1 -0 0
    outer loop
      vertex 86 -0.723483 4.99982
      vertex 86 23.2 0
      vertex 86 -0.0877926 6.0604
    endloop
  endfacet
  facet normal 1 -0 0
    outer loop
      vertex 86 -1.46007 4.00665
      vertex 86 23.2 0
      vertex 86 -0.723483 4.99982
    endloop
  endfacet
  facet normal 1 -0 0
    outer loop
      vertex 86 -2.29046 3.09046
      vertex 86 23.2 0
      vertex 86 -1.46007 4.00665
    endloop
  endfacet
  facet normal 1 -0 0
    outer loop
      vertex 86 -3.20665 2.26007
      vertex 86 23.2 0
      vertex 86 -2.29046 3.09046
    endloop
  endfacet
  facet normal 1 -0 0
    outer loop
      vertex 86 -4.19982 1.52348
      vertex 86 23.2 0
      vertex 86 -3.20665 2.26007
    endloop
  endfacet
  facet normal 1 -0 0
    outer loop
      vertex 86 -5.2604 0.887793
      vertex 86 23.2 0
      vertex 86 -4.19982 1.52348
    endloop
  endfacet
  facet normal 1 -0 0
    outer loop
      vertex 86 -6.37819 0.359118
      vertex 86 23.2 0
      vertex 86 -5.2604 0.887793
    endloop
  endfacet
  facet normal 1 0 0
    outer loop
      vertex 86 23.2 0
      vertex 86 -6.37819 0.359118
      vertex 86 -7.38186 0
    endloop
  endfacet
  facet normal 1 0 0
    outer loop
      vertex 86 -16.0218 0.359118
      vertex 86 -23.2 0
      vertex 86 -15.0181 0
    endloop
  endfacet
  facet normal 1 0 0
    outer loop
      vertex 86 -17.1396 0.887793
      vertex 86 -23.2 0
      vertex 86 -16.0218 0.359118
    endloop
  endfacet
  facet normal 1 0 0
    outer loop
      vertex 86 -18.2002 1.52348
      vertex 86 -23.2 0
      vertex 86 -17.1396 0.887793
    endloop
  endfacet
  facet normal 1 0 0
    outer loop
      vertex 86 -19.1934 2.26007
      vertex 86 -23.2 0
      vertex 86 -18.2002 1.52348
    endloop
  endfacet
  facet normal 1 0 0
    outer loop
      vertex 86 -20.1095 3.09046
      vertex 86 -23.2 0
      vertex 86 -19.1934 2.26007
    endloop
  endfacet
  facet normal 1 0 0
    outer loop
      vertex 86 -20.9399 4.00665
      vertex 86 -23.2 0
      vertex 86 -20.1095 3.09046
    endloop
  endfacet
  facet normal 1 0 0
    outer loop
      vertex 86 -21.6765 4.99982
      vertex 86 -23.2 0
      vertex 86 -20.9399 4.00665
    endloop
  endfacet
  facet normal 1 0 0
    outer loop
      vertex 86 -22.3122 6.0604
      vertex 86 -23.2 0
      vertex 86 -21.6765 4.99982
    endloop
  endfacet
  facet normal 1 0 0
    outer loop
      vertex 86 -22.8409 7.17819
      vertex 86 -23.2 0
      vertex 86 -22.3122 6.0604
    endloop
  endfacet
  facet normal 1 0 0
    outer loop
      vertex 86 -23.2 0
      vertex 86 -22.8409 7.17819
      vertex 86 -23.2 8.18186
    endloop
  endfacet
  facet normal 0 0 1
    outer loop
      vertex 86 23.2 22.4
      vertex 82.5 21.6 22.4
      vertex 86 1.4 22.4
    endloop
  endfacet
  facet normal -0 0 1
    outer loop
      vertex -58.5 23.2 22.4
      vertex 82.5 21.6 22.4
      vertex 86 23.2 22.4
    endloop
  endfacet
  facet normal 0 0 1
    outer loop
      vertex 82.5 21.6 22.4
      vertex -58.5 23.2 22.4
      vertex -58.5 21.6 22.4
    endloop
  endfacet
  facet normal 0 0 1
    outer loop
      vertex 86 1.4 22.4
      vertex 82.5 21.6 22.4
      vertex 82.5 1.4 22.4
    endloop
  endfacet
  facet normal 0 0 1
    outer loop
      vertex -82.5 -1.4 22.4
      vertex -86 -1.4 22.4
      vertex -82.5 -21.6 22.4
    endloop
  endfacet
  facet normal -0 0 1
    outer loop
      vertex -82.5 -21.6 22.4
      vertex 58.5 -23.2 22.4
      vertex 58.5 -21.6 22.4
    endloop
  endfacet
  facet normal 0 0 1
    outer loop
      vertex -82.5 -21.6 22.4
      vertex -86 -23.2 22.4
      vertex 58.5 -23.2 22.4
    endloop
  endfacet
  facet normal 0 0 1
    outer loop
      vertex -86 -23.2 22.4
      vertex -82.5 -21.6 22.4
      vertex -86 -1.4 22.4
    endloop
  endfacet
  facet normal -0 0 1
    outer loop
      vertex -58.5 0.8 22.4
      vertex 58.5 -0.8 22.4
      vertex 58.5 0.8 22.4
    endloop
  endfacet
  facet normal 0 0 1
    outer loop
      vertex 58.5 -0.8 22.4
      vertex -58.5 0.8 22.4
      vertex -58.5 -0.8 22.4
    endloop
  endfacet
  facet normal 0 0 -1
    outer loop
      vertex 86 -23.2 0
      vertex 58.5 -15.0181 0
      vertex 86 -15.0181 0
    endloop
  endfacet
  facet normal 0 0 -1
    outer loop
      vertex 58.5 -15.0181 0
      vertex -58.5 7.38186 0
      vertex 58.5 -7.38186 0
    endloop
  endfacet
  facet normal 0 0 -1
    outer loop
      vertex -86 -23.2 0
      vertex 58.5 -15.0181 0
      vertex 86 -23.2 0
    endloop
  endfacet
  facet normal -0 0 -1
    outer loop
      vertex 58.5 -15.0181 0
      vertex -86 -23.2 0
      vertex -58.5 7.38186 0
    endloop
  endfacet
  facet normal -0 0 -1
    outer loop
      vertex -58.5 7.38186 0
      vertex -86 -23.2 0
      vertex -86 7.38186 0
    endloop
  endfacet
  facet normal 0 0 -1
    outer loop
      vertex 58.5 -7.38186 0
      vertex 86 23.2 0
      vertex 86 -7.38186 0
    endloop
  endfacet
  facet normal 0 0 -1
    outer loop
      vertex -58.5 15.0181 0
      vertex 58.5 -7.38186 0
      vertex -58.5 7.38186 0
    endloop
  endfacet
  facet normal 0 0 -1
    outer loop
      vertex 58.5 -7.38186 0
      vertex -58.5 15.0181 0
      vertex 86 23.2 0
    endloop
  endfacet
  facet normal 0 0 -1
    outer loop
      vertex -86 23.2 0
      vertex -58.5 15.0181 0
      vertex -86 15.0181 0
    endloop
  endfacet
  facet normal 0 0 -1
    outer loop
      vertex -58.5 15.0181 0
      vertex -86 23.2 0
      vertex 86 23.2 0
    endloop
  endfacet
  facet normal -1 0 0
    outer loop
      vertex -86 -23.2 0
      vertex -86 6.37819 0.359118
      vertex -86 7.38186 0
    endloop
  endfacet
  facet normal -1 0 0
    outer loop
      vertex -86 -23.2 0
      vertex -86 5.2604 0.887793
      vertex -86 6.37819 0.359118
    endloop
  endfacet
  facet normal -1 0 0
    outer loop
      vertex -86 -23.2 0
      vertex -86 4.19982 1.52348
      vertex -86 5.2604 0.887793
    endloop
  endfacet
  facet normal -1 0 0
    outer loop
      vertex -86 -23.2 0
      vertex -86 3.20665 2.26007
      vertex -86 4.19982 1.52348
    endloop
  endfacet
  facet normal -1 0 0
    outer loop
      vertex -86 -23.2 0
      vertex -86 2.29046 3.09046
      vertex -86 3.20665 2.26007
    endloop
  endfacet
  facet normal -1 0 0
    outer loop
      vertex -86 -23.2 0
      vertex -86 1.46007 4.00665
      vertex -86 2.29046 3.09046
    endloop
  endfacet
  facet normal -1 0 0
    outer loop
      vertex -86 -23.2 0
      vertex -86 0.723483 4.99982
      vertex -86 1.46007 4.00665
    endloop
  endfacet
  facet normal -1 0 0
    outer loop
      vertex -86 -23.2 0
      vertex -86 0.0877926 6.0604
      vertex -86 0.723483 4.99982
    endloop
  endfacet
  facet normal -1 0 0
    outer loop
      vertex -86 -23.2 0
      vertex -86 -0.440882 7.17819
      vertex -86 0.0877926 6.0604
    endloop
  endfacet
  facet normal -1 0 0
    outer loop
      vertex -86 -23.2 0
      vertex -86 -0.857447 8.34241
      vertex -86 -0.440882 7.17819
    endloop
  endfacet
  facet normal -1 0 0
    outer loop
      vertex -86 -23.2 0
      vertex -86 -1.15789 9.54186
      vertex -86 -0.857447 8.34241
    endloop
  endfacet
  facet normal -1 0 0
    outer loop
      vertex -86 -23.2 0
      vertex -86 -1.33933 10.765
      vertex -86 -1.15789 9.54186
    endloop
  endfacet
  facet normal -1 0 0
    outer loop
      vertex -86 -23.2 0
      vertex -86 -1.4 12
      vertex -86 -1.33933 10.765
    endloop
  endfacet
  facet normal -1 0 0
    outer loop
      vertex -86 -23.2 22.4
      vertex -86 -1.4 12
      vertex -86 -23.2 0
    endloop
  endfacet
  facet normal -1 0 0
    outer loop
      vertex -86 -1.4 12
      vertex -86 -23.2 22.4
      vertex -86 -1.4 22.4
    endloop
  endfacet
  facet normal -1 0 0
    outer loop
      vertex -86 23.2 0
      vertex -86 22.8409 7.17819
      vertex -86 23.2 8.18186
    endloop
  endfacet
  facet normal -1 0 0
    outer loop
      vertex -86 23.2 0
      vertex -86 22.3122 6.0604
      vertex -86 22.8409 7.17819
    endloop
  endfacet
  facet normal -1 0 0
    outer loop
      vertex -86 23.2 0
      vertex -86 21.6765 4.99982
      vertex -86 22.3122 6.0604
    endloop
  endfacet
  facet normal -1 0 0
    outer loop
      vertex -86 23.2 0
      vertex -86 20.9399 4.00665
      vertex -86 21.6765 4.99982
    endloop
  endfacet
  facet normal -1 0 0
    outer loop
      vertex -86 23.2 0
      vertex -86 20.1095 3.09046
      vertex -86 20.9399 4.00665
    endloop
  endfacet
  facet normal -1 0 0
    outer loop
      vertex -86 23.2 0
      vertex -86 19.1934 2.26007
      vertex -86 20.1095 3.09046
    endloop
  endfacet
  facet normal -1 0 0
    outer loop
      vertex -86 23.2 0
      vertex -86 18.2002 1.52348
      vertex -86 19.1934 2.26007
    endloop
  endfacet
  facet normal -1 0 0
    outer loop
      vertex -86 23.2 0
      vertex -86 17.1396 0.887793
      vertex -86 18.2002 1.52348
    endloop
  endfacet
  facet normal -1 0 0
    outer loop
      vertex -86 23.2 0
      vertex -86 16.0218 0.359118
      vertex -86 17.1396 0.887793
    endloop
  endfacet
  facet normal -1 0 -0
    outer loop
      vertex -86 16.0218 0.359118
      vertex -86 23.2 0
      vertex -86 15.0181 0
    endloop
  endfacet
  facet normal 0 1 0
    outer loop
      vertex 86 23.2 22.4
      vertex -58.5 23.2 8.18186
      vertex -58.5 23.2 22.4
    endloop
  endfacet
  facet normal 0 1 -0
    outer loop
      vertex 86 23.2 0
      vertex -58.5 23.2 8.18186
      vertex 86 23.2 22.4
    endloop
  endfacet
  facet normal 0 1 0
    outer loop
      vertex -86 23.2 0
      vertex -58.5 23.2 8.18186
      vertex 86 23.2 0
    endloop
  endfacet
  facet normal 0 1 0
    outer loop
      vertex -58.5 23.2 8.18186
      vertex -86 23.2 0
      vertex -86 23.2 8.18186
    endloop
  endfacet
  facet normal 0 -1 0
    outer loop
      vertex -86 -23.2 22.4
      vertex 58.5 -23.2 8.18186
      vertex 58.5 -23.2 22.4
    endloop
  endfacet
  facet normal 0 -1 0
    outer loop
      vertex -86 -23.2 0
      vertex 58.5 -23.2 8.18186
      vertex -86 -23.2 22.4
    endloop
  endfacet
  facet normal 0 -1 0
    outer loop
      vertex 86 -23.2 0
      vertex 58.5 -23.2 8.18186
      vertex -86 -23.2 0
    endloop
  endfacet
  facet normal 0 -1 0
    outer loop
      vertex 58.5 -23.2 8.18186
      vertex 86 -23.2 0
      vertex 86 -23.2 8.18186
    endloop
  endfacet
endsolid OpenSCAD_Model
