solid OpenSCAD_Model
  facet normal 1 -0 0
    outer loop
      vertex 86 11.6409 7.17819
      vertex 86 12 0
      vertex 86 12 8.18186
    endloop
  endfacet
  facet normal 1 -0 0
    outer loop
      vertex 86 11.1122 6.0604
      vertex 86 12 0
      vertex 86 11.6409 7.17819
    endloop
  endfacet
  facet normal 1 -0 0
    outer loop
      vertex 86 10.4765 4.99982
      vertex 86 12 0
      vertex 86 11.1122 6.0604
    endloop
  endfacet
  facet normal 1 -0 0
    outer loop
      vertex 86 9.73993 4.00665
      vertex 86 12 0
      vertex 86 10.4765 4.99982
    endloop
  endfacet
  facet normal 1 -0 0
    outer loop
      vertex 86 8.90954 3.09046
      vertex 86 12 0
      vertex 86 9.73993 4.00665
    endloop
  endfacet
  facet normal 1 -0 0
    outer loop
      vertex 86 7.99335 2.26007
      vertex 86 12 0
      vertex 86 8.90954 3.09046
    endloop
  endfacet
  facet normal 1 -0 0
    outer loop
      vertex 86 7.00018 1.52348
      vertex 86 12 0
      vertex 86 7.99335 2.26007
    endloop
  endfacet
  facet normal 1 -0 0
    outer loop
      vertex 86 5.9396 0.887793
      vertex 86 12 0
      vertex 86 7.00018 1.52348
    endloop
  endfacet
  facet normal 1 -0 0
    outer loop
      vertex 86 4.82181 0.359118
      vertex 86 12 0
      vertex 86 5.9396 0.887793
    endloop
  endfacet
  facet normal 1 0 0
    outer loop
      vertex 86 12 0
      vertex 86 4.82181 0.359118
      vertex 86 3.81814 0
    endloop
  endfacet
  facet normal 1 0 0
    outer loop
      vertex 86 -4.82181 0.359118
      vertex 86 -12 0
      vertex 86 -3.81814 0
    endloop
  endfacet
  facet normal 1 0 0
    outer loop
      vertex 86 -5.9396 0.887793
      vertex 86 -12 0
      vertex 86 -4.82181 0.359118
    endloop
  endfacet
  facet normal 1 0 0
    outer loop
      vertex 86 -7.00018 1.52348
      vertex 86 -12 0
      vertex 86 -5.9396 0.887793
    endloop
  endfacet
  facet normal 1 0 0
    outer loop
      vertex 86 -7.99335 2.26007
      vertex 86 -12 0
      vertex 86 -7.00018 1.52348
    endloop
  endfacet
  facet normal 1 0 0
    outer loop
      vertex 86 -8.90954 3.09046
      vertex 86 -12 0
      vertex 86 -7.99335 2.26007
    endloop
  endfacet
  facet normal 1 0 0
    outer loop
      vertex 86 -9.73993 4.00665
      vertex 86 -12 0
      vertex 86 -8.90954 3.09046
    endloop
  endfacet
  facet normal 1 0 0
    outer loop
      vertex 86 -10.4765 4.99982
      vertex 86 -12 0
      vertex 86 -9.73993 4.00665
    endloop
  endfacet
  facet normal 1 0 0
    outer loop
      vertex 86 -11.1122 6.0604
      vertex 86 -12 0
      vertex 86 -10.4765 4.99982
    endloop
  endfacet
  facet normal 1 0 0
    outer loop
      vertex 86 -11.6409 7.17819
      vertex 86 -12 0
      vertex 86 -11.1122 6.0604
    endloop
  endfacet
  facet normal 1 0 0
    outer loop
      vertex 86 -12 0
      vertex 86 -11.6409 7.17819
      vertex 86 -12 8.18186
    endloop
  endfacet
  facet normal -0 0 1
    outer loop
      vertex 5 12 22.4
      vertex 58.5 10.4 22.4
      vertex 58.5 12 22.4
    endloop
  endfacet
  facet normal -0 0 1
    outer loop
      vertex -3 16 22.4
      vertex 5 12 22.4
      vertex 3 16 22.4
    endloop
  endfacet
  facet normal 0 0 1
    outer loop
      vertex -5 12 22.4
      vertex 5 12 22.4
      vertex -3 16 22.4
    endloop
  endfacet
  facet normal -0 0 1
    outer loop
      vertex -5 12 22.4
      vertex 58.5 10.4 22.4
      vertex 5 12 22.4
    endloop
  endfacet
  facet normal 0 0 1
    outer loop
      vertex -5 12 22.4
      vertex -82.5 10.4 22.4
      vertex 58.5 10.4 22.4
    endloop
  endfacet
  facet normal 0 0 1
    outer loop
      vertex -82.5 10.4 22.4
      vertex -86 12 22.4
      vertex -82.5 -10.4 22.4
    endloop
  endfacet
  facet normal -0 0 1
    outer loop
      vertex -86 12 22.4
      vertex -82.5 10.4 22.4
      vertex -5 12 22.4
    endloop
  endfacet
  facet normal -0 0 1
    outer loop
      vertex -82.5 -10.4 22.4
      vertex -5.45222 -12 22.4
      vertex -4.65221 -10.4 22.4
    endloop
  endfacet
  facet normal 0 0 1
    outer loop
      vertex -82.5 -10.4 22.4
      vertex -86 -12 22.4
      vertex -5.45222 -12 22.4
    endloop
  endfacet
  facet normal 0 0 1
    outer loop
      vertex -86 -12 22.4
      vertex -82.5 -10.4 22.4
      vertex -86 12 22.4
    endloop
  endfacet
  facet normal 0 0 1
    outer loop
      vertex 58.5 -10.4 22.4
      vertex 5.45222 -12 22.4
      vertex 58.5 -12 22.4
    endloop
  endfacet
  facet normal 0 -0 1
    outer loop
      vertex 5.45222 -12 22.4
      vertex 58.5 -10.4 22.4
      vertex 4.65221 -10.4 22.4
    endloop
  endfacet
  facet normal 0 0 -1
    outer loop
      vertex 86 -12 0
      vertex 58.5 -3.81814 0
      vertex 86 -3.81814 0
    endloop
  endfacet
  facet normal -0 0 -1
    outer loop
      vertex 58.5 -3.81814 0
      vertex 5.45222 -12 0
      vertex 58.5 3.81814 0
    endloop
  endfacet
  facet normal 0 0 -1
    outer loop
      vertex 5.45222 -12 0
      vertex 58.5 -3.81814 0
      vertex 86 -12 0
    endloop
  endfacet
  facet normal 0 0 -1
    outer loop
      vertex 58.5 3.81814 0
      vertex 86 12 0
      vertex 86 3.81814 0
    endloop
  endfacet
  facet normal 0 0 -1
    outer loop
      vertex 58.5 3.81814 0
      vertex 5 12 0
      vertex 86 12 0
    endloop
  endfacet
  facet normal 0 0 -1
    outer loop
      vertex 5.45222 -12 0
      vertex 5 12 0
      vertex 58.5 3.81814 0
    endloop
  endfacet
  facet normal 0 0 -1
    outer loop
      vertex 3.24721 -7.59001 0
      vertex 5 12 0
      vertex 5.45222 -12 0
    endloop
  endfacet
  facet normal 0 0 -1
    outer loop
      vertex -5 12 0
      vertex 5 12 0
      vertex 3.24721 -7.59001 0
    endloop
  endfacet
  facet normal 0 0 -1
    outer loop
      vertex 5 12 0
      vertex -5 12 0
      vertex 3 16 0
    endloop
  endfacet
  facet normal 0 0 -1
    outer loop
      vertex -5 12 0
      vertex 3.24721 -7.59001 0
      vertex -3.24721 -7.59001 0
    endloop
  endfacet
  facet normal -0 0 -1
    outer loop
      vertex 3 16 0
      vertex -5 12 0
      vertex -3 16 0
    endloop
  endfacet
  facet normal 0 0 -1
    outer loop
      vertex -5.45222 -12 0
      vertex -5 12 0
      vertex -3.24721 -7.59001 0
    endloop
  endfacet
  facet normal 0 0 -1
    outer loop
      vertex -86 12 0
      vertex -5.45222 -12 0
      vertex -86 -12 0
    endloop
  endfacet
  facet normal 0 0 -1
    outer loop
      vertex -5.45222 -12 0
      vertex -86 12 0
      vertex -5 12 0
    endloop
  endfacet
  facet normal -1 0 0
    outer loop
      vertex -86 -12 0
      vertex -86 12 22.4
      vertex -86 12 0
    endloop
  endfacet
  facet normal -1 -0 0
    outer loop
      vertex -86 12 22.4
      vertex -86 -12 0
      vertex -86 -12 22.4
    endloop
  endfacet
  facet normal 0 1 -0
    outer loop
      vertex -5 12 0
      vertex -86 12 22.4
      vertex -5 12 22.4
    endloop
  endfacet
  facet normal 0 1 0
    outer loop
      vertex -86 12 22.4
      vertex -5 12 0
      vertex -86 12 0
    endloop
  endfacet
  facet normal 0 1 0
    outer loop
      vertex 86 12 8.18186
      vertex 86 12 0
      vertex 58.5 12 8.18186
    endloop
  endfacet
  facet normal 0 1 -0
    outer loop
      vertex 58.5 12 8.18186
      vertex 5 12 22.4
      vertex 58.5 12 22.4
    endloop
  endfacet
  facet normal 0 1 0
    outer loop
      vertex 5 12 0
      vertex 58.5 12 8.18186
      vertex 86 12 0
    endloop
  endfacet
  facet normal 0 1 0
    outer loop
      vertex 58.5 12 8.18186
      vertex 5 12 0
      vertex 5 12 22.4
    endloop
  endfacet
  facet normal 0 -1 0
    outer loop
      vertex -86 -12 0
      vertex -5.45222 -12 22.4
      vertex -86 -12 22.4
    endloop
  endfacet
  facet normal 0 -1 -0
    outer loop
      vertex -5.45222 -12 22.4
      vertex -86 -12 0
      vertex -5.45222 -12 0
    endloop
  endfacet
  facet normal 0 -1 0
    outer loop
      vertex 5.45222 -12 22.4
      vertex 58.5 -12 8.18186
      vertex 58.5 -12 22.4
    endloop
  endfacet
  facet normal 0 -1 0
    outer loop
      vertex 5.45222 -12 0
      vertex 58.5 -12 8.18186
      vertex 5.45222 -12 22.4
    endloop
  endfacet
  facet normal 0 -1 0
    outer loop
      vertex 86 -12 0
      vertex 58.5 -12 8.18186
      vertex 5.45222 -12 0
    endloop
  endfacet
  facet normal 0 -1 0
    outer loop
      vertex 58.5 -12 8.18186
      vertex 86 -12 0
      vertex 86 -12 8.18186
    endloop
  endfacet
  facet normal 0.894427 0.447214 0
    outer loop
      vertex 5 12 22.4
      vertex 3 16 0
      vertex 3 16 22.4
    endloop
  endfacet
  facet normal 0.894427 0.447214 0
    outer loop
      vertex 3 16 0
      vertex 5 12 22.4
      vertex 5 12 0
    endloop
  endfacet
  facet normal -0.894427 0.447214 0
    outer loop
      vertex -5 12 0
      vertex -3 16 22.4
      vertex -3 16 0
    endloop
  endfacet
  facet normal -0.894427 0.447214 0
    outer loop
      vertex -3 16 22.4
      vertex -5 12 0
      vertex -5 12 22.4
    endloop
  endfacet
  facet normal 0 1 -0
    outer loop
      vertex 3 16 0
      vertex -3 16 22.4
      vertex 3 16 22.4
    endloop
  endfacet
  facet normal 0 1 0
    outer loop
      vertex -3 16 22.4
      vertex 3 16 0
      vertex -3 16 0
    endloop
  endfacet
  facet normal -0 0.0490687 0.998795
    outer loop
      vertex -82.5 0 1.6
      vertex 58.5 -1.01938 1.65008
      vertex 58.5 0 1.6
    endloop
  endfacet
  facet normal 0 0.0490687 0.998795
    outer loop
      vertex 58.5 -1.01938 1.65008
      vertex -82.5 0 1.6
      vertex -82.5 -1.01938 1.65008
    endloop
  endfacet
  facet normal -0 0.903988 0.427558
    outer loop
      vertex -82.5 -9.17198 7.09747
      vertex -4.25638 -9.60835 8.02009
      vertex -4.0382 -9.17198 7.09747
    endloop
  endfacet
  facet normal 0 0.903988 0.427558
    outer loop
      vertex -4.25638 -9.60835 8.02009
      vertex -82.5 -9.17198 7.09747
      vertex -82.5 -9.60835 8.02009
    endloop
  endfacet
  facet normal 0 0.903988 0.427558
    outer loop
      vertex 58.5 -9.17198 7.09747
      vertex 4.25638 -9.60835 8.02009
      vertex 58.5 -9.60835 8.02009
    endloop
  endfacet
  facet normal 0 0.903988 0.427558
    outer loop
      vertex 4.25638 -9.60835 8.02009
      vertex 58.5 -9.17198 7.09747
      vertex 4.0382 -9.17198 7.09747
    endloop
  endfacet
  facet normal -0 0.80321 0.595696
    outer loop
      vertex -82.5 -8.03931 5.40231
      vertex -3.77585 -8.64728 6.22207
      vertex -3.47186 -8.03931 5.40231
    endloop
  endfacet
  facet normal 0 0.80321 0.595696
    outer loop
      vertex -3.77585 -8.64728 6.22207
      vertex -82.5 -8.03931 5.40231
      vertex -82.5 -8.64728 6.22207
    endloop
  endfacet
  facet normal 0 0.80321 0.595696
    outer loop
      vertex 58.5 -8.03931 5.40231
      vertex 3.77585 -8.64728 6.22207
      vertex 58.5 -8.64728 6.22207
    endloop
  endfacet
  facet normal 0 0.80321 0.595696
    outer loop
      vertex 3.77585 -8.64728 6.22207
      vertex 58.5 -8.03931 5.40231
      vertex 3.47186 -8.03931 5.40231
    endloop
  endfacet
  facet normal 0 -0.0490687 0.998795
    outer loop
      vertex -82.5 1.01938 1.65008
      vertex 58.5 0 1.6
      vertex 58.5 1.01938 1.65008
    endloop
  endfacet
  facet normal 0 -0.0490687 0.998795
    outer loop
      vertex 58.5 0 1.6
      vertex -82.5 1.01938 1.65008
      vertex -82.5 0 1.6
    endloop
  endfacet
  facet normal 0 -0.74095 0.67156
    outer loop
      vertex -82.5 7.35391 4.64609
      vertex 58.5 8.03931 5.40231
      vertex -82.5 8.03931 5.40231
    endloop
  endfacet
  facet normal 0 -0.74095 0.67156
    outer loop
      vertex 58.5 8.03931 5.40231
      vertex -82.5 7.35391 4.64609
      vertex 58.5 7.35391 4.64609
    endloop
  endfacet
  facet normal 0 -0.941545 0.336887
    outer loop
      vertex -82.5 9.60835 8.02009
      vertex 58.5 9.95218 8.98104
      vertex -82.5 9.95218 8.98104
    endloop
  endfacet
  facet normal 0 -0.941545 0.336887
    outer loop
      vertex 58.5 9.95218 8.98104
      vertex -82.5 9.60835 8.02009
      vertex 58.5 9.60835 8.02009
    endloop
  endfacet
  facet normal -0 0.857726 0.514107
    outer loop
      vertex -82.5 -8.64728 6.22207
      vertex -4.0382 -9.17198 7.09747
      vertex -3.77585 -8.64728 6.22207
    endloop
  endfacet
  facet normal 0 0.857726 0.514107
    outer loop
      vertex -4.0382 -9.17198 7.09747
      vertex -82.5 -8.64728 6.22207
      vertex -82.5 -9.17198 7.09747
    endloop
  endfacet
  facet normal 0 0.857726 0.514107
    outer loop
      vertex 58.5 -8.64728 6.22207
      vertex 4.0382 -9.17198 7.09747
      vertex 58.5 -9.17198 7.09747
    endloop
  endfacet
  facet normal 0 0.857726 0.514107
    outer loop
      vertex 4.0382 -9.17198 7.09747
      vertex 58.5 -8.64728 6.22207
      vertex 3.77585 -8.64728 6.22207
    endloop
  endfacet
  facet normal -0 0.998794 0.0490873
    outer loop
      vertex -82.5 -10.3499 10.9806
      vertex -4.65221 -10.4 12
      vertex -4.62717 -10.3499 10.9806
    endloop
  endfacet
  facet normal 0 0.998794 0.0490873
    outer loop
      vertex -4.65221 -10.4 12
      vertex -82.5 -10.3499 10.9806
      vertex -82.5 -10.4 12
    endloop
  endfacet
  facet normal 0 0.998794 0.0490873
    outer loop
      vertex 58.5 -10.3499 10.9806
      vertex 4.65221 -10.4 12
      vertex 58.5 -10.4 12
    endloop
  endfacet
  facet normal 0 0.998794 0.0490873
    outer loop
      vertex 4.65221 -10.4 12
      vertex 58.5 -10.3499 10.9806
      vertex 4.62717 -10.3499 10.9806
    endloop
  endfacet
  facet normal -0 0.146727 0.989177
    outer loop
      vertex -82.5 -1.01938 1.65008
      vertex 58.5 -2.02894 1.79983
      vertex 58.5 -1.01938 1.65008
    endloop
  endfacet
  facet normal 0 0.146727 0.989177
    outer loop
      vertex 58.5 -2.02894 1.79983
      vertex -82.5 -1.01938 1.65008
      vertex -82.5 -2.02894 1.79983
    endloop
  endfacet
  facet normal -0 0.970024 0.243011
    outer loop
      vertex -82.5 -9.95218 8.98104
      vertex -4.5523 -10.2002 9.97106
      vertex -4.4283 -9.95218 8.98104
    endloop
  endfacet
  facet normal 0 0.970024 0.243011
    outer loop
      vertex -4.5523 -10.2002 9.97106
      vertex -82.5 -9.95218 8.98104
      vertex -82.5 -10.2002 9.97106
    endloop
  endfacet
  facet normal 0 0.970024 0.243011
    outer loop
      vertex 58.5 -9.95218 8.98104
      vertex 4.5523 -10.2002 9.97106
      vertex 58.5 -10.2002 9.97106
    endloop
  endfacet
  facet normal 0 0.970024 0.243011
    outer loop
      vertex 4.5523 -10.2002 9.97106
      vertex 58.5 -9.95218 8.98104
      vertex 4.4283 -9.95218 8.98104
    endloop
  endfacet
  facet normal 0 -0.989184 0.146681
    outer loop
      vertex -82.5 10.2002 9.97106
      vertex 58.5 10.3499 10.9806
      vertex -82.5 10.3499 10.9806
    endloop
  endfacet
  facet normal 0 -0.989184 0.146681
    outer loop
      vertex 58.5 10.3499 10.9806
      vertex -82.5 10.2002 9.97106
      vertex 58.5 10.2002 9.97106
    endloop
  endfacet
  facet normal -0 0.595696 0.80321
    outer loop
      vertex -82.5 -5.77793 3.35272
      vertex 58.5 -6.59769 3.96069
      vertex 58.5 -5.77793 3.35272
    endloop
  endfacet
  facet normal 0 0.595696 0.80321
    outer loop
      vertex 58.5 -6.59769 3.96069
      vertex -82.5 -5.77793 3.35272
      vertex -82.5 -6.59769 3.96069
    endloop
  endfacet
  facet normal -0 0.336887 0.941545
    outer loop
      vertex -82.5 -3.01896 2.04782
      vertex 58.5 -3.97991 2.39165
      vertex 58.5 -3.01896 2.04782
    endloop
  endfacet
  facet normal 0 0.336887 0.941545
    outer loop
      vertex 58.5 -3.97991 2.39165
      vertex -82.5 -3.01896 2.04782
      vertex -82.5 -3.97991 2.39165
    endloop
  endfacet
  facet normal 0 -0.857726 0.514107
    outer loop
      vertex -82.5 8.64728 6.22207
      vertex 58.5 9.17198 7.09747
      vertex -82.5 9.17198 7.09747
    endloop
  endfacet
  facet normal 0 -0.857726 0.514107
    outer loop
      vertex 58.5 9.17198 7.09747
      vertex -82.5 8.64728 6.22207
      vertex 58.5 8.64728 6.22207
    endloop
  endfacet
  facet normal 0 -0.146727 0.989177
    outer loop
      vertex -82.5 2.02894 1.79983
      vertex 58.5 1.01938 1.65008
      vertex 58.5 2.02894 1.79983
    endloop
  endfacet
  facet normal 0 -0.146727 0.989177
    outer loop
      vertex 58.5 1.01938 1.65008
      vertex -82.5 2.02894 1.79983
      vertex -82.5 1.01938 1.65008
    endloop
  endfacet
  facet normal 1 0 0
    outer loop
      vertex -82.5 -10.4 12
      vertex -82.5 10.4 12
      vertex -82.5 10.4 22.4
    endloop
  endfacet
  facet normal 1 0 0
    outer loop
      vertex -82.5 10.4 12
      vertex -82.5 -10.4 12
      vertex -82.5 10.3499 10.9806
    endloop
  endfacet
  facet normal 1 0 0
    outer loop
      vertex -82.5 10.3499 10.9806
      vertex -82.5 -10.4 12
      vertex -82.5 10.2002 9.97106
    endloop
  endfacet
  facet normal 1 0 0
    outer loop
      vertex -82.5 10.2002 9.97106
      vertex -82.5 -10.4 12
      vertex -82.5 9.95218 8.98104
    endloop
  endfacet
  facet normal 1 0 0
    outer loop
      vertex -82.5 9.95218 8.98104
      vertex -82.5 -10.4 12
      vertex -82.5 9.60835 8.02009
    endloop
  endfacet
  facet normal 1 0 0
    outer loop
      vertex -82.5 9.60835 8.02009
      vertex -82.5 -10.4 12
      vertex -82.5 9.17198 7.09747
    endloop
  endfacet
  facet normal 1 0 0
    outer loop
      vertex -82.5 9.17198 7.09747
      vertex -82.5 -10.4 12
      vertex -82.5 8.64728 6.22207
    endloop
  endfacet
  facet normal 1 0 0
    outer loop
      vertex -82.5 8.64728 6.22207
      vertex -82.5 -10.4 12
      vertex -82.5 8.03931 5.40231
    endloop
  endfacet
  facet normal 1 0 0
    outer loop
      vertex -82.5 8.03931 5.40231
      vertex -82.5 -10.4 12
      vertex -82.5 7.35391 4.64609
    endloop
  endfacet
  facet normal 1 0 0
    outer loop
      vertex -82.5 7.35391 4.64609
      vertex -82.5 -10.4 12
      vertex -82.5 6.59769 3.96069
    endloop
  endfacet
  facet normal 1 0 0
    outer loop
      vertex -82.5 6.59769 3.96069
      vertex -82.5 -10.4 12
      vertex -82.5 5.77793 3.35272
    endloop
  endfacet
  facet normal 1 0 0
    outer loop
      vertex -82.5 5.77793 3.35272
      vertex -82.5 -10.4 12
      vertex -82.5 4.90253 2.82802
    endloop
  endfacet
  facet normal 1 0 0
    outer loop
      vertex -82.5 4.90253 2.82802
      vertex -82.5 -10.4 12
      vertex -82.5 3.97991 2.39165
    endloop
  endfacet
  facet normal 1 0 0
    outer loop
      vertex -82.5 3.97991 2.39165
      vertex -82.5 -10.4 12
      vertex -82.5 3.01896 2.04782
    endloop
  endfacet
  facet normal 1 0 0
    outer loop
      vertex -82.5 3.01896 2.04782
      vertex -82.5 -10.4 12
      vertex -82.5 2.02894 1.79983
    endloop
  endfacet
  facet normal 1 0 0
    outer loop
      vertex -82.5 2.02894 1.79983
      vertex -82.5 -10.4 12
      vertex -82.5 1.01938 1.65008
    endloop
  endfacet
  facet normal 1 0 0
    outer loop
      vertex -82.5 1.01938 1.65008
      vertex -82.5 -10.4 12
      vertex -82.5 0 1.6
    endloop
  endfacet
  facet normal 1 0 0
    outer loop
      vertex -82.5 0 1.6
      vertex -82.5 -10.4 12
      vertex -82.5 -1.01938 1.65008
    endloop
  endfacet
  facet normal 1 0 0
    outer loop
      vertex -82.5 -1.01938 1.65008
      vertex -82.5 -10.4 12
      vertex -82.5 -2.02894 1.79983
    endloop
  endfacet
  facet normal 1 0 0
    outer loop
      vertex -82.5 -2.02894 1.79983
      vertex -82.5 -10.4 12
      vertex -82.5 -3.01896 2.04782
    endloop
  endfacet
  facet normal 1 0 0
    outer loop
      vertex -82.5 -3.01896 2.04782
      vertex -82.5 -10.4 12
      vertex -82.5 -3.97991 2.39165
    endloop
  endfacet
  facet normal 1 0 0
    outer loop
      vertex -82.5 -3.97991 2.39165
      vertex -82.5 -10.4 12
      vertex -82.5 -4.90253 2.82802
    endloop
  endfacet
  facet normal 1 0 0
    outer loop
      vertex -82.5 -4.90253 2.82802
      vertex -82.5 -10.4 12
      vertex -82.5 -5.77793 3.35272
    endloop
  endfacet
  facet normal 1 0 0
    outer loop
      vertex -82.5 -5.77793 3.35272
      vertex -82.5 -10.4 12
      vertex -82.5 -6.59769 3.96069
    endloop
  endfacet
  facet normal 1 0 0
    outer loop
      vertex -82.5 -6.59769 3.96069
      vertex -82.5 -10.4 12
      vertex -82.5 -7.35391 4.64609
    endloop
  endfacet
  facet normal 1 0 0
    outer loop
      vertex -82.5 -7.35391 4.64609
      vertex -82.5 -10.4 12
      vertex -82.5 -8.03931 5.40231
    endloop
  endfacet
  facet normal 1 0 0
    outer loop
      vertex -82.5 -8.03931 5.40231
      vertex -82.5 -10.4 12
      vertex -82.5 -8.64728 6.22207
    endloop
  endfacet
  facet normal 1 0 0
    outer loop
      vertex -82.5 -8.64728 6.22207
      vertex -82.5 -10.4 12
      vertex -82.5 -9.17198 7.09747
    endloop
  endfacet
  facet normal 1 0 0
    outer loop
      vertex -82.5 -9.17198 7.09747
      vertex -82.5 -10.4 12
      vertex -82.5 -9.60835 8.02009
    endloop
  endfacet
  facet normal 1 0 0
    outer loop
      vertex -82.5 -9.60835 8.02009
      vertex -82.5 -10.4 12
      vertex -82.5 -9.95218 8.98104
    endloop
  endfacet
  facet normal 1 0 0
    outer loop
      vertex -82.5 -9.95218 8.98104
      vertex -82.5 -10.4 12
      vertex -82.5 -10.2002 9.97106
    endloop
  endfacet
  facet normal 1 0 0
    outer loop
      vertex -82.5 -10.4 12
      vertex -82.5 10.4 22.4
      vertex -82.5 -10.4 22.4
    endloop
  endfacet
  facet normal 1 0 0
    outer loop
      vertex -82.5 -10.2002 9.97106
      vertex -82.5 -10.4 12
      vertex -82.5 -10.3499 10.9806
    endloop
  endfacet
  facet normal 0 -0.242983 0.970031
    outer loop
      vertex -82.5 3.01896 2.04782
      vertex 58.5 2.02894 1.79983
      vertex 58.5 3.01896 2.04782
    endloop
  endfacet
  facet normal 0 -0.242983 0.970031
    outer loop
      vertex 58.5 2.02894 1.79983
      vertex -82.5 3.01896 2.04782
      vertex -82.5 2.02894 1.79983
    endloop
  endfacet
  facet normal 0 -0.903988 0.427558
    outer loop
      vertex -82.5 9.17198 7.09747
      vertex 58.5 9.60835 8.02009
      vertex -82.5 9.60835 8.02009
    endloop
  endfacet
  facet normal 0 -0.903988 0.427558
    outer loop
      vertex 58.5 9.60835 8.02009
      vertex -82.5 9.17198 7.09747
      vertex 58.5 9.17198 7.09747
    endloop
  endfacet
  facet normal -0 0.67156 0.74095
    outer loop
      vertex -82.5 -6.59769 3.96069
      vertex 58.5 -7.35391 4.64609
      vertex 58.5 -6.59769 3.96069
    endloop
  endfacet
  facet normal 0 0.67156 0.74095
    outer loop
      vertex 58.5 -7.35391 4.64609
      vertex -82.5 -6.59769 3.96069
      vertex -82.5 -7.35391 4.64609
    endloop
  endfacet
  facet normal 0 -0.67156 0.74095
    outer loop
      vertex -82.5 7.35391 4.64609
      vertex 58.5 6.59769 3.96069
      vertex 58.5 7.35391 4.64609
    endloop
  endfacet
  facet normal 0 -0.67156 0.74095
    outer loop
      vertex 58.5 6.59769 3.96069
      vertex -82.5 7.35391 4.64609
      vertex -82.5 6.59769 3.96069
    endloop
  endfacet
  facet normal 0 -0.514107 0.857726
    outer loop
      vertex -82.5 5.77793 3.35272
      vertex 58.5 4.90253 2.82802
      vertex 58.5 5.77793 3.35272
    endloop
  endfacet
  facet normal 0 -0.514107 0.857726
    outer loop
      vertex 58.5 4.90253 2.82802
      vertex -82.5 5.77793 3.35272
      vertex -82.5 4.90253 2.82802
    endloop
  endfacet
  facet normal 0 -0.595696 0.80321
    outer loop
      vertex -82.5 6.59769 3.96069
      vertex 58.5 5.77793 3.35272
      vertex 58.5 6.59769 3.96069
    endloop
  endfacet
  facet normal 0 -0.595696 0.80321
    outer loop
      vertex 58.5 5.77793 3.35272
      vertex -82.5 6.59769 3.96069
      vertex -82.5 5.77793 3.35272
    endloop
  endfacet
  facet normal 0 -0.336887 0.941545
    outer loop
      vertex -82.5 3.97991 2.39165
      vertex 58.5 3.01896 2.04782
      vertex 58.5 3.97991 2.39165
    endloop
  endfacet
  facet normal 0 -0.336887 0.941545
    outer loop
      vertex 58.5 3.01896 2.04782
      vertex -82.5 3.97991 2.39165
      vertex -82.5 3.01896 2.04782
    endloop
  endfacet
  facet normal 0 -0.427558 0.903988
    outer loop
      vertex -82.5 4.90253 2.82802
      vertex 58.5 3.97991 2.39165
      vertex 58.5 4.90253 2.82802
    endloop
  endfacet
  facet normal 0 -0.427558 0.903988
    outer loop
      vertex 58.5 3.97991 2.39165
      vertex -82.5 4.90253 2.82802
      vertex -82.5 3.97991 2.39165
    endloop
  endfacet
  facet normal -0 0.242983 0.970031
    outer loop
      vertex -82.5 -2.02894 1.79983
      vertex 58.5 -3.01896 2.04782
      vertex 58.5 -2.02894 1.79983
    endloop
  endfacet
  facet normal 0 0.242983 0.970031
    outer loop
      vertex 58.5 -3.01896 2.04782
      vertex -82.5 -2.02894 1.79983
      vertex -82.5 -3.01896 2.04782
    endloop
  endfacet
  facet normal -0 0.989184 0.146681
    outer loop
      vertex -82.5 -10.2002 9.97106
      vertex -4.62717 -10.3499 10.9806
      vertex -4.5523 -10.2002 9.97106
    endloop
  endfacet
  facet normal 0 0.989184 0.146681
    outer loop
      vertex -4.62717 -10.3499 10.9806
      vertex -82.5 -10.2002 9.97106
      vertex -82.5 -10.3499 10.9806
    endloop
  endfacet
  facet normal 0 0.989184 0.146681
    outer loop
      vertex 58.5 -10.2002 9.97106
      vertex 4.62717 -10.3499 10.9806
      vertex 58.5 -10.3499 10.9806
    endloop
  endfacet
  facet normal 0 0.989184 0.146681
    outer loop
      vertex 4.62717 -10.3499 10.9806
      vertex 58.5 -10.2002 9.97106
      vertex 4.5523 -10.2002 9.97106
    endloop
  endfacet
  facet normal 0 -0.998794 0.0490873
    outer loop
      vertex -82.5 10.3499 10.9806
      vertex 58.5 10.4 12
      vertex -82.5 10.4 12
    endloop
  endfacet
  facet normal 0 -0.998794 0.0490873
    outer loop
      vertex 58.5 10.4 12
      vertex -82.5 10.3499 10.9806
      vertex 58.5 10.3499 10.9806
    endloop
  endfacet
  facet normal 0 -0.80321 0.595696
    outer loop
      vertex -82.5 8.03931 5.40231
      vertex 58.5 8.64728 6.22207
      vertex -82.5 8.64728 6.22207
    endloop
  endfacet
  facet normal 0 -0.80321 0.595696
    outer loop
      vertex 58.5 8.64728 6.22207
      vertex -82.5 8.03931 5.40231
      vertex 58.5 8.03931 5.40231
    endloop
  endfacet
  facet normal 0 0.74095 0.67156
    outer loop
      vertex 58.5 -7.35391 4.64609
      vertex 3.47186 -8.03931 5.40231
      vertex 58.5 -8.03931 5.40231
    endloop
  endfacet
  facet normal 0 0.740943 0.671568
    outer loop
      vertex 3.24721 -7.59001 4.90658
      vertex 58.5 -7.35391 4.64609
      vertex -3.24721 -7.59001 4.90658
    endloop
  endfacet
  facet normal -9.97693e-08 0.740954 0.671556
    outer loop
      vertex 3.47186 -8.03931 5.40231
      vertex 58.5 -7.35391 4.64609
      vertex 3.24721 -7.59001 4.90658
    endloop
  endfacet
  facet normal 6.96012e-08 0.740954 0.671556
    outer loop
      vertex -82.5 -7.35391 4.64609
      vertex -3.47186 -8.03931 5.40231
      vertex -3.24721 -7.59001 4.90658
    endloop
  endfacet
  facet normal 0 0.74095 0.67156
    outer loop
      vertex -3.47186 -8.03931 5.40231
      vertex -82.5 -7.35391 4.64609
      vertex -82.5 -8.03931 5.40231
    endloop
  endfacet
  facet normal -0 0.740943 0.671568
    outer loop
      vertex -82.5 -7.35391 4.64609
      vertex -3.24721 -7.59001 4.90658
      vertex 58.5 -7.35391 4.64609
    endloop
  endfacet
  facet normal -0 0.941545 0.336887
    outer loop
      vertex -82.5 -9.60835 8.02009
      vertex -4.4283 -9.95218 8.98104
      vertex -4.25638 -9.60835 8.02009
    endloop
  endfacet
  facet normal 0 0.941545 0.336887
    outer loop
      vertex -4.4283 -9.95218 8.98104
      vertex -82.5 -9.60835 8.02009
      vertex -82.5 -9.95218 8.98104
    endloop
  endfacet
  facet normal 0 0.941545 0.336887
    outer loop
      vertex 58.5 -9.60835 8.02009
      vertex 4.4283 -9.95218 8.98104
      vertex 58.5 -9.95218 8.98104
    endloop
  endfacet
  facet normal 0 0.941545 0.336887
    outer loop
      vertex 4.4283 -9.95218 8.98104
      vertex 58.5 -9.60835 8.02009
      vertex 4.25638 -9.60835 8.02009
    endloop
  endfacet
  facet normal -0 0.427558 0.903988
    outer loop
      vertex -82.5 -3.97991 2.39165
      vertex 58.5 -4.90253 2.82802
      vertex 58.5 -3.97991 2.39165
    endloop
  endfacet
  facet normal 0 0.427558 0.903988
    outer loop
      vertex 58.5 -4.90253 2.82802
      vertex -82.5 -3.97991 2.39165
      vertex -82.5 -4.90253 2.82802
    endloop
  endfacet
  facet normal -0 0.514107 0.857726
    outer loop
      vertex -82.5 -4.90253 2.82802
      vertex 58.5 -5.77793 3.35272
      vertex 58.5 -4.90253 2.82802
    endloop
  endfacet
  facet normal 0 0.514107 0.857726
    outer loop
      vertex 58.5 -5.77793 3.35272
      vertex -82.5 -4.90253 2.82802
      vertex -82.5 -5.77793 3.35272
    endloop
  endfacet
  facet normal 0 -0.970024 0.243011
    outer loop
      vertex -82.5 9.95218 8.98104
      vertex 58.5 10.2002 9.97106
      vertex -82.5 10.2002 9.97106
    endloop
  endfacet
  facet normal 0 -0.970024 0.243011
    outer loop
      vertex 58.5 10.2002 9.97106
      vertex -82.5 9.95218 8.98104
      vertex 58.5 9.95218 8.98104
    endloop
  endfacet
  facet normal 0 -1 0
    outer loop
      vertex -82.5 10.4 12
      vertex 58.5 10.4 22.4
      vertex -82.5 10.4 22.4
    endloop
  endfacet
  facet normal 0 -1 -0
    outer loop
      vertex 58.5 10.4 22.4
      vertex -82.5 10.4 12
      vertex 58.5 10.4 12
    endloop
  endfacet
  facet normal 0 1 -0
    outer loop
      vertex -4.65221 -10.4 12
      vertex -82.5 -10.4 22.4
      vertex -4.65221 -10.4 22.4
    endloop
  endfacet
  facet normal 0 1 0
    outer loop
      vertex -82.5 -10.4 22.4
      vertex -4.65221 -10.4 12
      vertex -82.5 -10.4 12
    endloop
  endfacet
  facet normal 0 1 -0
    outer loop
      vertex 58.5 -10.4 12
      vertex 4.65221 -10.4 22.4
      vertex 58.5 -10.4 22.4
    endloop
  endfacet
  facet normal 0 1 0
    outer loop
      vertex 4.65221 -10.4 22.4
      vertex 58.5 -10.4 12
      vertex 4.65221 -10.4 12
    endloop
  endfacet
  facet normal 0 -0.74095 0.671561
    outer loop
      vertex 58.5 8.90954 3.09046
      vertex 86 9.73993 4.00665
      vertex 58.5 9.73993 4.00665
    endloop
  endfacet
  facet normal 0 -0.74095 0.671561
    outer loop
      vertex 86 9.73993 4.00665
      vertex 58.5 8.90954 3.09046
      vertex 86 8.90954 3.09046
    endloop
  endfacet
  facet normal 0 -0.671561 0.74095
    outer loop
      vertex 58.5 8.90954 3.09046
      vertex 86 7.99335 2.26007
      vertex 86 8.90954 3.09046
    endloop
  endfacet
  facet normal 0 -0.671561 0.74095
    outer loop
      vertex 86 7.99335 2.26007
      vertex 58.5 8.90954 3.09046
      vertex 58.5 7.99335 2.26007
    endloop
  endfacet
  facet normal 0 -0.514103 0.857729
    outer loop
      vertex 58.5 7.00018 1.52348
      vertex 86 5.9396 0.887793
      vertex 86 7.00018 1.52348
    endloop
  endfacet
  facet normal 0 -0.514103 0.857729
    outer loop
      vertex 86 5.9396 0.887793
      vertex 58.5 7.00018 1.52348
      vertex 58.5 5.9396 0.887793
    endloop
  endfacet
  facet normal 0 -0.427555 0.903989
    outer loop
      vertex 58.5 5.9396 0.887793
      vertex 86 4.82181 0.359118
      vertex 86 5.9396 0.887793
    endloop
  endfacet
  facet normal 0 -0.427555 0.903989
    outer loop
      vertex 86 4.82181 0.359118
      vertex 58.5 5.9396 0.887793
      vertex 58.5 4.82181 0.359118
    endloop
  endfacet
  facet normal 0 -0.94155 0.336874
    outer loop
      vertex 58.5 11.6409 7.17819
      vertex 86 12 8.18186
      vertex 58.5 12 8.18186
    endloop
  endfacet
  facet normal 0 -0.94155 0.336874
    outer loop
      vertex 86 12 8.18186
      vertex 58.5 11.6409 7.17819
      vertex 86 11.6409 7.17819
    endloop
  endfacet
  facet normal 0 -0.803213 0.595691
    outer loop
      vertex 58.5 9.73993 4.00665
      vertex 86 10.4765 4.99982
      vertex 58.5 10.4765 4.99982
    endloop
  endfacet
  facet normal 0 -0.803213 0.595691
    outer loop
      vertex 86 10.4765 4.99982
      vertex 58.5 9.73993 4.00665
      vertex 86 9.73993 4.00665
    endloop
  endfacet
  facet normal 0 -0.857724 0.51411
    outer loop
      vertex 58.5 10.4765 4.99982
      vertex 86 11.1122 6.0604
      vertex 58.5 11.1122 6.0604
    endloop
  endfacet
  facet normal 0 -0.857724 0.51411
    outer loop
      vertex 86 11.1122 6.0604
      vertex 58.5 10.4765 4.99982
      vertex 86 10.4765 4.99982
    endloop
  endfacet
  facet normal -0 0.336889 0.941544
    outer loop
      vertex 58.5 -3.81814 0
      vertex 86 -4.82181 0.359118
      vertex 86 -3.81814 0
    endloop
  endfacet
  facet normal 0 0.336889 0.941544
    outer loop
      vertex 86 -4.82181 0.359118
      vertex 58.5 -3.81814 0
      vertex 58.5 -4.82181 0.359118
    endloop
  endfacet
  facet normal 0 -0.336889 0.941544
    outer loop
      vertex 58.5 4.82181 0.359118
      vertex 86 3.81814 0
      vertex 86 4.82181 0.359118
    endloop
  endfacet
  facet normal 0 -0.336889 0.941544
    outer loop
      vertex 86 3.81814 0
      vertex 58.5 4.82181 0.359118
      vertex 58.5 3.81814 0
    endloop
  endfacet
  facet normal 0 0.903982 0.427571
    outer loop
      vertex 86 -11.1122 6.0604
      vertex 58.5 -11.6409 7.17819
      vertex 86 -11.6409 7.17819
    endloop
  endfacet
  facet normal 0 0.903982 0.427571
    outer loop
      vertex 58.5 -11.6409 7.17819
      vertex 86 -11.1122 6.0604
      vertex 58.5 -11.1122 6.0604
    endloop
  endfacet
  facet normal 0 0.857724 0.51411
    outer loop
      vertex 86 -10.4765 4.99982
      vertex 58.5 -11.1122 6.0604
      vertex 86 -11.1122 6.0604
    endloop
  endfacet
  facet normal 0 0.857724 0.51411
    outer loop
      vertex 58.5 -11.1122 6.0604
      vertex 86 -10.4765 4.99982
      vertex 58.5 -10.4765 4.99982
    endloop
  endfacet
  facet normal 0 -0.903982 0.427571
    outer loop
      vertex 58.5 11.1122 6.0604
      vertex 86 11.6409 7.17819
      vertex 58.5 11.6409 7.17819
    endloop
  endfacet
  facet normal 0 -0.903982 0.427571
    outer loop
      vertex 86 11.6409 7.17819
      vertex 58.5 11.1122 6.0604
      vertex 86 11.1122 6.0604
    endloop
  endfacet
  facet normal 1 -0 0
    outer loop
      vertex 58.5 -12 22.4
      vertex 58.5 -10.4 12
      vertex 58.5 -10.4 22.4
    endloop
  endfacet
  facet normal 1 0 -0
    outer loop
      vertex 58.5 -11.6409 7.17819
      vertex 58.5 -10.4 12
      vertex 58.5 -12 8.18186
    endloop
  endfacet
  facet normal 1 0 0
    outer loop
      vertex 58.5 -10.4 12
      vertex 58.5 -11.1122 6.0604
      vertex 58.5 -10.4765 4.99982
    endloop
  endfacet
  facet normal 1 0 0
    outer loop
      vertex 58.5 -10.4 12
      vertex 58.5 -12 22.4
      vertex 58.5 -12 8.18186
    endloop
  endfacet
  facet normal 1 0 0
    outer loop
      vertex 58.5 -10.4 12
      vertex 58.5 -11.6409 7.17819
      vertex 58.5 -11.1122 6.0604
    endloop
  endfacet
  facet normal 1 -0 0
    outer loop
      vertex 58.5 10.4 12
      vertex 58.5 12 8.18186
      vertex 58.5 12 22.4
    endloop
  endfacet
  facet normal 1 -0 0
    outer loop
      vertex 58.5 10.3499 10.9806
      vertex 58.5 12 8.18186
      vertex 58.5 10.4 12
    endloop
  endfacet
  facet normal 1 -0 0
    outer loop
      vertex 58.5 10.2002 9.97106
      vertex 58.5 12 8.18186
      vertex 58.5 10.3499 10.9806
    endloop
  endfacet
  facet normal 1 0 0
    outer loop
      vertex 58.5 10.4 12
      vertex 58.5 12 22.4
      vertex 58.5 10.4 22.4
    endloop
  endfacet
  facet normal 1 -0 0
    outer loop
      vertex 58.5 9.95218 8.98104
      vertex 58.5 12 8.18186
      vertex 58.5 10.2002 9.97106
    endloop
  endfacet
  facet normal 1 0 0
    outer loop
      vertex 58.5 9.60835 8.02009
      vertex 58.5 12 8.18186
      vertex 58.5 9.95218 8.98104
    endloop
  endfacet
  facet normal 1 0 0
    outer loop
      vertex 58.5 12 8.18186
      vertex 58.5 9.60835 8.02009
      vertex 58.5 11.6409 7.17819
    endloop
  endfacet
  facet normal 1 0 0
    outer loop
      vertex 58.5 11.6409 7.17819
      vertex 58.5 9.60835 8.02009
      vertex 58.5 11.1122 6.0604
    endloop
  endfacet
  facet normal 1 -0 0
    outer loop
      vertex 58.5 9.17198 7.09747
      vertex 58.5 11.1122 6.0604
      vertex 58.5 9.60835 8.02009
    endloop
  endfacet
  facet normal 1 0 0
    outer loop
      vertex 58.5 11.1122 6.0604
      vertex 58.5 9.17198 7.09747
      vertex 58.5 10.4765 4.99982
    endloop
  endfacet
  facet normal 1 -0 0
    outer loop
      vertex 58.5 8.64728 6.22207
      vertex 58.5 10.4765 4.99982
      vertex 58.5 9.17198 7.09747
    endloop
  endfacet
  facet normal 1 0 0
    outer loop
      vertex 58.5 10.4765 4.99982
      vertex 58.5 8.64728 6.22207
      vertex 58.5 9.73993 4.00665
    endloop
  endfacet
  facet normal 1 -0 0
    outer loop
      vertex 58.5 8.03931 5.40231
      vertex 58.5 9.73993 4.00665
      vertex 58.5 8.64728 6.22207
    endloop
  endfacet
  facet normal 1 0 0
    outer loop
      vertex 58.5 9.73993 4.00665
      vertex 58.5 8.03931 5.40231
      vertex 58.5 8.90954 3.09046
    endloop
  endfacet
  facet normal 1 -0 0
    outer loop
      vertex 58.5 7.35391 4.64609
      vertex 58.5 8.90954 3.09046
      vertex 58.5 8.03931 5.40231
    endloop
  endfacet
  facet normal 1 0 0
    outer loop
      vertex 58.5 8.90954 3.09046
      vertex 58.5 7.35391 4.64609
      vertex 58.5 7.99335 2.26007
    endloop
  endfacet
  facet normal 1 -0 0
    outer loop
      vertex 58.5 6.59769 3.96069
      vertex 58.5 7.99335 2.26007
      vertex 58.5 7.35391 4.64609
    endloop
  endfacet
  facet normal 1 0 0
    outer loop
      vertex 58.5 7.99335 2.26007
      vertex 58.5 6.59769 3.96069
      vertex 58.5 7.00018 1.52348
    endloop
  endfacet
  facet normal 1 -0 0
    outer loop
      vertex 58.5 5.77793 3.35272
      vertex 58.5 7.00018 1.52348
      vertex 58.5 6.59769 3.96069
    endloop
  endfacet
  facet normal 1 0 0
    outer loop
      vertex 58.5 7.00018 1.52348
      vertex 58.5 5.77793 3.35272
      vertex 58.5 5.9396 0.887793
    endloop
  endfacet
  facet normal 1 -0 0
    outer loop
      vertex 58.5 4.90253 2.82802
      vertex 58.5 5.9396 0.887793
      vertex 58.5 5.77793 3.35272
    endloop
  endfacet
  facet normal 1 0 0
    outer loop
      vertex 58.5 4.90253 2.82802
      vertex 58.5 4.82181 0.359118
      vertex 58.5 5.9396 0.887793
    endloop
  endfacet
  facet normal 1 -0 0
    outer loop
      vertex 58.5 3.97991 2.39165
      vertex 58.5 4.82181 0.359118
      vertex 58.5 4.90253 2.82802
    endloop
  endfacet
  facet normal 1 0 0
    outer loop
      vertex 58.5 3.97991 2.39165
      vertex 58.5 3.81814 0
      vertex 58.5 4.82181 0.359118
    endloop
  endfacet
  facet normal 1 -0 0
    outer loop
      vertex 58.5 3.01896 2.04782
      vertex 58.5 3.81814 0
      vertex 58.5 3.97991 2.39165
    endloop
  endfacet
  facet normal 1 -0 0
    outer loop
      vertex 58.5 2.02894 1.79983
      vertex 58.5 3.81814 0
      vertex 58.5 3.01896 2.04782
    endloop
  endfacet
  facet normal 1 -0 0
    outer loop
      vertex 58.5 1.01938 1.65008
      vertex 58.5 3.81814 0
      vertex 58.5 2.02894 1.79983
    endloop
  endfacet
  facet normal 1 -0 0
    outer loop
      vertex 58.5 0 1.6
      vertex 58.5 3.81814 0
      vertex 58.5 1.01938 1.65008
    endloop
  endfacet
  facet normal 1 0 0
    outer loop
      vertex 58.5 -3.81814 0
      vertex 58.5 0 1.6
      vertex 58.5 -1.01938 1.65008
    endloop
  endfacet
  facet normal 1 0 0
    outer loop
      vertex 58.5 -3.81814 0
      vertex 58.5 -1.01938 1.65008
      vertex 58.5 -2.02894 1.79983
    endloop
  endfacet
  facet normal 1 0 0
    outer loop
      vertex 58.5 -3.81814 0
      vertex 58.5 -2.02894 1.79983
      vertex 58.5 -3.01896 2.04782
    endloop
  endfacet
  facet normal 1 0 0
    outer loop
      vertex 58.5 0 1.6
      vertex 58.5 -3.81814 0
      vertex 58.5 3.81814 0
    endloop
  endfacet
  facet normal 1 0 0
    outer loop
      vertex 58.5 -3.97991 2.39165
      vertex 58.5 -3.81814 0
      vertex 58.5 -3.01896 2.04782
    endloop
  endfacet
  facet normal 1 0 0
    outer loop
      vertex 58.5 -3.97991 2.39165
      vertex 58.5 -4.82181 0.359118
      vertex 58.5 -3.81814 0
    endloop
  endfacet
  facet normal 1 0 0
    outer loop
      vertex 58.5 -4.90253 2.82802
      vertex 58.5 -4.82181 0.359118
      vertex 58.5 -3.97991 2.39165
    endloop
  endfacet
  facet normal 1 0 0
    outer loop
      vertex 58.5 -5.9396 0.887793
      vertex 58.5 -4.90253 2.82802
      vertex 58.5 -5.77793 3.35272
    endloop
  endfacet
  facet normal 1 0 0
    outer loop
      vertex 58.5 -4.90253 2.82802
      vertex 58.5 -5.9396 0.887793
      vertex 58.5 -4.82181 0.359118
    endloop
  endfacet
  facet normal 1 0 0
    outer loop
      vertex 58.5 -7.00018 1.52348
      vertex 58.5 -5.77793 3.35272
      vertex 58.5 -6.59769 3.96069
    endloop
  endfacet
  facet normal 1 0 0
    outer loop
      vertex 58.5 -5.77793 3.35272
      vertex 58.5 -7.00018 1.52348
      vertex 58.5 -5.9396 0.887793
    endloop
  endfacet
  facet normal 1 0 0
    outer loop
      vertex 58.5 -7.99335 2.26007
      vertex 58.5 -6.59769 3.96069
      vertex 58.5 -7.35391 4.64609
    endloop
  endfacet
  facet normal 1 0 0
    outer loop
      vertex 58.5 -6.59769 3.96069
      vertex 58.5 -7.99335 2.26007
      vertex 58.5 -7.00018 1.52348
    endloop
  endfacet
  facet normal 1 0 0
    outer loop
      vertex 58.5 -8.90954 3.09046
      vertex 58.5 -7.35391 4.64609
      vertex 58.5 -8.03931 5.40231
    endloop
  endfacet
  facet normal 1 0 0
    outer loop
      vertex 58.5 -9.73993 4.00665
      vertex 58.5 -8.03931 5.40231
      vertex 58.5 -8.64728 6.22207
    endloop
  endfacet
  facet normal 1 0 0
    outer loop
      vertex 58.5 -7.35391 4.64609
      vertex 58.5 -8.90954 3.09046
      vertex 58.5 -7.99335 2.26007
    endloop
  endfacet
  facet normal 1 0 0
    outer loop
      vertex 58.5 -10.4765 4.99982
      vertex 58.5 -8.64728 6.22207
      vertex 58.5 -9.17198 7.09747
    endloop
  endfacet
  facet normal 1 0 0
    outer loop
      vertex 58.5 -10.4765 4.99982
      vertex 58.5 -9.17198 7.09747
      vertex 58.5 -9.60835 8.02009
    endloop
  endfacet
  facet normal 1 0 0
    outer loop
      vertex 58.5 -8.03931 5.40231
      vertex 58.5 -9.73993 4.00665
      vertex 58.5 -8.90954 3.09046
    endloop
  endfacet
  facet normal 1 0 0
    outer loop
      vertex 58.5 -10.4765 4.99982
      vertex 58.5 -9.60835 8.02009
      vertex 58.5 -9.95218 8.98104
    endloop
  endfacet
  facet normal 1 0 0
    outer loop
      vertex 58.5 -10.4765 4.99982
      vertex 58.5 -9.95218 8.98104
      vertex 58.5 -10.2002 9.97106
    endloop
  endfacet
  facet normal 1 0 0
    outer loop
      vertex 58.5 -10.4765 4.99982
      vertex 58.5 -10.2002 9.97106
      vertex 58.5 -10.3499 10.9806
    endloop
  endfacet
  facet normal 1 0 0
    outer loop
      vertex 58.5 -8.64728 6.22207
      vertex 58.5 -10.4765 4.99982
      vertex 58.5 -9.73993 4.00665
    endloop
  endfacet
  facet normal 1 0 0
    outer loop
      vertex 58.5 -10.4765 4.99982
      vertex 58.5 -10.3499 10.9806
      vertex 58.5 -10.4 12
    endloop
  endfacet
  facet normal -0 0.671561 0.74095
    outer loop
      vertex 58.5 -7.99335 2.26007
      vertex 86 -8.90954 3.09046
      vertex 86 -7.99335 2.26007
    endloop
  endfacet
  facet normal 0 0.671561 0.74095
    outer loop
      vertex 86 -8.90954 3.09046
      vertex 58.5 -7.99335 2.26007
      vertex 58.5 -8.90954 3.09046
    endloop
  endfacet
  facet normal -0 0.595702 0.803206
    outer loop
      vertex 58.5 -7.00018 1.52348
      vertex 86 -7.99335 2.26007
      vertex 86 -7.00018 1.52348
    endloop
  endfacet
  facet normal 0 0.595702 0.803206
    outer loop
      vertex 86 -7.99335 2.26007
      vertex 58.5 -7.00018 1.52348
      vertex 58.5 -7.99335 2.26007
    endloop
  endfacet
  facet normal 0 -0.595702 0.803206
    outer loop
      vertex 58.5 7.99335 2.26007
      vertex 86 7.00018 1.52348
      vertex 86 7.99335 2.26007
    endloop
  endfacet
  facet normal 0 -0.595702 0.803206
    outer loop
      vertex 86 7.00018 1.52348
      vertex 58.5 7.99335 2.26007
      vertex 58.5 7.00018 1.52348
    endloop
  endfacet
  facet normal 0 0.803213 0.595691
    outer loop
      vertex 86 -9.73993 4.00665
      vertex 58.5 -10.4765 4.99982
      vertex 86 -10.4765 4.99982
    endloop
  endfacet
  facet normal 0 0.803213 0.595691
    outer loop
      vertex 58.5 -10.4765 4.99982
      vertex 86 -9.73993 4.00665
      vertex 58.5 -9.73993 4.00665
    endloop
  endfacet
  facet normal 0 0.94155 0.336874
    outer loop
      vertex 86 -11.6409 7.17819
      vertex 58.5 -12 8.18186
      vertex 86 -12 8.18186
    endloop
  endfacet
  facet normal 0 0.94155 0.336874
    outer loop
      vertex 58.5 -12 8.18186
      vertex 86 -11.6409 7.17819
      vertex 58.5 -11.6409 7.17819
    endloop
  endfacet
  facet normal -0 0.427555 0.903989
    outer loop
      vertex 58.5 -4.82181 0.359118
      vertex 86 -5.9396 0.887793
      vertex 86 -4.82181 0.359118
    endloop
  endfacet
  facet normal 0 0.427555 0.903989
    outer loop
      vertex 86 -5.9396 0.887793
      vertex 58.5 -4.82181 0.359118
      vertex 58.5 -5.9396 0.887793
    endloop
  endfacet
  facet normal -0 0.514103 0.857729
    outer loop
      vertex 58.5 -5.9396 0.887793
      vertex 86 -7.00018 1.52348
      vertex 86 -5.9396 0.887793
    endloop
  endfacet
  facet normal 0 0.514103 0.857729
    outer loop
      vertex 86 -7.00018 1.52348
      vertex 58.5 -5.9396 0.887793
      vertex 58.5 -7.00018 1.52348
    endloop
  endfacet
  facet normal 0 0.74095 0.671561
    outer loop
      vertex 86 -8.90954 3.09046
      vertex 58.5 -9.73993 4.00665
      vertex 86 -9.73993 4.00665
    endloop
  endfacet
  facet normal 0 0.74095 0.671561
    outer loop
      vertex 58.5 -9.73993 4.00665
      vertex 86 -8.90954 3.09046
      vertex 58.5 -8.90954 3.09046
    endloop
  endfacet
  facet normal 0.894425 -0.447218 0
    outer loop
      vertex -4.65221 -10.4 22.4
      vertex -5.45222 -12 22.4
      vertex -4.65221 -10.4 12
    endloop
  endfacet
  facet normal 0.894427 -0.447215 -1.3729e-06
    outer loop
      vertex -5.45222 -12 0
      vertex -3.24721 -7.59001 4.90658
      vertex -3.47186 -8.03931 5.40231
    endloop
  endfacet
  facet normal 0.894425 -0.447218 1.46311e-06
    outer loop
      vertex -5.45222 -12 0
      vertex -3.47186 -8.03931 5.40231
      vertex -3.77585 -8.64728 6.22207
    endloop
  endfacet
  facet normal 0.894427 -0.447215 -7.56982e-07
    outer loop
      vertex -5.45222 -12 0
      vertex -3.77585 -8.64728 6.22207
      vertex -4.0382 -9.17198 7.09747
    endloop
  endfacet
  facet normal 0.894429 -0.44721 -2.90036e-06
    outer loop
      vertex -5.45222 -12 0
      vertex -4.0382 -9.17198 7.09747
      vertex -4.25638 -9.60835 8.02009
    endloop
  endfacet
  facet normal 0.894423 -0.447221 1.20313e-06
    outer loop
      vertex -5.45222 -12 0
      vertex -4.25638 -9.60835 8.02009
      vertex -4.4283 -9.95218 8.98104
    endloop
  endfacet
  facet normal 0.894425 -0.447218 0
    outer loop
      vertex -5.45222 -12 0
      vertex -4.65221 -10.4 12
      vertex -5.45222 -12 22.4
    endloop
  endfacet
  facet normal 0.894426 -0.447216 0
    outer loop
      vertex -3.24721 -7.59001 4.90658
      vertex -5.45222 -12 0
      vertex -3.24721 -7.59001 0
    endloop
  endfacet
  facet normal 0.894434 -0.4472 -4.82619e-06
    outer loop
      vertex -4.5523 -10.2002 9.97106
      vertex -5.45222 -12 0
      vertex -4.4283 -9.95218 8.98104
    endloop
  endfacet
  facet normal 0.894403 -0.447261 8.91853e-06
    outer loop
      vertex -4.62717 -10.3499 10.9806
      vertex -5.45222 -12 0
      vertex -4.5523 -10.2002 9.97106
    endloop
  endfacet
  facet normal 0.894445 -0.447178 -6.61185e-06
    outer loop
      vertex -4.65221 -10.4 12
      vertex -5.45222 -12 0
      vertex -4.62717 -10.3499 10.9806
    endloop
  endfacet
  facet normal 0 -1 0
    outer loop
      vertex -3.24721 -7.59001 0
      vertex 3.24721 -7.59001 4.90658
      vertex -3.24721 -7.59001 4.90658
    endloop
  endfacet
  facet normal 0 -1 -0
    outer loop
      vertex 3.24721 -7.59001 4.90658
      vertex -3.24721 -7.59001 0
      vertex 3.24721 -7.59001 0
    endloop
  endfacet
  facet normal -0.894426 -0.447216 0
    outer loop
      vertex 5.45222 -12 0
      vertex 3.24721 -7.59001 4.90658
      vertex 3.24721 -7.59001 0
    endloop
  endfacet
  facet normal -0.894427 -0.447215 -1.3729e-06
    outer loop
      vertex 3.24721 -7.59001 4.90658
      vertex 5.45222 -12 0
      vertex 3.47186 -8.03931 5.40231
    endloop
  endfacet
  facet normal -0.894425 -0.447218 1.46311e-06
    outer loop
      vertex 3.47186 -8.03931 5.40231
      vertex 5.45222 -12 0
      vertex 3.77585 -8.64728 6.22207
    endloop
  endfacet
  facet normal -0.894427 -0.447215 -7.56982e-07
    outer loop
      vertex 3.77585 -8.64728 6.22207
      vertex 5.45222 -12 0
      vertex 4.0382 -9.17198 7.09747
    endloop
  endfacet
  facet normal -0.894429 -0.44721 -2.90036e-06
    outer loop
      vertex 4.0382 -9.17198 7.09747
      vertex 5.45222 -12 0
      vertex 4.25638 -9.60835 8.02009
    endloop
  endfacet
  facet normal -0.894423 -0.447221 1.20313e-06
    outer loop
      vertex 4.25638 -9.60835 8.02009
      vertex 5.45222 -12 0
      vertex 4.4283 -9.95218 8.98104
    endloop
  endfacet
  facet normal -0.894434 -0.4472 -4.82619e-06
    outer loop
      vertex 5.45222 -12 0
      vertex 4.5523 -10.2002 9.97106
      vertex 4.4283 -9.95218 8.98104
    endloop
  endfacet
  facet normal -0.894403 -0.447261 8.91853e-06
    outer loop
      vertex 5.45222 -12 0
      vertex 4.62717 -10.3499 10.9806
      vertex 4.5523 -10.2002 9.97106
    endloop
  endfacet
  facet normal -0.894445 -0.447178 -6.61185e-06
    outer loop
      vertex 5.45222 -12 0
      vertex 4.65221 -10.4 12
      vertex 4.62717 -10.3499 10.9806
    endloop
  endfacet
  facet normal -0.894425 -0.447218 -0
    outer loop
      vertex 5.45222 -12 22.4
      vertex 4.65221 -10.4 12
      vertex 5.45222 -12 0
    endloop
  endfacet
  facet normal -0.894425 -0.447218 0
    outer loop
      vertex 4.65221 -10.4 12
      vertex 5.45222 -12 22.4
      vertex 4.65221 -10.4 22.4
    endloop
  endfacet
endsolid OpenSCAD_Model
