solid OpenSCAD_Model
  facet normal 1 0 0
    outer loop
      vertex 2.4 0 25.8
      vertex 2.4 82 50.3427
      vertex 2.4 82 73.1427
    endloop
  endfacet
  facet normal 1 0 0
    outer loop
      vertex 2.4 82 50.3427
      vertex 2.4 0 25.8
      vertex 2.4 5 19.4
    endloop
  endfacet
  facet normal 1 0 0
    outer loop
      vertex 2.4 5 19.4
      vertex 2.4 0 25.8
      vertex 2.4 0 19.4
    endloop
  endfacet
  facet normal 1 0 0
    outer loop
      vertex 2.4 82 50.3427
      vertex 2.4 5 19.4
      vertex 2.4 5 5.88675
    endloop
  endfacet
  facet normal 0 1 0
    outer loop
      vertex 170.8 82 73.1427
      vertex 168.4 82 50.3427
      vertex 168.4 82 73.1427
    endloop
  endfacet
  facet normal 0 1 0
    outer loop
      vertex 168.4 82 50.3427
      vertex 170.8 82 0
      vertex 2.4 82 50.3427
    endloop
  endfacet
  facet normal 0 1 -0
    outer loop
      vertex 170.8 82 0
      vertex 168.4 82 50.3427
      vertex 170.8 82 73.1427
    endloop
  endfacet
  facet normal 0 1 -0
    outer loop
      vertex 2.4 82 50.3427
      vertex 0 82 73.1427
      vertex 2.4 82 73.1427
    endloop
  endfacet
  facet normal 0 1 0
    outer loop
      vertex 2.4 82 50.3427
      vertex 0 82 0
      vertex 0 82 73.1427
    endloop
  endfacet
  facet normal 0 1 0
    outer loop
      vertex 0 82 0
      vertex 2.4 82 50.3427
      vertex 170.8 82 0
    endloop
  endfacet
  facet normal 0 0 -1
    outer loop
      vertex 0 0 0
      vertex 170.8 82 0
      vertex 170.8 0 0
    endloop
  endfacet
  facet normal -0 0 -1
    outer loop
      vertex 170.8 82 0
      vertex 0 0 0
      vertex 0 82 0
    endloop
  endfacet
  facet normal 0 -1 0
    outer loop
      vertex 0 0 25.8
      vertex 2.4 0 19.4
      vertex 2.4 0 25.8
    endloop
  endfacet
  facet normal 0 -1 -0
    outer loop
      vertex 2.4 0 19.4
      vertex 0 0 0
      vertex 168.4 0 19.4
    endloop
  endfacet
  facet normal 0 -1 0
    outer loop
      vertex 0 0 0
      vertex 2.4 0 19.4
      vertex 0 0 25.8
    endloop
  endfacet
  facet normal 0 -1 0
    outer loop
      vertex 168.4 0 19.4
      vertex 170.8 0 25.8
      vertex 168.4 0 25.8
    endloop
  endfacet
  facet normal 0 -1 0
    outer loop
      vertex 168.4 0 19.4
      vertex 170.8 0 0
      vertex 170.8 0 25.8
    endloop
  endfacet
  facet normal 0 -1 0
    outer loop
      vertex 170.8 0 0
      vertex 168.4 0 19.4
      vertex 0 0 0
    endloop
  endfacet
  facet normal 0 -0.5 0.866026
    outer loop
      vertex 2.4 82 50.3427
      vertex 168.4 5 5.88675
      vertex 168.4 82 50.3427
    endloop
  endfacet
  facet normal 0 -0.5 0.866026
    outer loop
      vertex 168.4 5 5.88675
      vertex 2.4 82 50.3427
      vertex 2.4 5 5.88675
    endloop
  endfacet
  facet normal -1 0 0
    outer loop
      vertex 168.4 5 19.4
      vertex 168.4 82 50.3427
      vertex 168.4 5 5.88675
    endloop
  endfacet
  facet normal -1 0 0
    outer loop
      vertex 168.4 0 25.8
      vertex 168.4 82 50.3427
      vertex 168.4 5 19.4
    endloop
  endfacet
  facet normal -1 0 0
    outer loop
      vertex 168.4 0 25.8
      vertex 168.4 5 19.4
      vertex 168.4 0 19.4
    endloop
  endfacet
  facet normal -1 -0 0
    outer loop
      vertex 168.4 82 50.3427
      vertex 168.4 0 25.8
      vertex 168.4 82 73.1427
    endloop
  endfacet
  facet normal -1 0 0
    outer loop
      vertex 0 0 25.8
      vertex 0 82 0
      vertex 0 0 0
    endloop
  endfacet
  facet normal -1 0 0
    outer loop
      vertex 0 82 0
      vertex 0 0 25.8
      vertex 0 82 73.1427
    endloop
  endfacet
  facet normal 0 -0.5 0.866026
    outer loop
      vertex 0 82 73.1427
      vertex 2.4 0 25.8
      vertex 2.4 82 73.1427
    endloop
  endfacet
  facet normal 0 -0.5 0.866026
    outer loop
      vertex 2.4 0 25.8
      vertex 0 82 73.1427
      vertex 0 0 25.8
    endloop
  endfacet
  facet normal 0 -0.5 0.866026
    outer loop
      vertex 168.4 82 73.1427
      vertex 170.8 0 25.8
      vertex 170.8 82 73.1427
    endloop
  endfacet
  facet normal 0 -0.5 0.866026
    outer loop
      vertex 170.8 0 25.8
      vertex 168.4 82 73.1427
      vertex 168.4 0 25.8
    endloop
  endfacet
  facet normal 1 -0 0
    outer loop
      vertex 170.8 0 25.8
      vertex 170.8 82 0
      vertex 170.8 82 73.1427
    endloop
  endfacet
  facet normal 1 0 0
    outer loop
      vertex 170.8 82 0
      vertex 170.8 0 25.8
      vertex 170.8 0 0
    endloop
  endfacet
  facet normal -0 0 1
    outer loop
      vertex 2.4 5 19.4
      vertex 168.4 0 19.4
      vertex 168.4 5 19.4
    endloop
  endfacet
  facet normal 0 0 1
    outer loop
      vertex 168.4 0 19.4
      vertex 2.4 5 19.4
      vertex 2.4 0 19.4
    endloop
  endfacet
  facet normal 0 1 -0
    outer loop
      vertex 168.4 5 5.88675
      vertex 2.4 5 19.4
      vertex 168.4 5 19.4
    endloop
  endfacet
  facet normal 0 1 0
    outer loop
      vertex 2.4 5 19.4
      vertex 168.4 5 5.88675
      vertex 2.4 5 5.88675
    endloop
  endfacet
endsolid OpenSCAD_Model
